<svg xmlns="http://www.w3.org/2000/svg" xmlns:xlink="http://www.w3.org/1999/xlink" width="95" zoomAndPan="magnify" viewBox="0 0 71.25 71.25" height="95" preserveAspectRatio="xMidYMid meet" version="1.0"><defs><clipPath id="c47e43facb"><path d="M 7.871094 7.871094 L 62.792969 7.871094 L 62.792969 62.792969 L 7.871094 62.792969 Z M 7.871094 7.871094 " clip-rule="nonzero"/></clipPath></defs><g clip-path="url(#c47e43facb)"><path fill="#ffffff" d="M 35.253906 7.871094 C 20.152344 7.871094 7.878906 20.160156 7.878906 35.257812 C 7.878906 50.359375 20.152344 62.632812 35.253906 62.632812 C 50.351562 62.632812 62.625 50.359375 62.625 35.257812 C 62.625 20.160156 50.351562 7.871094 35.253906 7.871094 Z M 35.253906 58.199219 C 22.605469 58.199219 12.3125 47.90625 12.3125 35.257812 C 12.3125 22.609375 22.605469 12.320312 35.253906 12.320312 C 47.898438 12.320312 58.191406 22.609375 58.191406 35.257812 C 58.191406 47.90625 47.898438 58.199219 35.253906 58.199219 Z M 35.253906 58.199219 " fill-opacity="1" fill-rule="nonzero"/></g><path fill="#ffffff" d="M 47.441406 34.4375 L 28.035156 23.234375 C 27.414062 22.875 26.625 23.324219 26.625 24.046875 L 26.625 46.460938 C 26.625 47.183594 27.414062 47.632812 28.035156 47.269531 L 47.449219 36.066406 C 48.074219 35.707031 48.074219 34.796875 47.441406 34.4375 Z M 47.441406 34.4375 " fill-opacity="1" fill-rule="nonzero"/></svg>