<svg xmlns="http://www.w3.org/2000/svg" xmlns:xlink="http://www.w3.org/1999/xlink" width="95" zoomAndPan="magnify" viewBox="0 0 71.25 71.25" height="95" preserveAspectRatio="xMidYMid meet" version="1.0"><defs><clipPath id="69cbbc8b16"><path d="M 5.058594 30 L 11 30 L 11 34 L 5.058594 34 Z M 5.058594 30 " clip-rule="nonzero"/></clipPath><clipPath id="b2c78a2440"><path d="M 5.058594 59 L 11 59 L 11 63.457031 L 5.058594 63.457031 Z M 5.058594 59 " clip-rule="nonzero"/></clipPath><clipPath id="acb4079d67"><path d="M 52 7.050781 L 56 7.050781 L 56 12 L 52 12 Z M 52 7.050781 " clip-rule="nonzero"/></clipPath><clipPath id="255559987c"><path d="M 9 7.050781 L 14 7.050781 L 14 12 L 9 12 Z M 9 7.050781 " clip-rule="nonzero"/></clipPath><clipPath id="868cacb6f8"><path d="M 59 29 L 65.175781 29 L 65.175781 36 L 59 36 Z M 59 29 " clip-rule="nonzero"/></clipPath></defs><path fill="#d60000" d="M 14.179688 45.453125 C 13.882812 45.453125 13.640625 45.210938 13.640625 44.914062 L 13.640625 22 C 13.640625 20.945312 14.496094 20.089844 15.550781 20.089844 L 18.496094 20.089844 C 18.792969 20.089844 19.035156 20.332031 19.035156 20.628906 C 19.035156 20.925781 18.792969 21.167969 18.496094 21.167969 L 15.550781 21.167969 C 15.089844 21.167969 14.71875 21.542969 14.71875 22 L 14.71875 44.914062 C 14.71875 45.210938 14.476562 45.453125 14.179688 45.453125 Z M 14.179688 45.453125 " fill-opacity="1" fill-rule="nonzero"/><path fill="#d60000" d="M 44.105469 62.179688 L 15.550781 62.179688 C 14.496094 62.179688 13.640625 61.324219 13.640625 60.269531 L 13.640625 47.972656 C 13.640625 47.675781 13.882812 47.433594 14.179688 47.433594 C 14.476562 47.433594 14.71875 47.675781 14.71875 47.972656 L 14.71875 60.269531 C 14.71875 60.730469 15.089844 61.101562 15.550781 61.101562 L 44.105469 61.101562 C 44.566406 61.101562 44.9375 60.730469 44.9375 60.269531 L 44.9375 57.324219 C 44.9375 57.027344 45.179688 56.785156 45.476562 56.785156 C 45.773438 56.785156 46.015625 57.027344 46.015625 57.324219 L 46.015625 60.269531 C 46.015625 61.324219 45.160156 62.179688 44.105469 62.179688 Z M 44.105469 62.179688 " fill-opacity="1" fill-rule="nonzero"/><path fill="#d60000" d="M 9.257812 34.78125 C 9.0625 34.78125 8.871094 34.671875 8.777344 34.484375 L 6.816406 30.636719 C 6.683594 30.375 6.789062 30.046875 7.054688 29.914062 C 7.320312 29.777344 7.644531 29.882812 7.78125 30.148438 L 9.738281 33.996094 C 9.875 34.261719 9.769531 34.585938 9.503906 34.722656 C 9.425781 34.761719 9.339844 34.78125 9.257812 34.78125 Z M 9.257812 34.78125 " fill-opacity="1" fill-rule="nonzero"/><g clip-path="url(#69cbbc8b16)"><path fill="#d60000" d="M 6.355469 33.835938 C 6.160156 33.835938 5.96875 33.730469 5.875 33.542969 C 5.738281 33.277344 5.84375 32.953125 6.109375 32.816406 L 9.957031 30.855469 C 10.222656 30.71875 10.546875 30.828125 10.683594 31.09375 C 10.816406 31.359375 10.710938 31.683594 10.445312 31.816406 L 6.601562 33.777344 C 6.523438 33.816406 6.4375 33.835938 6.355469 33.835938 Z M 6.355469 33.835938 " fill-opacity="1" fill-rule="nonzero"/></g><g clip-path="url(#b2c78a2440)"><path fill="#d60000" d="M 9.789062 63.074219 C 9.617188 63.074219 9.453125 62.992188 9.347656 62.84375 C 8.574219 61.75 7.058594 61.484375 5.964844 62.253906 C 5.71875 62.425781 5.382812 62.367188 5.210938 62.125 C 5.039062 61.882812 5.097656 61.542969 5.34375 61.371094 C 5.9375 60.953125 6.308594 60.300781 6.363281 59.582031 C 6.382812 59.285156 6.636719 59.0625 6.941406 59.085938 C 7.238281 59.105469 7.460938 59.363281 7.4375 59.660156 C 7.410156 60.035156 7.324219 60.398438 7.183594 60.734375 C 7.441406 60.722656 7.703125 60.738281 7.960938 60.785156 C 8.222656 60.828125 8.476562 60.902344 8.714844 61.003906 C 8.699219 60.695312 8.722656 60.378906 8.792969 60.074219 C 8.859375 59.78125 9.148438 59.601562 9.4375 59.664062 C 9.726562 59.726562 9.910156 60.015625 9.847656 60.308594 C 9.695312 60.976562 9.832031 61.65625 10.226562 62.21875 C 10.226562 62.21875 10.226562 62.222656 10.230469 62.222656 C 10.402344 62.464844 10.34375 62.804688 10.097656 62.972656 C 10.003906 63.039062 9.894531 63.074219 9.789062 63.074219 Z M 9.789062 63.074219 " fill-opacity="1" fill-rule="nonzero"/></g><path fill="#d60000" d="M 58.695312 49.230469 C 58.605469 49.230469 58.519531 49.226562 58.429688 49.214844 C 57.101562 49.0625 56.136719 47.859375 56.285156 46.53125 C 56.300781 46.402344 56.320312 46.277344 56.359375 46.160156 C 56.449219 45.875 56.753906 45.71875 57.035156 45.804688 C 57.320312 45.894531 57.476562 46.199219 57.390625 46.484375 C 57.371094 46.539062 57.363281 46.597656 57.355469 46.652344 C 57.277344 47.386719 57.808594 48.058594 58.546875 48.144531 C 59.285156 48.226562 59.953125 47.6875 60.039062 46.949219 C 60.121094 46.226562 59.617188 45.574219 58.890625 45.46875 C 58.59375 45.425781 58.390625 45.152344 58.433594 44.855469 C 58.476562 44.5625 58.75 44.359375 59.046875 44.398438 C 60.351562 44.589844 61.257812 45.761719 61.113281 47.070312 C 60.96875 48.3125 59.914062 49.230469 58.695312 49.230469 Z M 58.695312 49.230469 " fill-opacity="1" fill-rule="nonzero"/><path fill="#d60000" d="M 48.714844 52.46875 C 48.417969 52.46875 48.175781 52.226562 48.175781 51.929688 L 48.175781 39.695312 C 48.175781 39.398438 48.417969 39.15625 48.714844 39.15625 C 49.011719 39.15625 49.253906 39.398438 49.253906 39.695312 L 49.253906 51.929688 C 49.253906 52.226562 49.011719 52.46875 48.714844 52.46875 Z M 48.714844 52.46875 " fill-opacity="1" fill-rule="nonzero"/><path fill="#d60000" d="M 48.714844 33.539062 C 48.417969 33.539062 48.175781 33.296875 48.175781 32.996094 L 48.175781 18.523438 C 48.175781 17.898438 47.667969 17.390625 47.042969 17.390625 L 20.167969 17.390625 C 19.542969 17.390625 19.035156 17.898438 19.035156 18.523438 L 19.035156 25.960938 C 19.035156 26.257812 18.792969 26.5 18.496094 26.5 C 18.199219 26.5 17.957031 26.257812 17.957031 25.960938 L 17.957031 18.523438 C 17.957031 17.304688 18.949219 16.3125 20.167969 16.3125 L 47.042969 16.3125 C 48.261719 16.3125 49.253906 17.304688 49.253906 18.523438 L 49.253906 32.996094 C 49.253906 33.296875 49.011719 33.539062 48.714844 33.539062 Z M 48.714844 33.539062 " fill-opacity="1" fill-rule="nonzero"/><path fill="#d60000" d="M 47.042969 57.863281 L 22.714844 57.863281 C 20.089844 57.863281 17.957031 55.726562 17.957031 53.105469 L 17.957031 29.804688 C 17.957031 29.503906 18.199219 29.261719 18.496094 29.261719 C 18.792969 29.261719 19.035156 29.503906 19.035156 29.804688 L 19.035156 53.105469 C 19.035156 55.132812 20.6875 56.785156 22.714844 56.785156 L 47.042969 56.785156 C 47.339844 56.785156 47.582031 57.027344 47.582031 57.324219 C 47.582031 57.621094 47.339844 57.863281 47.042969 57.863281 Z M 47.042969 57.863281 " fill-opacity="1" fill-rule="nonzero"/><path fill="#d60000" d="M 21.917969 57.789062 C 21.660156 57.789062 21.429688 57.605469 21.386719 57.339844 C 21.335938 57.046875 21.53125 56.769531 21.824219 56.71875 C 22.445312 56.609375 23.628906 56.28125 24.589844 55.324219 C 25.5 54.488281 25.953125 53.347656 25.953125 51.929688 C 25.953125 51.628906 26.195312 51.386719 26.492188 51.386719 L 40.679688 51.386719 C 40.976562 51.386719 41.21875 51.628906 41.21875 51.929688 C 41.21875 52.226562 40.976562 52.46875 40.679688 52.46875 L 27.011719 52.46875 C 26.90625 53.957031 26.34375 55.179688 25.335938 56.101562 C 24.183594 57.257812 22.757812 57.648438 22.011719 57.78125 C 21.980469 57.785156 21.949219 57.789062 21.917969 57.789062 Z M 21.917969 57.789062 " fill-opacity="1" fill-rule="nonzero"/><path fill="#d60000" d="M 47.683594 57.863281 L 22.714844 57.863281 C 22.417969 57.863281 22.175781 57.621094 22.175781 57.324219 C 22.175781 57.027344 22.417969 56.785156 22.714844 56.785156 L 47.683594 56.785156 C 49.121094 56.785156 50.46875 56.273438 51.480469 55.347656 C 52.339844 54.558594 52.867188 53.554688 53 52.46875 L 43.320312 52.46875 C 43.019531 52.46875 42.777344 52.226562 42.777344 51.929688 C 42.777344 51.628906 43.019531 51.386719 43.320312 51.386719 L 53.570312 51.386719 C 53.871094 51.386719 54.109375 51.628906 54.109375 51.929688 C 54.109375 53.523438 53.4375 55.019531 52.210938 56.140625 C 51 57.25 49.394531 57.863281 47.683594 57.863281 Z M 47.683594 57.863281 " fill-opacity="1" fill-rule="nonzero"/><path fill="#d60000" d="M 26.507812 21.167969 C 26.457031 21.167969 26.40625 21.164062 26.351562 21.148438 C 25.953125 21.039062 25.566406 20.984375 25.191406 20.984375 C 25.003906 20.984375 24.808594 21 24.597656 21.03125 C 24.382812 21.058594 24.160156 21.101562 23.921875 21.164062 C 23.921875 21.488281 23.910156 21.976562 23.886719 22.621094 C 24.023438 22.609375 24.503906 22.5625 25.328125 22.484375 C 25.800781 22.4375 26.097656 22.414062 26.222656 22.414062 C 26.367188 22.414062 26.492188 22.457031 26.59375 22.550781 C 26.699219 22.644531 26.75 22.765625 26.75 22.917969 C 26.75 23.210938 26.59375 23.375 26.28125 23.414062 C 26.085938 23.429688 25.789062 23.457031 25.398438 23.488281 C 25.050781 23.527344 24.523438 23.578125 23.820312 23.632812 C 23.804688 23.945312 23.792969 24.199219 23.792969 24.390625 C 23.792969 24.871094 23.824219 25.144531 23.878906 25.210938 C 23.90625 25.242188 24.0625 25.261719 24.34375 25.261719 C 24.496094 25.261719 24.726562 25.257812 25.035156 25.25 C 25.339844 25.242188 25.570312 25.238281 25.722656 25.238281 C 25.773438 25.238281 25.84375 25.230469 25.941406 25.214844 C 26.035156 25.199219 26.109375 25.191406 26.15625 25.191406 C 26.296875 25.191406 26.417969 25.234375 26.519531 25.316406 C 26.636719 25.40625 26.691406 25.535156 26.691406 25.699219 C 26.691406 25.972656 26.550781 26.140625 26.261719 26.191406 C 26.015625 26.238281 25.503906 26.261719 24.730469 26.261719 C 23.929688 26.261719 23.40625 26.15625 23.164062 25.9375 C 22.894531 25.699219 22.761719 25.183594 22.761719 24.390625 C 22.761719 24.058594 22.785156 23.566406 22.832031 22.90625 C 22.878906 22.246094 22.90625 21.75 22.90625 21.421875 C 22.90625 21.335938 22.890625 21.210938 22.867188 21.042969 C 22.84375 20.871094 22.832031 20.746094 22.832031 20.660156 C 22.832031 20.285156 23.003906 20.097656 23.347656 20.097656 C 23.457031 20.097656 23.554688 20.128906 23.648438 20.191406 C 23.933594 20.121094 24.203125 20.066406 24.460938 20.03125 C 24.71875 19.996094 24.960938 19.976562 25.1875 19.976562 C 25.808594 19.976562 26.304688 20.046875 26.675781 20.191406 C 26.902344 20.277344 27.015625 20.433594 27.015625 20.660156 C 27.015625 20.789062 26.972656 20.902344 26.882812 21 C 26.785156 21.113281 26.660156 21.167969 26.507812 21.167969 Z M 26.507812 21.167969 " fill-opacity="1" fill-rule="nonzero"/><path fill="#d60000" d="M 32.273438 21.121094 C 31.945312 21.492188 31.695312 21.804688 31.519531 22.050781 C 31.332031 22.324219 31.03125 22.722656 30.621094 23.242188 C 30.878906 23.601562 31.136719 23.960938 31.394531 24.324219 C 31.699219 24.746094 31.972656 25.09375 32.214844 25.367188 C 32.308594 25.472656 32.351562 25.582031 32.351562 25.699219 C 32.351562 25.835938 32.300781 25.957031 32.195312 26.058594 C 32.09375 26.160156 31.96875 26.207031 31.824219 26.207031 C 31.582031 26.207031 31.261719 25.929688 30.871094 25.367188 C 30.765625 25.207031 30.601562 24.964844 30.378906 24.644531 C 30.277344 24.503906 30.121094 24.289062 29.910156 24.007812 C 29.609375 24.347656 29.226562 24.769531 28.757812 25.269531 C 28.613281 25.433594 28.382812 25.679688 28.078125 26 C 27.96875 26.101562 27.84375 26.152344 27.703125 26.152344 C 27.5625 26.152344 27.4375 26.105469 27.332031 26.003906 C 27.226562 25.902344 27.171875 25.785156 27.171875 25.648438 C 27.171875 25.53125 27.214844 25.421875 27.300781 25.324219 C 27.453125 25.164062 27.675781 24.929688 27.972656 24.609375 C 28.300781 24.261719 28.730469 23.78125 29.277344 23.171875 C 29.027344 22.859375 28.765625 22.542969 28.492188 22.226562 C 28.46875 22.203125 28.328125 22.023438 28.070312 21.6875 C 27.902344 21.46875 27.746094 21.304688 27.601562 21.195312 C 27.460938 21.082031 27.390625 20.949219 27.390625 20.796875 C 27.390625 20.667969 27.441406 20.550781 27.539062 20.445312 C 27.640625 20.339844 27.765625 20.289062 27.914062 20.289062 C 28.046875 20.289062 28.222656 20.382812 28.4375 20.566406 C 28.597656 20.707031 28.726562 20.84375 28.832031 20.984375 C 28.933594 21.121094 29.085938 21.320312 29.292969 21.582031 C 29.527344 21.851562 29.753906 22.121094 29.972656 22.398438 C 30.285156 21.988281 30.59375 21.582031 30.898438 21.171875 C 31.375 20.582031 31.703125 20.289062 31.878906 20.289062 C 32.019531 20.289062 32.144531 20.335938 32.25 20.4375 C 32.355469 20.535156 32.410156 20.65625 32.410156 20.792969 C 32.410156 20.910156 32.363281 21.019531 32.273438 21.121094 Z M 32.273438 21.121094 " fill-opacity="1" fill-rule="nonzero"/><path fill="#d60000" d="M 37.210938 26.007812 C 37.015625 26.003906 36.820312 25.773438 36.625 25.324219 C 36.496094 25.035156 36.382812 24.699219 36.289062 24.320312 C 36.105469 24.347656 35.808594 24.375 35.398438 24.402344 C 35.007812 24.429688 34.710938 24.460938 34.503906 24.496094 C 34.390625 24.769531 34.195312 25.175781 33.914062 25.71875 C 33.804688 25.894531 33.65625 25.984375 33.464844 25.984375 C 33.328125 25.984375 33.207031 25.9375 33.097656 25.847656 C 32.992188 25.753906 32.9375 25.636719 32.9375 25.492188 C 32.9375 25.367188 33.117188 24.941406 33.476562 24.21875 C 33.441406 24.140625 33.425781 24.070312 33.429688 24.003906 C 33.441406 23.886719 33.558594 23.792969 33.789062 23.726562 C 34.136719 23.121094 34.527344 22.496094 34.953125 21.847656 C 35.570312 20.914062 35.949219 20.449219 36.089844 20.449219 C 36.359375 20.449219 36.542969 20.609375 36.632812 20.9375 C 36.679688 21.203125 36.757812 21.597656 36.863281 22.121094 C 37.015625 22.832031 37.199219 23.640625 37.414062 24.554688 C 37.429688 24.621094 37.492188 24.785156 37.601562 25.039062 C 37.691406 25.25 37.734375 25.410156 37.734375 25.515625 C 37.734375 25.660156 37.683594 25.777344 37.574219 25.875 C 37.46875 25.96875 37.347656 26.015625 37.210938 26.007812 Z M 35.835938 22.226562 C 35.644531 22.554688 35.378906 23.003906 35.042969 23.570312 C 35.152344 23.546875 35.324219 23.527344 35.558594 23.511719 C 35.835938 23.496094 36.007812 23.480469 36.078125 23.472656 C 36.019531 23.152344 35.9375 22.734375 35.835938 22.226562 Z M 35.835938 22.226562 " fill-opacity="1" fill-rule="nonzero"/><path fill="#d60000" d="M 40.078125 22.984375 C 39.96875 23.382812 39.8125 23.984375 39.613281 24.789062 C 39.566406 25.066406 39.519531 25.34375 39.476562 25.617188 C 39.375 25.96875 39.191406 26.140625 38.917969 26.140625 C 38.75 26.140625 38.617188 26.085938 38.519531 25.96875 C 38.433594 25.871094 38.390625 25.753906 38.390625 25.617188 C 38.390625 25.222656 38.476562 24.734375 38.648438 24.160156 C 38.898438 23.304688 39.035156 22.828125 39.058594 22.734375 C 39.128906 22.355469 39.199219 21.976562 39.273438 21.597656 C 39.386719 21.078125 39.503906 20.730469 39.632812 20.554688 C 39.761719 20.382812 39.925781 20.296875 40.121094 20.296875 C 40.347656 20.296875 40.511719 20.410156 40.617188 20.636719 C 40.714844 20.847656 40.820312 21.289062 40.933594 21.949219 C 41.042969 22.589844 41.203125 23.28125 41.417969 24.023438 C 41.699219 23.292969 41.957031 22.492188 42.199219 21.617188 L 42.40625 20.769531 C 42.539062 20.417969 42.742188 20.242188 43.023438 20.242188 C 43.289062 20.242188 43.488281 20.445312 43.621094 20.855469 C 43.675781 21.019531 43.730469 21.324219 43.792969 21.777344 C 43.9375 22.824219 44.117188 23.722656 44.332031 24.46875 C 44.550781 25.226562 44.660156 25.640625 44.660156 25.707031 C 44.660156 25.851562 44.601562 25.976562 44.488281 26.074219 C 44.378906 26.160156 44.257812 26.207031 44.121094 26.207031 C 43.851562 26.207031 43.652344 26.015625 43.523438 25.632812 L 43.316406 24.738281 C 43.199219 24.296875 43.070312 23.660156 42.933594 22.832031 C 42.824219 23.160156 42.640625 23.679688 42.382812 24.382812 L 42.164062 25.0625 C 42.070312 25.332031 41.976562 25.550781 41.878906 25.722656 C 41.746094 25.953125 41.566406 26.066406 41.332031 26.066406 C 41.101562 26.066406 40.925781 25.929688 40.800781 25.65625 L 40.59375 24.972656 C 40.402344 24.339844 40.230469 23.679688 40.078125 22.984375 Z M 40.078125 22.984375 " fill-opacity="1" fill-rule="nonzero"/><path fill="#d60000" d="M 23.351562 35.199219 C 23.171875 35.199219 23.003906 35.109375 22.902344 34.960938 L 21.824219 33.339844 C 21.660156 33.09375 21.726562 32.757812 21.972656 32.59375 C 22.222656 32.425781 22.558594 32.492188 22.722656 32.742188 L 23.285156 33.585938 L 25.027344 30.101562 C 25.160156 29.835938 25.484375 29.726562 25.753906 29.859375 C 26.019531 29.992188 26.125 30.316406 25.992188 30.585938 L 23.835938 34.902344 C 23.75 35.074219 23.578125 35.1875 23.386719 35.199219 C 23.375 35.199219 23.363281 35.199219 23.351562 35.199219 Z M 23.351562 35.199219 " fill-opacity="1" fill-rule="nonzero"/><path fill="#d60000" d="M 24.898438 41.136719 L 23.425781 41.136719 C 22.789062 41.136719 22.273438 40.617188 22.273438 39.984375 L 22.273438 38.511719 C 22.273438 37.875 22.789062 37.359375 23.425781 37.359375 L 24.898438 37.359375 C 25.535156 37.359375 26.050781 37.875 26.050781 38.511719 L 26.050781 39.984375 C 26.050781 40.617188 25.535156 41.136719 24.898438 41.136719 Z M 23.425781 38.4375 C 23.386719 38.4375 23.351562 38.46875 23.351562 38.511719 L 23.351562 39.984375 C 23.351562 40.023438 23.386719 40.054688 23.425781 40.054688 L 24.898438 40.054688 C 24.9375 40.054688 24.972656 40.023438 24.972656 39.984375 L 24.972656 38.511719 C 24.972656 38.46875 24.9375 38.4375 24.898438 38.4375 Z M 23.425781 38.4375 " fill-opacity="1" fill-rule="nonzero"/><path fill="#d60000" d="M 24.882812 47.070312 L 23.441406 47.070312 C 22.796875 47.070312 22.273438 46.546875 22.273438 45.902344 L 22.273438 44.460938 C 22.273438 43.816406 22.796875 43.292969 23.441406 43.292969 L 24.882812 43.292969 C 25.527344 43.292969 26.050781 43.816406 26.050781 44.460938 L 26.050781 45.902344 C 26.050781 46.546875 25.527344 47.070312 24.882812 47.070312 Z M 23.441406 44.375 C 23.394531 44.375 23.351562 44.414062 23.351562 44.460938 L 23.351562 45.902344 C 23.351562 45.953125 23.394531 45.992188 23.441406 45.992188 L 24.882812 45.992188 C 24.929688 45.992188 24.972656 45.953125 24.972656 45.902344 L 24.972656 44.460938 C 24.972656 44.414062 24.929688 44.375 24.882812 44.375 Z M 23.441406 44.375 " fill-opacity="1" fill-rule="nonzero"/><path fill="#d60000" d="M 41.699219 33.039062 L 28.210938 33.039062 C 27.910156 33.039062 27.667969 32.800781 27.667969 32.5 C 27.667969 32.203125 27.910156 31.960938 28.210938 31.960938 L 41.699219 31.960938 C 41.996094 31.960938 42.238281 32.203125 42.238281 32.5 C 42.238281 32.800781 41.996094 33.039062 41.699219 33.039062 Z M 41.699219 33.039062 " fill-opacity="1" fill-rule="nonzero"/><path fill="#d60000" d="M 41.699219 39.515625 L 28.210938 39.515625 C 27.910156 39.515625 27.667969 39.273438 27.667969 38.976562 C 27.667969 38.679688 27.910156 38.4375 28.210938 38.4375 L 41.699219 38.4375 C 41.996094 38.4375 42.238281 38.679688 42.238281 38.976562 C 42.238281 39.273438 41.996094 39.515625 41.699219 39.515625 Z M 41.699219 39.515625 " fill-opacity="1" fill-rule="nonzero"/><path fill="#d60000" d="M 41.699219 45.453125 L 28.210938 45.453125 C 27.910156 45.453125 27.667969 45.210938 27.667969 44.914062 C 27.667969 44.613281 27.910156 44.375 28.210938 44.375 L 41.699219 44.375 C 41.996094 44.375 42.238281 44.613281 42.238281 44.914062 C 42.238281 45.210938 41.996094 45.453125 41.699219 45.453125 Z M 41.699219 45.453125 " fill-opacity="1" fill-rule="nonzero"/><path fill="#d60000" d="M 47.273438 41.675781 C 47.136719 41.675781 46.996094 41.621094 46.894531 41.515625 C 46.683594 41.304688 46.683594 40.964844 46.894531 40.753906 L 59.703125 27.941406 C 60.222656 27.421875 60.222656 26.574219 59.703125 26.054688 L 59.003906 25.363281 C 58.75 25.109375 58.417969 24.96875 58.0625 24.96875 C 57.703125 24.96875 57.367188 25.109375 57.117188 25.359375 L 53.9375 28.539062 C 53.726562 28.75 53.386719 28.75 53.175781 28.539062 C 52.964844 28.328125 52.964844 27.988281 53.175781 27.773438 L 56.351562 24.597656 C 56.808594 24.140625 57.414062 23.886719 58.0625 23.886719 C 58.0625 23.886719 58.0625 23.886719 58.066406 23.886719 C 58.710938 23.890625 59.3125 24.140625 59.765625 24.597656 L 60.449219 25.277344 C 61.402344 26.230469 61.40625 27.761719 60.46875 28.703125 L 47.65625 41.515625 C 47.550781 41.621094 47.414062 41.675781 47.273438 41.675781 Z M 47.273438 41.675781 " fill-opacity="1" fill-rule="nonzero"/><path fill="#d60000" d="M 43.921875 38.328125 C 43.785156 38.328125 43.648438 38.277344 43.542969 38.171875 C 43.332031 37.960938 43.332031 37.621094 43.542969 37.40625 L 52.007812 28.941406 C 52.21875 28.730469 52.558594 28.730469 52.769531 28.941406 C 52.980469 29.152344 52.980469 29.492188 52.769531 29.703125 L 44.304688 38.171875 C 44.199219 38.277344 44.0625 38.328125 43.921875 38.328125 Z M 43.921875 38.328125 " fill-opacity="1" fill-rule="nonzero"/><path fill="#d60000" d="M 42.160156 43.441406 C 42.019531 43.441406 41.878906 43.386719 41.777344 43.28125 C 41.628906 43.136719 41.582031 42.917969 41.648438 42.726562 L 43.414062 37.613281 C 43.460938 37.46875 43.570312 37.351562 43.707031 37.292969 C 43.847656 37.230469 44.003906 37.234375 44.144531 37.292969 C 46.082031 38.15625 47.273438 39.359375 47.785156 40.972656 C 47.875 41.25 47.726562 41.550781 47.449219 41.644531 L 42.335938 43.410156 C 42.277344 43.429688 42.21875 43.441406 42.160156 43.441406 Z M 44.234375 38.539062 L 43.03125 42.03125 L 46.566406 40.808594 C 46.140625 39.882812 45.371094 39.132812 44.234375 38.539062 Z M 44.234375 38.539062 " fill-opacity="1" fill-rule="nonzero"/><path fill="#d60000" d="M 57.4375 31.511719 C 57.292969 31.511719 57.15625 31.453125 57.054688 31.351562 L 53.707031 28.003906 C 53.496094 27.792969 53.496094 27.453125 53.707031 27.242188 L 55.074219 25.875 C 55.175781 25.773438 55.3125 25.714844 55.457031 25.714844 C 55.601562 25.714844 55.738281 25.773438 55.839844 25.875 L 59.1875 29.222656 C 59.398438 29.433594 59.398438 29.773438 59.1875 29.984375 L 57.820312 31.351562 C 57.71875 31.453125 57.582031 31.511719 57.4375 31.511719 Z M 54.851562 27.621094 L 57.4375 30.207031 L 58.042969 29.605469 L 55.457031 27.019531 Z M 54.851562 27.621094 " fill-opacity="1" fill-rule="nonzero"/><path fill="#d60000" d="M 44.722656 42.558594 C 44.484375 42.558594 44.261719 42.394531 44.199219 42.152344 C 44.121094 41.847656 43.957031 41.5625 43.726562 41.332031 C 43.496094 41.101562 43.214844 40.9375 42.90625 40.859375 C 42.617188 40.785156 42.445312 40.492188 42.519531 40.203125 C 42.59375 39.914062 42.886719 39.738281 43.175781 39.8125 C 43.667969 39.941406 44.125 40.203125 44.492188 40.566406 C 44.859375 40.933594 45.117188 41.390625 45.246094 41.882812 C 45.320312 42.171875 45.144531 42.464844 44.859375 42.539062 C 44.8125 42.550781 44.769531 42.558594 44.722656 42.558594 Z M 44.722656 42.558594 " fill-opacity="1" fill-rule="nonzero"/><path fill="#d60000" d="M 48.667969 37.75 C 48.347656 37.75 48.023438 37.625 47.777344 37.382812 L 47.679688 37.28125 C 47.1875 36.792969 47.1875 35.992188 47.679688 35.503906 L 52.425781 30.753906 C 52.917969 30.261719 53.714844 30.261719 54.207031 30.753906 L 54.304688 30.855469 C 54.796875 31.34375 54.796875 32.140625 54.304688 32.632812 L 49.558594 37.382812 C 49.3125 37.625 48.988281 37.75 48.667969 37.75 Z M 53.316406 31.464844 C 53.289062 31.464844 53.234375 31.472656 53.191406 31.515625 L 48.441406 36.265625 C 48.394531 36.3125 48.390625 36.363281 48.390625 36.390625 C 48.390625 36.417969 48.394531 36.472656 48.441406 36.519531 L 48.542969 36.617188 C 48.613281 36.6875 48.722656 36.6875 48.792969 36.617188 L 53.542969 31.871094 C 53.613281 31.800781 53.613281 31.6875 53.542969 31.617188 L 53.441406 31.515625 C 53.398438 31.472656 53.34375 31.464844 53.316406 31.464844 Z M 53.316406 31.464844 " fill-opacity="1" fill-rule="nonzero"/><path fill="#d60000" d="M 50.332031 15.773438 C 50.234375 15.773438 50.132812 15.746094 50.042969 15.6875 C 49.792969 15.527344 49.71875 15.191406 49.878906 14.941406 L 51.507812 12.40625 C 51.671875 12.15625 52.003906 12.082031 52.253906 12.242188 C 52.507812 12.402344 52.578125 12.738281 52.417969 12.988281 L 50.789062 15.523438 C 50.683594 15.6875 50.511719 15.773438 50.332031 15.773438 Z M 50.332031 15.773438 " fill-opacity="1" fill-rule="nonzero"/><g clip-path="url(#acb4079d67)"><path fill="#d60000" d="M 52.929688 11.738281 C 52.828125 11.738281 52.726562 11.710938 52.636719 11.652344 C 52.386719 11.488281 52.3125 11.15625 52.476562 10.90625 L 54.734375 7.386719 C 54.898438 7.136719 55.230469 7.0625 55.480469 7.222656 C 55.734375 7.386719 55.804688 7.71875 55.644531 7.96875 L 53.382812 11.488281 C 53.28125 11.648438 53.105469 11.738281 52.929688 11.738281 Z M 52.929688 11.738281 " fill-opacity="1" fill-rule="nonzero"/></g><path fill="#d60000" d="M 47.636719 14.695312 C 47.335938 14.695312 47.097656 14.453125 47.097656 14.152344 L 47.097656 9.296875 C 47.097656 9 47.335938 8.757812 47.636719 8.757812 C 47.933594 8.757812 48.175781 9 48.175781 9.296875 L 48.175781 14.152344 C 48.175781 14.453125 47.933594 14.695312 47.636719 14.695312 Z M 47.636719 14.695312 " fill-opacity="1" fill-rule="nonzero"/><path fill="#d60000" d="M 51.960938 17.707031 C 51.765625 17.707031 51.578125 17.601562 51.480469 17.417969 C 51.34375 17.15625 51.445312 16.828125 51.710938 16.691406 L 56.011719 14.4375 C 56.277344 14.300781 56.601562 14.402344 56.742188 14.664062 C 56.878906 14.929688 56.777344 15.257812 56.511719 15.394531 L 52.210938 17.648438 C 52.128906 17.6875 52.046875 17.707031 51.960938 17.707031 Z M 51.960938 17.707031 " fill-opacity="1" fill-rule="nonzero"/><path fill="#d60000" d="M 15.257812 15.773438 C 15.082031 15.773438 14.90625 15.6875 14.804688 15.523438 L 13.238281 13.085938 C 13.078125 12.835938 13.152344 12.5 13.402344 12.339844 C 13.652344 12.179688 13.988281 12.25 14.148438 12.503906 L 15.710938 14.941406 C 15.875 15.191406 15.800781 15.527344 15.550781 15.6875 C 15.460938 15.746094 15.359375 15.773438 15.257812 15.773438 Z M 15.257812 15.773438 " fill-opacity="1" fill-rule="nonzero"/><g clip-path="url(#255559987c)"><path fill="#d60000" d="M 12.832031 11.996094 C 12.652344 11.996094 12.480469 11.910156 12.375 11.746094 L 9.949219 7.96875 C 9.785156 7.71875 9.859375 7.386719 10.109375 7.226562 C 10.359375 7.0625 10.695312 7.136719 10.855469 7.386719 L 13.285156 11.164062 C 13.445312 11.414062 13.371094 11.75 13.121094 11.910156 C 13.03125 11.96875 12.929688 11.996094 12.832031 11.996094 Z M 12.832031 11.996094 " fill-opacity="1" fill-rule="nonzero"/></g><path fill="#d60000" d="M 17.957031 14.695312 C 17.660156 14.695312 17.417969 14.453125 17.417969 14.152344 L 17.417969 9.296875 C 17.417969 9 17.660156 8.757812 17.957031 8.757812 C 18.253906 8.757812 18.496094 9 18.496094 9.296875 L 18.496094 14.152344 C 18.496094 14.453125 18.253906 14.695312 17.957031 14.695312 Z M 17.957031 14.695312 " fill-opacity="1" fill-rule="nonzero"/><path fill="#d60000" d="M 13.632812 17.707031 C 13.546875 17.707031 13.460938 17.6875 13.382812 17.648438 L 9.078125 15.394531 C 8.816406 15.257812 8.714844 14.929688 8.851562 14.664062 C 8.988281 14.402344 9.316406 14.300781 9.578125 14.4375 L 13.882812 16.691406 C 14.144531 16.828125 14.25 17.15625 14.109375 17.417969 C 14.011719 17.605469 13.824219 17.707031 13.632812 17.707031 Z M 13.632812 17.707031 " fill-opacity="1" fill-rule="nonzero"/><path fill="#d60000" d="M 59.507812 33.039062 C 59.210938 33.039062 58.96875 32.800781 58.96875 32.5 C 58.96875 32.203125 59.210938 31.960938 59.507812 31.960938 C 60.699219 31.960938 61.664062 30.992188 61.664062 29.804688 C 61.664062 29.503906 61.90625 29.261719 62.207031 29.261719 C 62.503906 29.261719 62.746094 29.503906 62.746094 29.804688 C 62.746094 31.589844 61.292969 33.039062 59.507812 33.039062 Z M 59.507812 33.039062 " fill-opacity="1" fill-rule="nonzero"/><g clip-path="url(#868cacb6f8)"><path fill="#d60000" d="M 60.046875 35.738281 C 59.75 35.738281 59.507812 35.496094 59.507812 35.199219 C 59.507812 34.902344 59.75 34.660156 60.046875 34.660156 C 62.425781 34.660156 64.363281 32.722656 64.363281 30.34375 C 64.363281 30.046875 64.605469 29.804688 64.902344 29.804688 C 65.203125 29.804688 65.441406 30.046875 65.441406 30.34375 C 65.441406 33.316406 63.023438 35.738281 60.046875 35.738281 Z M 60.046875 35.738281 " fill-opacity="1" fill-rule="nonzero"/></g><path fill="#d60000" d="M 34.007812 11.527344 C 35.050781 11.527344 35.054688 9.910156 34.007812 9.910156 C 32.96875 9.910156 32.964844 11.527344 34.007812 11.527344 Z M 34.007812 11.527344 " fill-opacity="1" fill-rule="nonzero"/></svg>