<svg xmlns="http://www.w3.org/2000/svg" xmlns:xlink="http://www.w3.org/1999/xlink" width="95" zoomAndPan="magnify" viewBox="0 0 71.25 71.25" height="95" preserveAspectRatio="xMidYMid meet" version="1.0"><defs><clipPath id="34c326ac7d"><path d="M 9.351562 9.902344 L 61.304688 9.902344 L 61.304688 60.371094 L 9.351562 60.371094 Z M 9.351562 9.902344 " clip-rule="nonzero"/></clipPath></defs><path fill="#ffcc2b" d="M 20.453125 19.160156 C 19.429688 19.160156 18.601562 19.988281 18.601562 21.011719 C 18.601562 22.03125 19.429688 22.863281 20.453125 22.863281 L 50.054688 22.863281 C 51.074219 22.863281 51.902344 22.03125 51.902344 21.011719 C 51.902344 19.988281 51.074219 19.160156 50.054688 19.160156 Z M 20.453125 19.160156 " fill-opacity="1" fill-rule="nonzero"/><path fill="#ffcc2b" d="M 18.601562 28.410156 C 18.601562 27.390625 19.429688 26.5625 20.453125 26.5625 L 50.054688 26.5625 C 51.074219 26.5625 51.902344 27.390625 51.902344 28.410156 C 51.902344 29.433594 51.074219 30.261719 50.054688 30.261719 L 20.453125 30.261719 C 19.429688 30.261719 18.601562 29.433594 18.601562 28.410156 Z M 18.601562 28.410156 " fill-opacity="1" fill-rule="nonzero"/><path fill="#ffcc2b" d="M 20.453125 33.960938 C 19.429688 33.960938 18.601562 34.789062 18.601562 35.8125 C 18.601562 36.832031 19.429688 37.664062 20.453125 37.664062 L 50.054688 37.664062 C 51.074219 37.664062 51.902344 36.832031 51.902344 35.8125 C 51.902344 34.789062 51.074219 33.960938 50.054688 33.960938 Z M 20.453125 33.960938 " fill-opacity="1" fill-rule="nonzero"/><g clip-path="url(#34c326ac7d)"><path fill="#ffcc2b" d="M 16.753906 46.914062 L 16.753906 59.210938 C 16.753906 60.136719 17.867188 60.597656 18.519531 59.945312 L 31.554688 46.914062 L 57.453125 46.914062 C 59.496094 46.914062 61.152344 45.257812 61.152344 43.210938 L 61.152344 13.609375 C 61.152344 11.566406 59.496094 9.910156 57.453125 9.910156 L 13.050781 9.910156 C 11.007812 9.910156 9.351562 11.566406 9.351562 13.609375 L 9.351562 43.210938 C 9.351562 45.257812 11.007812 46.914062 13.050781 46.914062 Z M 20.453125 52.78125 L 20.453125 44.25 C 20.453125 43.675781 19.988281 43.210938 19.417969 43.210938 L 13.050781 43.210938 L 13.050781 13.609375 L 57.453125 13.609375 L 57.453125 43.210938 L 30.449219 43.210938 C 30.175781 43.210938 29.910156 43.320312 29.714844 43.515625 Z M 20.453125 52.78125 " fill-opacity="1" fill-rule="evenodd"/></g></svg>