<svg xmlns="http://www.w3.org/2000/svg" xmlns:xlink="http://www.w3.org/1999/xlink" width="95" zoomAndPan="magnify" viewBox="0 0 71.25 71.25" height="95" preserveAspectRatio="xMidYMid meet" version="1.0"><defs><clipPath id="713b2059fa"><path d="M 12 8.226562 L 59 8.226562 L 59 42 L 12 42 Z M 12 8.226562 " clip-rule="nonzero"/></clipPath><clipPath id="9c741d8f87"><path d="M 11 48 L 59.914062 48 L 59.914062 62.40625 L 11 62.40625 Z M 11 48 " clip-rule="nonzero"/></clipPath></defs><path fill="#ffcc2b" d="M 22.761719 39.175781 C 22.917969 39.5 23.035156 39.835938 23.113281 40.183594 C 23.347656 41.0625 23.753906 42.59375 25.703125 42.710938 C 27.53125 47.414062 31.203125 50.402344 35.253906 50.402344 C 39.304688 50.402344 42.976562 47.414062 44.800781 42.710938 C 46.75 42.59375 47.160156 41.0625 47.394531 40.1875 C 47.472656 39.835938 47.589844 39.496094 47.75 39.171875 C 48.757812 37.3125 48.742188 35.503906 47.710938 34.335938 C 47.367188 33.953125 46.953125 33.683594 46.460938 33.53125 C 46.519531 33.003906 46.527344 32.476562 46.484375 31.949219 C 46.40625 31.191406 46.191406 30.472656 45.839844 29.792969 L 45.839844 27.621094 C 45.839844 20.433594 24.664062 20.433594 24.664062 27.621094 L 24.664062 29.792969 C 24.3125 30.472656 24.097656 31.191406 24.019531 31.949219 C 23.980469 32.476562 23.988281 33.007812 24.046875 33.53125 C 23.554688 33.683594 23.136719 33.953125 22.792969 34.339844 C 21.761719 35.507812 21.75 37.3125 22.761719 39.175781 Z M 26.785156 37.855469 C 26.167969 35.597656 26.425781 34.179688 26.898438 33.347656 C 27.425781 32.421875 27.878906 31.21875 28.34375 30.785156 C 31.332031 31.660156 34.222656 33.140625 35.253906 33.140625 C 36.285156 33.140625 39.175781 31.660156 42.160156 30.785156 C 42.625 31.21875 43.078125 32.421875 43.609375 33.347656 C 44.082031 34.179688 44.335938 35.597656 43.71875 37.855469 C 44.625 37.402344 45.316406 36.726562 45.78125 35.824219 C 45.832031 35.847656 45.878906 35.882812 45.914062 35.925781 C 46.164062 36.207031 46.242188 36.925781 45.644531 38.023438 C 45.390625 38.511719 45.203125 39.027344 45.078125 39.566406 C 45.023438 39.816406 44.945312 40.058594 44.839844 40.289062 C 44.609375 40.347656 44.378906 40.347656 44.148438 40.285156 C 43.859375 40.242188 43.589844 40.300781 43.339844 40.453125 C 43.09375 40.605469 42.921875 40.824219 42.832031 41.101562 C 41.464844 45.296875 38.492188 48.007812 35.253906 48.007812 C 32.015625 48.007812 29.039062 45.296875 27.675781 41.101562 C 27.585938 40.824219 27.414062 40.605469 27.167969 40.453125 C 26.917969 40.300781 26.648438 40.242188 26.359375 40.285156 C 26.214844 40.308594 26.070312 40.320312 25.925781 40.324219 C 25.84375 40.328125 25.761719 40.320312 25.679688 40.300781 C 25.5625 40.066406 25.480469 39.820312 25.429688 39.566406 C 25.304688 39.03125 25.117188 38.515625 24.863281 38.027344 C 24.265625 36.925781 24.34375 36.207031 24.589844 35.925781 C 24.628906 35.882812 24.671875 35.847656 24.722656 35.824219 C 25.191406 36.726562 25.878906 37.402344 26.785156 37.855469 Z M 26.785156 37.855469 " fill-opacity="1" fill-rule="nonzero"/><g clip-path="url(#713b2059fa)"><path fill="#ffcc2b" d="M 58.125 18.976562 C 58.496094 18.59375 58.382812 17.730469 57.945312 17.582031 C 54.523438 16.449219 44.011719 15.765625 35.953125 8.632812 C 35.757812 8.441406 35.527344 8.347656 35.253906 8.347656 C 34.980469 8.347656 34.746094 8.441406 34.550781 8.632812 C 26.496094 15.765625 15.984375 16.449219 12.558594 17.582031 C 12.125 17.730469 12.011719 18.59375 12.378906 18.976562 C 15.460938 22.226562 18.910156 25.015625 22.730469 27.347656 C 22.730469 16.6875 47.773438 16.679688 47.777344 27.339844 C 50.421875 25.746094 52.886719 23.910156 55.175781 21.835938 L 55.175781 29.039062 C 54.867188 29.183594 54.625 29.402344 54.441406 29.6875 C 54.261719 29.96875 54.164062 30.28125 54.160156 30.621094 C 54.15625 30.957031 54.238281 31.273438 54.414062 31.5625 C 54.585938 31.855469 54.820312 32.078125 55.121094 32.234375 L 53.449219 41.023438 C 53.449219 42.183594 58.472656 42.183594 58.472656 41.023438 L 56.796875 32.234375 C 57.097656 32.078125 57.335938 31.855469 57.507812 31.5625 C 57.683594 31.273438 57.765625 30.957031 57.761719 30.621094 C 57.753906 30.28125 57.660156 29.96875 57.476562 29.6875 C 57.296875 29.402344 57.050781 29.183594 56.746094 29.039062 L 56.746094 20.367188 C 57.292969 19.832031 57.761719 19.359375 58.125 18.976562 Z M 58.125 18.976562 " fill-opacity="1" fill-rule="nonzero"/></g><g clip-path="url(#9c741d8f87)"><path fill="#ffcc2b" d="M 11.953125 62.277344 L 58.554688 62.277344 C 58.691406 62.277344 58.820312 62.25 58.941406 62.1875 C 59.0625 62.128906 59.167969 62.046875 59.25 61.9375 C 59.332031 61.828125 59.386719 61.707031 59.414062 61.574219 C 59.441406 61.441406 59.4375 61.308594 59.402344 61.175781 C 58.84375 59.074219 57.460938 55.609375 54.875 53.703125 C 51.902344 51.515625 46.410156 49.550781 42.828125 48.25 L 35.253906 60.296875 L 27.675781 48.25 C 24.097656 49.550781 18.605469 51.515625 15.632812 53.703125 C 13.046875 55.609375 11.660156 59.074219 11.101562 61.175781 C 11.066406 61.308594 11.0625 61.441406 11.089844 61.574219 C 11.117188 61.707031 11.171875 61.828125 11.253906 61.9375 C 11.339844 62.046875 11.441406 62.128906 11.5625 62.1875 C 11.6875 62.25 11.816406 62.277344 11.953125 62.277344 Z M 11.953125 62.277344 " fill-opacity="1" fill-rule="nonzero"/></g></svg>