<svg xmlns="http://www.w3.org/2000/svg" xmlns:xlink="http://www.w3.org/1999/xlink" width="95" zoomAndPan="magnify" viewBox="0 0 71.25 71.25" height="95" preserveAspectRatio="xMidYMid meet" version="1.0"><defs><clipPath id="f1032f6e4a"><path d="M 17 14 L 54 14 L 54 18 L 17 18 Z M 17 14 " clip-rule="nonzero"/></clipPath><clipPath id="eca5ff693d"><path d="M 35.246094 -2.894531 L 54.234375 16.09375 L 35.246094 35.082031 L 16.257812 16.09375 Z M 35.246094 -2.894531 " clip-rule="nonzero"/></clipPath><clipPath id="a4dd136805"><path d="M 35.246094 -2.894531 L 54.234375 16.09375 L 35.246094 35.082031 L 16.257812 16.09375 Z M 35.246094 -2.894531 " clip-rule="nonzero"/></clipPath><clipPath id="44b0ee03b2"><path d="M 7.8125 21.664062 L 62.804688 21.664062 L 62.804688 58.417969 L 7.8125 58.417969 Z M 7.8125 21.664062 " clip-rule="nonzero"/></clipPath><clipPath id="86f2def94c"><path d="M 10.78125 21.664062 L 59.726562 21.664062 C 60.515625 21.664062 61.269531 21.976562 61.824219 22.53125 C 62.382812 23.089844 62.695312 23.84375 62.695312 24.632812 L 62.695312 55.449219 C 62.695312 56.238281 62.382812 56.992188 61.824219 57.550781 C 61.269531 58.105469 60.515625 58.417969 59.726562 58.417969 L 10.78125 58.417969 C 9.992188 58.417969 9.238281 58.105469 8.683594 57.550781 C 8.125 56.992188 7.8125 56.238281 7.8125 55.449219 L 7.8125 24.632812 C 7.8125 23.84375 8.125 23.089844 8.683594 22.53125 C 9.238281 21.976562 9.992188 21.664062 10.78125 21.664062 Z M 10.78125 21.664062 " clip-rule="nonzero"/></clipPath><clipPath id="8185c1443a"><path d="M 27.351562 30.4375 L 44.148438 30.4375 L 44.148438 49.660156 L 27.351562 49.660156 Z M 27.351562 30.4375 " clip-rule="nonzero"/></clipPath><clipPath id="e5717e7094"><path d="M 44.148438 40.035156 L 27.351562 49.632812 L 27.351562 30.4375 Z M 44.148438 40.035156 " clip-rule="nonzero"/></clipPath><clipPath id="2187bfd81e"><path d="M 21 9 L 49 9 L 49 12 L 21 12 Z M 21 9 " clip-rule="nonzero"/></clipPath><clipPath id="b762bb0911"><path d="M 35.242188 -2.894531 L 49.484375 11.347656 L 35.242188 25.589844 L 21 11.347656 Z M 35.242188 -2.894531 " clip-rule="nonzero"/></clipPath><clipPath id="e5be292414"><path d="M 35.242188 -2.894531 L 49.484375 11.347656 L 35.242188 25.589844 L 21 11.347656 Z M 35.242188 -2.894531 " clip-rule="nonzero"/></clipPath></defs><g clip-path="url(#f1032f6e4a)"><g clip-path="url(#eca5ff693d)"><g clip-path="url(#a4dd136805)"><path fill="#ffcc2b" d="M 52.953125 14.839844 C 52.679688 14.582031 52.355469 14.457031 51.976562 14.460938 L 18.5625 14.460938 C 18.375 14.460938 18.195312 14.492188 18.019531 14.558594 C 17.847656 14.628906 17.695312 14.730469 17.558594 14.859375 C 17.425781 14.992188 17.324219 15.140625 17.25 15.3125 C 17.179688 15.484375 17.144531 15.664062 17.144531 15.851562 C 17.144531 16.039062 17.179688 16.21875 17.25 16.390625 C 17.324219 16.5625 17.425781 16.714844 17.558594 16.84375 C 17.695312 16.976562 17.847656 17.074219 18.019531 17.144531 C 18.195312 17.214844 18.375 17.246094 18.5625 17.242188 L 51.976562 17.242188 C 52.265625 17.246094 52.527344 17.167969 52.765625 17.011719 C 53.003906 16.851562 53.179688 16.640625 53.285156 16.375 C 53.394531 16.109375 53.417969 15.835938 53.355469 15.554688 C 53.296875 15.277344 53.160156 15.039062 52.953125 14.839844 Z M 52.953125 14.839844 " fill-opacity="1" fill-rule="nonzero"/></g></g></g><g clip-path="url(#44b0ee03b2)"><g clip-path="url(#86f2def94c)"><path fill="#ffcc2b" d="M 7.8125 21.664062 L 62.660156 21.664062 L 62.660156 58.417969 L 7.8125 58.417969 Z M 7.8125 21.664062 " fill-opacity="1" fill-rule="nonzero"/></g></g><g clip-path="url(#8185c1443a)"><g clip-path="url(#e5717e7094)"><path fill="#ffffff" d="M 44.148438 30.4375 L 44.148438 49.660156 L 27.351562 49.660156 L 27.351562 30.4375 Z M 44.148438 30.4375 " fill-opacity="1" fill-rule="nonzero"/></g></g><g clip-path="url(#2187bfd81e)"><g clip-path="url(#b762bb0911)"><g clip-path="url(#e5be292414)"><path fill="#ffcc2b" d="M 48.273438 10.160156 C 48.074219 9.96875 47.832031 9.875 47.558594 9.878906 L 22.964844 9.878906 C 22.828125 9.878906 22.695312 9.902344 22.566406 9.953125 C 22.4375 10.003906 22.324219 10.078125 22.226562 10.171875 C 22.128906 10.269531 22.054688 10.378906 22 10.507812 C 21.945312 10.632812 21.917969 10.765625 21.917969 10.902344 C 21.917969 11.039062 21.945312 11.171875 22 11.300781 C 22.054688 11.425781 22.128906 11.539062 22.226562 11.632812 C 22.324219 11.730469 22.4375 11.804688 22.566406 11.855469 C 22.695312 11.90625 22.828125 11.929688 22.964844 11.925781 L 47.558594 11.925781 C 47.769531 11.929688 47.960938 11.871094 48.136719 11.757812 C 48.3125 11.640625 48.441406 11.484375 48.519531 11.289062 C 48.597656 11.09375 48.617188 10.890625 48.570312 10.683594 C 48.527344 10.480469 48.425781 10.304688 48.273438 10.160156 Z M 48.273438 10.160156 " fill-opacity="1" fill-rule="nonzero"/></g></g></g></svg>