<svg xmlns="http://www.w3.org/2000/svg" xmlns:xlink="http://www.w3.org/1999/xlink" width="95" zoomAndPan="magnify" viewBox="0 0 71.25 71.25" height="95" preserveAspectRatio="xMidYMid meet" version="1.0"><defs><filter x="0%" y="0%" width="100%" height="100%" id="ea5f9a513a"><feColorMatrix values="0 0 0 0 1 0 0 0 0 1 0 0 0 0 1 0 0 0 1 0" color-interpolation-filters="sRGB"/></filter><clipPath id="7e4812120f"><path d="M 0 0 L 70.507812 0 L 70.507812 70.507812 L 0 70.507812 Z M 0 0 " clip-rule="nonzero"/></clipPath><mask id="f548d4d664"><g filter="url(#ea5f9a513a)"><rect x="-7.125" width="85.5" fill="#000000" y="-7.125" height="85.5" fill-opacity="0.5"/></g></mask><clipPath id="28160f65a7"><path d="M 0 0 L 70.507812 0 L 70.507812 70.507812 L 0 70.507812 Z M 0 0 " clip-rule="nonzero"/></clipPath><clipPath id="7f7867d8a1"><path d="M 7.421875 0 L 63.085938 0 C 65.054688 0 66.941406 0.78125 68.335938 2.171875 C 69.726562 3.566406 70.507812 5.453125 70.507812 7.421875 L 70.507812 63.085938 C 70.507812 65.054688 69.726562 66.941406 68.335938 68.335938 C 66.941406 69.726562 65.054688 70.507812 63.085938 70.507812 L 7.421875 70.507812 C 5.453125 70.507812 3.566406 69.726562 2.171875 68.335938 C 0.78125 66.941406 0 65.054688 0 63.085938 L 0 7.421875 C 0 5.453125 0.78125 3.566406 2.171875 2.171875 C 3.566406 0.78125 5.453125 0 7.421875 0 Z M 7.421875 0 " clip-rule="nonzero"/></clipPath><clipPath id="5c515d4f17"><rect x="0" width="71" y="0" height="71"/></clipPath><mask id="cccf0d440f"><g filter="url(#ea5f9a513a)"><rect x="-7.125" width="85.5" fill="#000000" y="-7.125" height="85.5" fill-opacity="0.67"/></g></mask><clipPath id="ae2985cacb"><path d="M 13 0.226562 L 26 0.226562 L 26 13 L 13 13 Z M 13 0.226562 " clip-rule="nonzero"/></clipPath><clipPath id="e8d82cd4ee"><path d="M 9 13 L 29 13 L 29 23.710938 L 9 23.710938 Z M 9 13 " clip-rule="nonzero"/></clipPath><clipPath id="07d3577489"><path d="M 27 14 L 37.265625 14 L 37.265625 23 L 27 23 Z M 27 14 " clip-rule="nonzero"/></clipPath><clipPath id="650c31b812"><path d="M 0.898438 14 L 12 14 L 12 23 L 0.898438 23 Z M 0.898438 14 " clip-rule="nonzero"/></clipPath><clipPath id="b5662568df"><rect x="0" width="38" y="0" height="24"/></clipPath></defs><g clip-path="url(#7e4812120f)"><path fill="#ffffff" d="M 0 0 L 70.507812 0 L 70.507812 70.507812 L 0 70.507812 Z M 0 0 " fill-opacity="1" fill-rule="nonzero"/><path fill="#ffffff" d="M 0 0 L 70.507812 0 L 70.507812 70.507812 L 0 70.507812 Z M 0 0 " fill-opacity="1" fill-rule="nonzero"/><g mask="url(#f548d4d664)"><g transform="matrix(1, 0, 0, 1, 0, -0.000000000000008569)"><g clip-path="url(#5c515d4f17)"><g clip-path="url(#28160f65a7)"><g clip-path="url(#7f7867d8a1)"><path fill="#d60000" d="M 0 0 L 70.507812 0 L 70.507812 70.507812 L 0 70.507812 Z M 0 0 " fill-opacity="1" fill-rule="nonzero"/></g></g></g></g></g></g><g mask="url(#cccf0d440f)"><g transform="matrix(1, 0, 0, 1, 16, 24)"><g clip-path="url(#b5662568df)"><g clip-path="url(#ae2985cacb)"><path fill="#d60000" d="M 17.695312 12.113281 C 21.304688 13.1875 25.222656 10.324219 25.167969 6.453125 C 24.84375 -1.339844 13.726562 -1.339844 13.402344 6.453125 C 13.402344 9.140625 15.222656 11.417969 17.695312 12.113281 Z M 17.695312 12.113281 " fill-opacity="1" fill-rule="nonzero"/></g><g clip-path="url(#e8d82cd4ee)"><path fill="#d60000" d="M 28.765625 21.535156 C 27.992188 17.007812 24.035156 13.550781 19.285156 13.550781 C 13.921875 13.511719 9.429688 18.132812 9.699219 23.378906 C 9.785156 23.640625 10.035156 23.816406 10.316406 23.816406 L 28.253906 23.816406 C 29.332031 23.726562 28.800781 22.21875 28.765625 21.535156 Z M 28.765625 21.535156 " fill-opacity="1" fill-rule="nonzero"/></g><path fill="#d60000" d="M 30.703125 14.0625 C 33.070312 14.0625 35 12.132812 35 9.765625 C 34.785156 4.078125 26.617188 4.078125 26.402344 9.765625 C 26.402344 12.132812 28.332031 14.0625 30.703125 14.0625 Z M 30.703125 14.0625 " fill-opacity="1" fill-rule="nonzero"/><g clip-path="url(#07d3577489)"><path fill="#d60000" d="M 30.703125 14.519531 C 29.484375 14.519531 28.28125 14.839844 27.234375 15.449219 C 27.542969 15.769531 27.824219 16.117188 28.085938 16.476562 C 29.265625 18.070312 30 20.046875 30.144531 22.070312 C 30.144531 22.070312 36.949219 22.070312 36.949219 22.070312 C 37.308594 22.070312 37.605469 21.777344 37.605469 21.414062 C 37.605469 17.613281 34.507812 14.519531 30.703125 14.519531 Z M 30.703125 14.519531 " fill-opacity="1" fill-rule="nonzero"/></g><path fill="#d60000" d="M 7.867188 14.0625 C 10.238281 14.0625 12.167969 12.132812 12.167969 9.765625 C 11.949219 4.078125 3.785156 4.078125 3.570312 9.765625 C 3.570312 12.132812 5.5 14.0625 7.867188 14.0625 Z M 7.867188 14.0625 " fill-opacity="1" fill-rule="nonzero"/><g clip-path="url(#650c31b812)"><path fill="#d60000" d="M 11.335938 15.449219 C 6.875 12.757812 0.871094 16.199219 0.964844 21.417969 C 0.964844 21.777344 1.261719 22.070312 1.621094 22.070312 L 8.425781 22.070312 C 8.601562 19.585938 9.652344 17.230469 11.335938 15.449219 Z M 11.335938 15.449219 " fill-opacity="1" fill-rule="nonzero"/></g></g></g></g></svg>