<svg xmlns="http://www.w3.org/2000/svg" xmlns:xlink="http://www.w3.org/1999/xlink" width="95" zoomAndPan="magnify" viewBox="0 0 71.25 71.25" height="95" preserveAspectRatio="xMidYMid meet" version="1.0"><defs><clipPath id="0b580415b6"><path d="M 6 13.679688 L 64.632812 13.679688 L 64.632812 56.726562 L 6 56.726562 Z M 6 13.679688 " clip-rule="nonzero"/></clipPath></defs><g clip-path="url(#0b580415b6)"><path fill="#e24c4c" d="M 15.769531 13.679688 C 10.410156 13.679688 6.03125 18.0625 6.03125 23.421875 L 6.03125 47.078125 C 6.03125 52.4375 10.410156 56.820312 15.769531 56.820312 L 54.734375 56.820312 C 60.097656 56.820312 64.476562 52.4375 64.476562 47.078125 L 64.476562 23.421875 C 64.476562 18.0625 60.097656 13.679688 54.734375 13.679688 Z M 15.769531 17.855469 L 54.734375 17.855469 C 57.855469 17.855469 60.300781 20.300781 60.300781 23.421875 L 60.300781 47.078125 C 60.300781 50.199219 57.855469 52.644531 54.734375 52.644531 L 15.769531 52.644531 C 12.652344 52.644531 10.203125 50.199219 10.203125 47.078125 L 10.203125 23.421875 C 10.203125 20.300781 12.652344 17.855469 15.769531 17.855469 Z M 30.449219 24.117188 C 30.167969 24.109375 29.894531 24.15625 29.628906 24.257812 C 29.367188 24.359375 29.132812 24.507812 28.929688 24.707031 C 28.726562 24.902344 28.570312 25.128906 28.460938 25.390625 C 28.351562 25.652344 28.296875 25.921875 28.296875 26.203125 L 28.296875 44.296875 C 28.292969 44.554688 28.339844 44.804688 28.429688 45.046875 C 28.523438 45.289062 28.65625 45.507812 28.828125 45.699219 C 29 45.890625 29.203125 46.046875 29.433594 46.164062 C 29.664062 46.285156 29.910156 46.355469 30.164062 46.382812 C 30.597656 46.429688 31.003906 46.351562 31.382812 46.144531 L 48.082031 37.097656 C 48.421875 36.917969 48.6875 36.660156 48.882812 36.332031 C 49.082031 36 49.179688 35.644531 49.179688 35.261719 C 49.179688 34.878906 49.082031 34.519531 48.882812 34.191406 C 48.6875 33.863281 48.421875 33.605469 48.082031 33.421875 L 31.382812 24.378906 C 31.09375 24.214844 30.78125 24.128906 30.449219 24.117188 Z M 32.46875 29.726562 L 42.691406 35.25 L 32.46875 40.792969 Z M 32.46875 29.726562 " fill-opacity="1" fill-rule="nonzero"/></g></svg>