<svg xmlns="http://www.w3.org/2000/svg" xmlns:xlink="http://www.w3.org/1999/xlink" width="95" zoomAndPan="magnify" viewBox="0 0 71.25 71.25" height="95" preserveAspectRatio="xMidYMid meet" version="1.0"><defs><clipPath id="eac77553d3"><path d="M 0 0 L 70.507812 0 L 70.507812 70.507812 L 0 70.507812 Z M 0 0 " clip-rule="nonzero"/></clipPath><clipPath id="599a669f37"><path d="M 27 24 L 44 24 L 44 26 L 27 26 Z M 27 24 " clip-rule="nonzero"/></clipPath><clipPath id="960154252e"><path d="M 35.027344 16.339844 L 43.425781 24.738281 L 35.027344 33.136719 L 26.628906 24.738281 Z M 35.027344 16.339844 " clip-rule="nonzero"/></clipPath><clipPath id="e75a92f267"><path d="M 35.027344 16.339844 L 43.425781 24.738281 L 35.027344 33.136719 L 26.628906 24.738281 Z M 35.027344 16.339844 " clip-rule="nonzero"/></clipPath><clipPath id="f16dc27af7"><path d="M 22.894531 27.203125 L 47.214844 27.203125 L 47.214844 43.457031 L 22.894531 43.457031 Z M 22.894531 27.203125 " clip-rule="nonzero"/></clipPath><clipPath id="5ca14b9d09"><path d="M 25.863281 27.203125 L 44.195312 27.203125 C 44.984375 27.203125 45.738281 27.515625 46.296875 28.070312 C 46.851562 28.628906 47.164062 29.382812 47.164062 30.171875 L 47.164062 40.488281 C 47.164062 41.273438 46.851562 42.027344 46.296875 42.585938 C 45.738281 43.140625 44.984375 43.457031 44.195312 43.457031 L 25.863281 43.457031 C 25.078125 43.457031 24.324219 43.140625 23.765625 42.585938 C 23.210938 42.027344 22.894531 41.273438 22.894531 40.488281 L 22.894531 30.171875 C 22.894531 29.382812 23.210938 28.628906 23.765625 28.070312 C 24.324219 27.515625 25.078125 27.203125 25.863281 27.203125 Z M 25.863281 27.203125 " clip-rule="nonzero"/></clipPath><clipPath id="21e0506ed9"><path d="M 31.535156 31.082031 L 38.964844 31.082031 L 38.964844 39.582031 L 31.535156 39.582031 Z M 31.535156 31.082031 " clip-rule="nonzero"/></clipPath><clipPath id="dc94e6160a"><path d="M 38.964844 35.324219 L 31.535156 39.570312 L 31.535156 31.082031 Z M 38.964844 35.324219 " clip-rule="nonzero"/></clipPath><clipPath id="9641e8b4e4"><path d="M 29 21 L 41 21 L 41 23 L 29 23 Z M 29 21 " clip-rule="nonzero"/></clipPath><clipPath id="e766270b7f"><path d="M 35.027344 16.34375 L 41.324219 22.640625 L 35.027344 28.9375 L 28.726562 22.640625 Z M 35.027344 16.34375 " clip-rule="nonzero"/></clipPath><clipPath id="1a0d07ed14"><path d="M 35.027344 16.34375 L 41.324219 22.640625 L 35.027344 28.9375 L 28.726562 22.640625 Z M 35.027344 16.34375 " clip-rule="nonzero"/></clipPath></defs><g clip-path="url(#eac77553d3)"><path fill="#ffffff" d="M 0 0 L 70.507812 0 L 70.507812 70.507812 L 0 70.507812 Z M 0 0 " fill-opacity="1" fill-rule="nonzero"/><path fill="#ffffff" d="M 0 0 L 70.507812 0 L 70.507812 70.507812 L 0 70.507812 Z M 0 0 " fill-opacity="1" fill-rule="nonzero"/></g><g clip-path="url(#599a669f37)"><g clip-path="url(#960154252e)"><g clip-path="url(#e75a92f267)"><path fill="#e24c4c" d="M 42.855469 24.183594 C 42.738281 24.070312 42.59375 24.015625 42.425781 24.015625 L 27.648438 24.015625 C 27.476562 24.015625 27.328125 24.074219 27.207031 24.191406 C 27.082031 24.3125 27.023438 24.460938 27.023438 24.632812 C 27.023438 24.804688 27.082031 24.949219 27.207031 25.070312 C 27.328125 25.191406 27.476562 25.25 27.648438 25.246094 L 42.425781 25.246094 C 42.707031 25.25 42.898438 25.121094 43.003906 24.863281 C 43.109375 24.601562 43.0625 24.375 42.855469 24.183594 Z M 42.855469 24.183594 " fill-opacity="1" fill-rule="nonzero"/></g></g></g><g clip-path="url(#f16dc27af7)"><g clip-path="url(#5ca14b9d09)"><path fill="#e24c4c" d="M 22.894531 27.203125 L 47.148438 27.203125 L 47.148438 43.457031 L 22.894531 43.457031 Z M 22.894531 27.203125 " fill-opacity="1" fill-rule="nonzero"/></g></g><g clip-path="url(#21e0506ed9)"><g clip-path="url(#dc94e6160a)"><path fill="#ffffff" d="M 38.964844 31.082031 L 38.964844 39.582031 L 31.535156 39.582031 L 31.535156 31.082031 Z M 38.964844 31.082031 " fill-opacity="1" fill-rule="nonzero"/></g></g><g clip-path="url(#9641e8b4e4)"><g clip-path="url(#e766270b7f)"><g clip-path="url(#1a0d07ed14)"><path fill="#e24c4c" d="M 40.789062 22.113281 C 40.699219 22.03125 40.59375 21.988281 40.472656 21.992188 L 29.597656 21.992188 C 29.46875 21.988281 29.359375 22.03125 29.269531 22.121094 C 29.179688 22.210938 29.136719 22.316406 29.136719 22.445312 C 29.136719 22.570312 29.179688 22.679688 29.269531 22.765625 C 29.359375 22.855469 29.46875 22.898438 29.597656 22.894531 L 40.472656 22.894531 C 40.679688 22.898438 40.820312 22.804688 40.898438 22.613281 C 40.976562 22.421875 40.9375 22.253906 40.789062 22.113281 Z M 40.789062 22.113281 " fill-opacity="1" fill-rule="nonzero"/></g></g></g></svg>