<svg xmlns="http://www.w3.org/2000/svg" xmlns:xlink="http://www.w3.org/1999/xlink" width="95" zoomAndPan="magnify" viewBox="0 0 71.25 71.25" height="95" preserveAspectRatio="xMidYMid meet" version="1.0"><defs><clipPath id="fa488f446a"><path d="M 7.050781 7.050781 L 63.457031 7.050781 L 63.457031 63.457031 L 7.050781 63.457031 Z M 7.050781 7.050781 " clip-rule="nonzero"/></clipPath></defs><g clip-path="url(#fa488f446a)"><path fill="#e24c4c" d="M 35.253906 7.050781 C 28.988281 7.050781 23.035156 9.082031 18.144531 12.832031 L 18.144531 12.027344 C 18.144531 11.113281 17.398438 10.367188 16.484375 10.367188 C 15.566406 10.367188 14.824219 11.113281 14.824219 12.027344 C 14.824219 12.039062 14.824219 16.5 14.824219 16.488281 C 14.828125 17.957031 16.613281 18.703125 17.65625 17.660156 C 22.359375 12.957031 28.605469 10.367188 35.253906 10.367188 C 48.976562 10.367188 60.140625 21.53125 60.140625 35.253906 C 60.140625 48.976562 48.976562 60.140625 35.253906 60.140625 C 21.53125 60.140625 10.367188 48.976562 10.367188 35.253906 C 10.367188 31.433594 11.210938 27.773438 12.871094 24.367188 C 13.269531 23.542969 12.929688 22.550781 12.105469 22.148438 C 11.28125 21.746094 10.289062 22.089844 9.886719 22.914062 C 8.003906 26.777344 7.050781 30.925781 7.050781 35.253906 C 7.050781 50.839844 19.664062 63.457031 35.253906 63.457031 C 50.839844 63.457031 63.457031 50.84375 63.457031 35.253906 C 63.457031 19.667969 50.84375 7.050781 35.253906 7.050781 Z M 35.253906 7.050781 " fill-opacity="1" fill-rule="nonzero"/></g><path fill="#e24c4c" d="M 35.253906 55.160156 C 46.230469 55.160156 55.160156 46.230469 55.160156 35.253906 C 55.160156 24.277344 46.230469 15.347656 35.253906 15.347656 C 24.277344 15.347656 15.347656 24.277344 15.347656 35.253906 C 15.347656 46.230469 24.277344 55.160156 35.253906 55.160156 Z M 25.921875 40.59375 L 33.59375 34.457031 L 33.59375 25.300781 C 33.59375 24.382812 34.335938 23.640625 35.253906 23.640625 C 36.171875 23.640625 36.914062 24.382812 36.914062 25.300781 L 36.914062 35.253906 C 36.914062 35.757812 36.683594 36.234375 36.289062 36.550781 L 27.996094 43.183594 C 27.28125 43.757812 26.238281 43.644531 25.664062 42.925781 C 25.089844 42.210938 25.207031 41.167969 25.921875 40.59375 Z M 25.921875 40.59375 " fill-opacity="1" fill-rule="nonzero"/></svg>