<svg xmlns="http://www.w3.org/2000/svg" xmlns:xlink="http://www.w3.org/1999/xlink" width="95" zoomAndPan="magnify" viewBox="0 0 71.25 71.25" height="95" preserveAspectRatio="xMidYMid meet" version="1.0"><defs><clipPath id="ce3fdf3383"><path d="M 0 0 L 70.507812 0 L 70.507812 70.507812 L 0 70.507812 Z M 0 0 " clip-rule="nonzero"/></clipPath><clipPath id="18ba1b187b"><path d="M 24.007812 23.9375 L 46.496094 23.9375 L 46.496094 46.597656 L 24.007812 46.597656 Z M 24.007812 23.9375 " clip-rule="nonzero"/></clipPath><clipPath id="1222483181"><path d="M 26.976562 23.9375 L 43.527344 23.9375 C 44.316406 23.9375 45.070312 24.25 45.628906 24.804688 C 46.183594 25.363281 46.496094 26.117188 46.496094 26.90625 L 46.496094 43.605469 C 46.496094 44.390625 46.183594 45.144531 45.628906 45.703125 C 45.070312 46.257812 44.316406 46.574219 43.527344 46.574219 L 26.976562 46.574219 C 26.191406 46.574219 25.4375 46.257812 24.878906 45.703125 C 24.324219 45.144531 24.007812 44.390625 24.007812 43.605469 L 24.007812 26.90625 C 24.007812 26.117188 24.324219 25.363281 24.878906 24.804688 C 25.4375 24.25 26.191406 23.9375 26.976562 23.9375 Z M 26.976562 23.9375 " clip-rule="nonzero"/></clipPath><clipPath id="3f1b80c2dc"><path d="M 28.285156 28.90625 L 42.386719 28.90625 L 42.386719 41.523438 L 28.285156 41.523438 Z M 28.285156 28.90625 " clip-rule="nonzero"/></clipPath></defs><g clip-path="url(#ce3fdf3383)"><path fill="#ffffff" d="M 0 0 L 70.507812 0 L 70.507812 70.507812 L 0 70.507812 Z M 0 0 " fill-opacity="1" fill-rule="nonzero"/><path fill="#ffffff" d="M 0 0 L 70.507812 0 L 70.507812 70.507812 L 0 70.507812 Z M 0 0 " fill-opacity="1" fill-rule="nonzero"/></g><g clip-path="url(#18ba1b187b)"><g clip-path="url(#1222483181)"><path fill="#e24c4c" d="M 24.007812 23.9375 L 46.496094 23.9375 L 46.496094 46.597656 L 24.007812 46.597656 Z M 24.007812 23.9375 " fill-opacity="1" fill-rule="nonzero"/></g></g><g clip-path="url(#3f1b80c2dc)"><path fill="#ffffff" d="M 39.28125 34.25 L 42.210938 41.578125 L 40.777344 41.578125 L 39.976562 39.582031 L 37.25 39.582031 L 36.449219 41.578125 L 35.015625 41.578125 L 37.945312 34.25 Z M 33.617188 28.917969 L 33.617188 30.25 L 37.613281 30.25 L 37.613281 31.582031 L 36.300781 31.582031 C 35.78125 33.148438 34.980469 34.546875 33.890625 35.78125 C 34.371094 36.210938 34.890625 36.589844 35.445312 36.921875 L 34.945312 38.171875 C 34.226562 37.765625 33.5625 37.285156 32.949219 36.730469 C 31.746094 37.820312 30.367188 38.609375 28.816406 39.097656 L 28.460938 37.808594 C 29.789062 37.386719 30.96875 36.710938 32.007812 35.78125 C 31.246094 34.917969 30.617188 33.960938 30.128906 32.917969 L 31.621094 32.917969 C 31.992188 33.605469 32.4375 34.242188 32.949219 34.832031 C 33.789062 33.867188 34.433594 32.78125 34.886719 31.585938 L 28.285156 31.582031 L 28.285156 30.25 L 32.28125 30.25 L 32.28125 28.917969 Z M 38.613281 36.171875 L 37.78125 38.246094 L 39.441406 38.246094 Z M 38.613281 36.171875 " fill-opacity="1" fill-rule="nonzero"/></g></svg>