<svg xmlns="http://www.w3.org/2000/svg" xmlns:xlink="http://www.w3.org/1999/xlink" width="95" zoomAndPan="magnify" viewBox="0 0 71.25 71.25" height="95" preserveAspectRatio="xMidYMid meet" version="1.0"><defs><clipPath id="46a7f09f47"><path d="M 17 19 L 54 19 L 54 23 L 17 23 Z M 17 19 " clip-rule="nonzero"/></clipPath><clipPath id="4a0051c6e3"><path d="M 35.246094 2.144531 L 54.234375 21.132812 L 35.246094 40.121094 L 16.257812 21.132812 Z M 35.246094 2.144531 " clip-rule="nonzero"/></clipPath><clipPath id="2a9365c53d"><path d="M 35.246094 2.144531 L 54.234375 21.132812 L 35.246094 40.121094 L 16.257812 21.132812 Z M 35.246094 2.144531 " clip-rule="nonzero"/></clipPath><clipPath id="7366aeb245"><path d="M 7.8125 26.699219 L 62.804688 26.699219 L 62.804688 63.457031 L 7.8125 63.457031 Z M 7.8125 26.699219 " clip-rule="nonzero"/></clipPath><clipPath id="086e8b7613"><path d="M 10.78125 26.699219 L 59.726562 26.699219 C 60.515625 26.699219 61.269531 27.011719 61.824219 27.570312 C 62.382812 28.128906 62.695312 28.882812 62.695312 29.667969 L 62.695312 60.488281 C 62.695312 61.277344 62.382812 62.03125 61.824219 62.585938 C 61.269531 63.144531 60.515625 63.457031 59.726562 63.457031 L 10.78125 63.457031 C 9.992188 63.457031 9.238281 63.144531 8.683594 62.585938 C 8.125 62.03125 7.8125 61.277344 7.8125 60.488281 L 7.8125 29.667969 C 7.8125 28.882812 8.125 28.128906 8.683594 27.570312 C 9.238281 27.011719 9.992188 26.699219 10.78125 26.699219 Z M 10.78125 26.699219 " clip-rule="nonzero"/></clipPath><clipPath id="54f9f63b25"><path d="M 27.351562 35.472656 L 44.148438 35.472656 L 44.148438 54.699219 L 27.351562 54.699219 Z M 27.351562 35.472656 " clip-rule="nonzero"/></clipPath><clipPath id="aebc3481a3"><path d="M 44.148438 45.074219 L 27.351562 54.671875 L 27.351562 35.472656 Z M 44.148438 45.074219 " clip-rule="nonzero"/></clipPath><clipPath id="4156af8871"><path d="M 21 14 L 49 14 L 49 17 L 21 17 Z M 21 14 " clip-rule="nonzero"/></clipPath><clipPath id="c3cc97cbae"><path d="M 35.242188 2.144531 L 49.484375 16.386719 L 35.242188 30.625 L 21 16.386719 Z M 35.242188 2.144531 " clip-rule="nonzero"/></clipPath><clipPath id="e3f7ade44a"><path d="M 35.242188 2.144531 L 49.484375 16.386719 L 35.242188 30.625 L 21 16.386719 Z M 35.242188 2.144531 " clip-rule="nonzero"/></clipPath></defs><g clip-path="url(#46a7f09f47)"><g clip-path="url(#4a0051c6e3)"><g clip-path="url(#2a9365c53d)"><path fill="#e24c4c" d="M 52.953125 19.878906 C 52.679688 19.621094 52.355469 19.496094 51.976562 19.5 L 18.5625 19.5 C 18.375 19.496094 18.195312 19.53125 18.019531 19.597656 C 17.847656 19.667969 17.695312 19.765625 17.558594 19.898438 C 17.425781 20.027344 17.324219 20.179688 17.25 20.351562 C 17.179688 20.523438 17.144531 20.703125 17.144531 20.890625 C 17.144531 21.078125 17.179688 21.257812 17.25 21.429688 C 17.324219 21.601562 17.425781 21.753906 17.558594 21.882812 C 17.695312 22.015625 17.847656 22.113281 18.019531 22.183594 C 18.195312 22.25 18.375 22.285156 18.5625 22.28125 L 51.976562 22.28125 C 52.265625 22.285156 52.527344 22.207031 52.765625 22.050781 C 53.003906 21.890625 53.179688 21.679688 53.285156 21.414062 C 53.394531 21.148438 53.417969 20.875 53.355469 20.59375 C 53.296875 20.3125 53.160156 20.074219 52.953125 19.878906 Z M 52.953125 19.878906 " fill-opacity="1" fill-rule="nonzero"/></g></g></g><g clip-path="url(#7366aeb245)"><g clip-path="url(#086e8b7613)"><path fill="#e24c4c" d="M 7.8125 26.699219 L 62.660156 26.699219 L 62.660156 63.457031 L 7.8125 63.457031 Z M 7.8125 26.699219 " fill-opacity="1" fill-rule="nonzero"/></g></g><g clip-path="url(#54f9f63b25)"><g clip-path="url(#aebc3481a3)"><path fill="#ffffff" d="M 44.148438 35.472656 L 44.148438 54.699219 L 27.351562 54.699219 L 27.351562 35.472656 Z M 44.148438 35.472656 " fill-opacity="1" fill-rule="nonzero"/></g></g><g clip-path="url(#4156af8871)"><g clip-path="url(#c3cc97cbae)"><g clip-path="url(#e3f7ade44a)"><path fill="#e24c4c" d="M 48.273438 15.195312 C 48.074219 15.007812 47.832031 14.914062 47.558594 14.917969 L 22.964844 14.917969 C 22.828125 14.914062 22.695312 14.941406 22.566406 14.992188 C 22.4375 15.042969 22.324219 15.113281 22.226562 15.210938 C 22.128906 15.308594 22.054688 15.417969 22 15.546875 C 21.945312 15.671875 21.917969 15.804688 21.917969 15.941406 C 21.917969 16.078125 21.945312 16.210938 22 16.339844 C 22.054688 16.464844 22.128906 16.578125 22.226562 16.671875 C 22.324219 16.769531 22.4375 16.84375 22.566406 16.894531 C 22.695312 16.945312 22.828125 16.96875 22.964844 16.964844 L 47.558594 16.964844 C 47.769531 16.96875 47.960938 16.910156 48.136719 16.792969 C 48.3125 16.675781 48.441406 16.519531 48.519531 16.324219 C 48.597656 16.128906 48.617188 15.929688 48.570312 15.722656 C 48.527344 15.515625 48.425781 15.34375 48.273438 15.195312 Z M 48.273438 15.195312 " fill-opacity="1" fill-rule="nonzero"/></g></g></g></svg>