<svg xmlns="http://www.w3.org/2000/svg" xmlns:xlink="http://www.w3.org/1999/xlink" width="95" zoomAndPan="magnify" viewBox="0 0 71.25 71.25" height="95" preserveAspectRatio="xMidYMid meet" version="1.0"><defs><clipPath id="2c6eeab97e"><path d="M 0 0 L 70.507812 0 L 70.507812 70.507812 L 0 70.507812 Z M 0 0 " clip-rule="nonzero"/></clipPath><clipPath id="129f3905ce"><path d="M 24.007812 26.015625 L 46.53125 26.015625 L 46.53125 44.496094 L 24.007812 44.496094 Z M 24.007812 26.015625 " clip-rule="nonzero"/></clipPath><clipPath id="c3ca7f1106"><path d="M 26.976562 26.015625 L 43.527344 26.015625 C 44.316406 26.015625 45.070312 26.328125 45.628906 26.882812 C 46.183594 27.441406 46.496094 28.195312 46.496094 28.984375 L 46.496094 41.527344 C 46.496094 42.3125 46.183594 43.066406 45.628906 43.625 C 45.070312 44.179688 44.316406 44.496094 43.527344 44.496094 L 26.976562 44.496094 C 26.191406 44.496094 25.4375 44.179688 24.878906 43.625 C 24.324219 43.066406 24.007812 42.3125 24.007812 41.527344 L 24.007812 28.984375 C 24.007812 28.195312 24.324219 27.441406 24.878906 26.882812 C 25.4375 26.328125 26.191406 26.015625 26.976562 26.015625 Z M 26.976562 26.015625 " clip-rule="nonzero"/></clipPath><clipPath id="d70cd75bb6"><path d="M 29.339844 30.324219 L 41.214844 30.324219 L 41.214844 39.972656 L 29.339844 39.972656 Z M 29.339844 30.324219 " clip-rule="nonzero"/></clipPath></defs><g clip-path="url(#2c6eeab97e)"><path fill="#ffffff" d="M 0 0 L 70.507812 0 L 70.507812 70.507812 L 0 70.507812 Z M 0 0 " fill-opacity="1" fill-rule="nonzero"/><path fill="#ffffff" d="M 0 0 L 70.507812 0 L 70.507812 70.507812 L 0 70.507812 Z M 0 0 " fill-opacity="1" fill-rule="nonzero"/></g><g clip-path="url(#129f3905ce)"><g clip-path="url(#c3ca7f1106)"><path fill="#e24c4c" d="M 24.007812 26.015625 L 46.53125 26.015625 L 46.53125 44.496094 L 24.007812 44.496094 Z M 24.007812 26.015625 " fill-opacity="1" fill-rule="nonzero"/></g></g><g clip-path="url(#d70cd75bb6)"><path fill="#ffffff" d="M 39.925781 30.328125 L 33.035156 30.328125 C 32.355469 30.328125 31.804688 30.882812 31.804688 31.558594 L 31.804688 33.867188 C 30.394531 34.199219 29.339844 35.464844 29.339844 36.976562 C 29.339844 38.742188 30.777344 40.175781 32.542969 40.175781 C 34.082031 40.175781 35.371094 39.082031 35.675781 37.628906 L 36.273438 38.585938 C 36.316406 38.65625 36.394531 38.699219 36.480469 38.699219 C 36.566406 38.699219 36.644531 38.65625 36.691406 38.585938 L 37.847656 36.730469 L 39.929688 36.730469 C 40.605469 36.730469 41.160156 36.179688 41.160156 35.5 L 41.160156 31.558594 C 41.160156 30.882812 40.605469 30.328125 39.929688 30.328125 Z M 32.542969 39.683594 C 31.050781 39.683594 29.832031 38.46875 29.832031 36.976562 C 29.832031 35.636719 30.8125 34.523438 32.089844 34.308594 C 32.253906 34.28125 32.402344 34.269531 32.542969 34.269531 C 32.714844 34.269531 32.886719 34.285156 33.050781 34.316406 C 33.0625 34.320312 33.074219 34.320312 33.085938 34.324219 C 33.234375 34.351562 33.378906 34.398438 33.519531 34.453125 C 33.546875 34.464844 33.574219 34.472656 33.597656 34.480469 C 33.722656 34.535156 33.839844 34.601562 33.957031 34.671875 C 33.992188 34.691406 34.023438 34.710938 34.058594 34.734375 C 34.164062 34.804688 34.261719 34.886719 34.355469 34.972656 C 34.386719 35 34.421875 35.027344 34.449219 35.058594 C 34.542969 35.148438 34.628906 35.25 34.707031 35.355469 C 34.726562 35.386719 34.75 35.414062 34.769531 35.441406 C 34.851562 35.5625 34.925781 35.6875 34.988281 35.820312 C 34.996094 35.835938 35.003906 35.855469 35.011719 35.875 C 35.078125 36.023438 35.132812 36.175781 35.171875 36.339844 C 35.171875 36.34375 35.171875 36.347656 35.171875 36.351562 C 35.214844 36.519531 35.238281 36.695312 35.246094 36.878906 C 35.246094 36.910156 35.25 36.941406 35.25 36.976562 C 35.25 38.46875 34.035156 39.683594 32.542969 39.683594 Z M 40.664062 35.5 C 40.664062 35.90625 40.335938 36.238281 39.925781 36.238281 L 37.710938 36.238281 C 37.625 36.238281 37.546875 36.28125 37.503906 36.351562 L 36.480469 37.988281 L 35.734375 36.792969 C 35.734375 36.789062 35.730469 36.785156 35.730469 36.78125 C 35.726562 36.6875 35.714844 36.59375 35.703125 36.5 C 35.699219 36.488281 35.699219 36.472656 35.695312 36.460938 C 35.683594 36.375 35.667969 36.292969 35.644531 36.214844 C 35.640625 36.1875 35.632812 36.160156 35.625 36.132812 C 35.609375 36.066406 35.589844 36.003906 35.566406 35.941406 C 35.550781 35.894531 35.535156 35.855469 35.519531 35.8125 C 35.5 35.765625 35.484375 35.722656 35.464844 35.675781 C 35.4375 35.617188 35.40625 35.558594 35.378906 35.5 C 35.363281 35.472656 35.351562 35.449219 35.339844 35.425781 C 35.296875 35.347656 35.25 35.273438 35.203125 35.203125 C 35.199219 35.195312 35.195312 35.1875 35.191406 35.179688 C 34.730469 34.503906 34.019531 34.011719 33.191406 33.84375 C 33.1875 33.84375 33.1875 33.839844 33.1875 33.839844 C 33.09375 33.820312 33 33.808594 32.902344 33.796875 C 32.890625 33.796875 32.878906 33.792969 32.867188 33.792969 C 32.757812 33.78125 32.652344 33.777344 32.542969 33.777344 C 32.460938 33.777344 32.378906 33.777344 32.296875 33.785156 L 32.296875 31.558594 C 32.296875 31.152344 32.628906 30.820312 33.035156 30.820312 L 39.929688 30.820312 C 40.335938 30.820312 40.667969 31.152344 40.667969 31.558594 L 40.667969 35.5 Z M 40.664062 35.5 " fill-opacity="1" fill-rule="nonzero"/></g><path fill="#ffffff" d="M 34.035156 35.960938 L 32.148438 37.820312 L 31.199219 36.722656 C 31.109375 36.617188 30.953125 36.609375 30.851562 36.695312 C 30.75 36.785156 30.738281 36.941406 30.828125 37.042969 L 31.945312 38.339844 C 31.992188 38.390625 32.054688 38.421875 32.121094 38.425781 C 32.125 38.425781 32.128906 38.425781 32.132812 38.425781 C 32.195312 38.425781 32.257812 38.398438 32.304688 38.355469 L 34.378906 36.308594 C 34.476562 36.214844 34.476562 36.058594 34.382812 35.960938 C 34.285156 35.867188 34.128906 35.863281 34.035156 35.960938 Z M 34.035156 35.960938 " fill-opacity="1" fill-rule="nonzero"/><path fill="#ffffff" d="M 39.433594 31.804688 L 35.496094 31.804688 C 35.359375 31.804688 35.25 31.917969 35.25 32.050781 C 35.25 32.1875 35.359375 32.296875 35.496094 32.296875 L 39.433594 32.296875 C 39.570312 32.296875 39.679688 32.1875 39.679688 32.050781 C 39.679688 31.917969 39.570312 31.804688 39.433594 31.804688 Z M 39.433594 31.804688 " fill-opacity="1" fill-rule="nonzero"/><path fill="#ffffff" d="M 39.433594 33.285156 L 36.972656 33.285156 C 36.835938 33.285156 36.726562 33.394531 36.726562 33.53125 C 36.726562 33.664062 36.835938 33.777344 36.972656 33.777344 L 39.433594 33.777344 C 39.570312 33.777344 39.679688 33.664062 39.679688 33.53125 C 39.679688 33.394531 39.570312 33.285156 39.433594 33.285156 Z M 39.433594 33.285156 " fill-opacity="1" fill-rule="nonzero"/></svg>