<svg xmlns="http://www.w3.org/2000/svg" xmlns:xlink="http://www.w3.org/1999/xlink" width="95" zoomAndPan="magnify" viewBox="0 0 71.25 71.25" height="95" preserveAspectRatio="xMidYMid meet" version="1.0"><defs><clipPath id="901addaa09"><path d="M 8.449219 8.273438 L 62.058594 8.273438 L 62.058594 62.300781 L 8.449219 62.300781 Z M 8.449219 8.273438 " clip-rule="nonzero"/></clipPath><clipPath id="5336ad25da"><path d="M 11.417969 8.273438 L 59.089844 8.273438 C 59.878906 8.273438 60.632812 8.585938 61.191406 9.140625 C 61.746094 9.699219 62.058594 10.453125 62.058594 11.242188 L 62.058594 59.265625 C 62.058594 60.054688 61.746094 60.808594 61.191406 61.367188 C 60.632812 61.921875 59.878906 62.234375 59.089844 62.234375 L 11.417969 62.234375 C 10.628906 62.234375 9.875 61.921875 9.316406 61.367188 C 8.761719 60.808594 8.449219 60.054688 8.449219 59.265625 L 8.449219 11.242188 C 8.449219 10.453125 8.761719 9.699219 9.316406 9.140625 C 9.875 8.585938 10.628906 8.273438 11.417969 8.273438 Z M 11.417969 8.273438 " clip-rule="nonzero"/></clipPath><clipPath id="4220fa0a49"><path d="M 18.640625 20.121094 L 52 20.121094 L 52 50.199219 L 18.640625 50.199219 Z M 18.640625 20.121094 " clip-rule="nonzero"/></clipPath></defs><g clip-path="url(#901addaa09)"><g clip-path="url(#5336ad25da)"><path fill="#e24c4c" d="M 8.449219 8.273438 L 62.058594 8.273438 L 62.058594 62.300781 L 8.449219 62.300781 Z M 8.449219 8.273438 " fill-opacity="1" fill-rule="nonzero"/></g></g><g clip-path="url(#4220fa0a49)"><path fill="#ffffff" d="M 44.851562 32.859375 L 51.839844 50.332031 L 48.417969 50.332031 L 46.511719 45.566406 L 40.011719 45.566406 L 38.109375 50.332031 L 34.6875 50.332031 L 41.675781 32.859375 Z M 31.347656 20.148438 L 31.347656 23.328125 L 40.878906 23.328125 L 40.878906 26.503906 L 37.753906 26.503906 C 36.515625 30.230469 34.597656 33.566406 32.003906 36.515625 C 33.152344 37.539062 34.386719 38.441406 35.714844 39.226562 L 34.519531 42.210938 C 32.808594 41.238281 31.222656 40.09375 29.757812 38.777344 C 26.886719 41.375 23.605469 43.253906 19.910156 44.414062 L 19.058594 41.347656 C 22.222656 40.339844 25.042969 38.726562 27.519531 36.515625 C 25.695312 34.453125 24.203125 32.175781 23.035156 29.679688 L 26.59375 29.679688 C 27.480469 31.320312 28.535156 32.84375 29.757812 34.25 C 31.761719 31.945312 33.300781 29.363281 34.382812 26.503906 L 18.640625 26.503906 L 18.640625 23.328125 L 28.171875 23.328125 L 28.171875 20.148438 Z M 43.261719 37.441406 L 41.28125 42.390625 L 45.242188 42.390625 Z M 43.261719 37.441406 " fill-opacity="1" fill-rule="nonzero"/></g></svg>