<svg xmlns="http://www.w3.org/2000/svg" xmlns:xlink="http://www.w3.org/1999/xlink" width="95" zoomAndPan="magnify" viewBox="0 0 71.25 71.25" height="95" preserveAspectRatio="xMidYMid meet" version="1.0"><defs><clipPath id="2059caffc8"><path d="M 4.851562 9.375 L 65.710938 9.375 L 65.710938 55 L 4.851562 55 Z M 4.851562 9.375 " clip-rule="nonzero"/></clipPath><clipPath id="e839c9fe3b"><path d="M 41 36 L 57 36 L 57 61.328125 L 41 61.328125 Z M 41 36 " clip-rule="nonzero"/></clipPath></defs><g clip-path="url(#2059caffc8)"><path fill="#e24c4c" d="M 64.105469 9.375 L 6.398438 9.375 C 6.199219 9.375 6.003906 9.414062 5.820312 9.492188 C 5.632812 9.566406 5.46875 9.675781 5.328125 9.820312 C 5.183594 9.960938 5.074219 10.125 4.996094 10.3125 C 4.921875 10.5 4.882812 10.691406 4.882812 10.894531 L 4.882812 53.414062 C 4.882812 53.613281 4.921875 53.808594 4.996094 53.996094 C 5.074219 54.179688 5.183594 54.34375 5.328125 54.488281 C 5.46875 54.628906 5.632812 54.738281 5.820312 54.816406 C 6.003906 54.894531 6.199219 54.933594 6.398438 54.933594 L 39.808594 54.933594 C 40.011719 54.933594 40.203125 54.894531 40.390625 54.816406 C 40.574219 54.738281 40.742188 54.628906 40.882812 54.488281 C 41.023438 54.34375 41.136719 54.179688 41.210938 53.996094 C 41.289062 53.808594 41.328125 53.613281 41.328125 53.414062 C 41.328125 53.210938 41.289062 53.019531 41.210938 52.832031 C 41.136719 52.644531 41.023438 52.480469 40.882812 52.339844 C 40.742188 52.199219 40.574219 52.085938 40.390625 52.011719 C 40.203125 51.933594 40.011719 51.894531 39.808594 51.894531 L 7.917969 51.894531 L 7.917969 12.410156 L 62.585938 12.410156 L 62.585938 51.894531 L 58.03125 51.894531 C 57.832031 51.894531 57.636719 51.933594 57.449219 52.011719 C 57.265625 52.085938 57.101562 52.199219 56.957031 52.339844 C 56.816406 52.480469 56.707031 52.644531 56.628906 52.832031 C 56.550781 53.019531 56.511719 53.210938 56.511719 53.414062 C 56.511719 53.613281 56.550781 53.808594 56.628906 53.996094 C 56.707031 54.179688 56.816406 54.34375 56.957031 54.488281 C 57.101562 54.628906 57.265625 54.738281 57.449219 54.816406 C 57.636719 54.894531 57.832031 54.933594 58.03125 54.933594 L 64.105469 54.933594 C 64.308594 54.933594 64.5 54.894531 64.6875 54.816406 C 64.875 54.738281 65.039062 54.628906 65.179688 54.488281 C 65.324219 54.34375 65.433594 54.179688 65.507812 53.996094 C 65.585938 53.808594 65.625 53.613281 65.625 53.414062 L 65.625 10.894531 C 65.625 10.691406 65.585938 10.5 65.507812 10.3125 C 65.433594 10.125 65.324219 9.960938 65.179688 9.820312 C 65.039062 9.675781 64.875 9.566406 64.6875 9.492188 C 64.5 9.414062 64.308594 9.375 64.105469 9.375 Z M 64.105469 9.375 " fill-opacity="1" fill-rule="nonzero"/></g><g clip-path="url(#e839c9fe3b)"><path fill="#e24c4c" d="M 56.511719 44.300781 C 56.515625 43.980469 56.496094 43.65625 56.457031 43.335938 C 56.417969 43.015625 56.359375 42.699219 56.277344 42.386719 C 56.199219 42.074219 56.101562 41.769531 55.980469 41.46875 C 55.863281 41.167969 55.726562 40.878906 55.570312 40.59375 C 55.414062 40.3125 55.242188 40.039062 55.050781 39.78125 C 54.859375 39.519531 54.652344 39.273438 54.433594 39.039062 C 54.210938 38.804688 53.972656 38.585938 53.722656 38.378906 C 53.472656 38.175781 53.210938 37.988281 52.9375 37.816406 C 52.664062 37.648438 52.382812 37.496094 52.089844 37.359375 C 51.792969 37.226562 51.496094 37.109375 51.1875 37.015625 C 50.878906 36.917969 50.566406 36.839844 50.246094 36.785156 C 49.929688 36.726562 49.609375 36.691406 49.289062 36.675781 C 48.964844 36.660156 48.644531 36.664062 48.320312 36.691406 C 48 36.71875 47.679688 36.761719 47.367188 36.828125 C 47.050781 36.894531 46.738281 36.980469 46.433594 37.085938 C 46.128906 37.191406 45.832031 37.316406 45.542969 37.460938 C 45.253906 37.605469 44.976562 37.765625 44.707031 37.945312 C 44.4375 38.121094 44.183594 38.320312 43.9375 38.53125 C 43.695312 38.742188 43.464844 38.96875 43.25 39.210938 C 43.039062 39.449219 42.839844 39.703125 42.65625 39.96875 C 42.472656 40.234375 42.308594 40.511719 42.164062 40.800781 C 42.015625 41.085938 41.886719 41.382812 41.777344 41.6875 C 41.667969 41.988281 41.578125 42.300781 41.507812 42.613281 C 41.4375 42.929688 41.386719 43.246094 41.359375 43.570312 C 41.328125 43.890625 41.320312 44.210938 41.332031 44.535156 C 41.34375 44.855469 41.375 45.175781 41.429688 45.496094 C 41.480469 45.8125 41.554688 46.128906 41.644531 46.4375 C 41.738281 46.746094 41.851562 47.046875 41.980469 47.34375 C 42.113281 47.636719 42.261719 47.921875 42.429688 48.199219 C 42.597656 48.476562 42.78125 48.738281 42.980469 48.992188 C 43.183594 49.242188 43.398438 49.480469 43.628906 49.707031 C 43.863281 49.933594 44.105469 50.140625 44.363281 50.335938 L 44.363281 59.488281 C 44.363281 59.796875 44.449219 60.078125 44.617188 60.335938 C 44.789062 60.589844 45.015625 60.777344 45.300781 60.898438 C 45.585938 61.015625 45.878906 61.042969 46.179688 60.984375 C 46.484375 60.921875 46.742188 60.78125 46.960938 60.566406 L 48.921875 58.605469 L 50.878906 60.566406 C 51.179688 60.859375 51.539062 61.007812 51.957031 61.007812 C 52.15625 61.003906 52.351562 60.964844 52.539062 60.894531 C 52.820312 60.777344 53.046875 60.589844 53.21875 60.332031 C 53.390625 60.078125 53.476562 59.796875 53.476562 59.488281 L 53.476562 50.335938 C 54.429688 49.625 55.171875 48.738281 55.707031 47.675781 C 56.242188 46.617188 56.511719 45.492188 56.511719 44.300781 Z M 50.4375 55.816406 L 49.996094 55.375 C 49.855469 55.230469 49.691406 55.121094 49.503906 55.042969 C 49.316406 54.964844 49.121094 54.925781 48.921875 54.925781 C 48.71875 54.925781 48.523438 54.964844 48.335938 55.042969 C 48.152344 55.121094 47.984375 55.230469 47.84375 55.375 L 47.402344 55.816406 L 47.402344 51.742188 C 48.414062 51.949219 49.425781 51.949219 50.4375 51.742188 Z M 48.921875 48.859375 C 48.621094 48.859375 48.324219 48.828125 48.03125 48.769531 C 47.738281 48.710938 47.453125 48.625 47.175781 48.511719 C 46.902344 48.394531 46.636719 48.257812 46.390625 48.089844 C 46.140625 47.921875 45.910156 47.734375 45.699219 47.523438 C 45.488281 47.3125 45.296875 47.082031 45.132812 46.832031 C 44.964844 46.585938 44.824219 46.320312 44.710938 46.046875 C 44.597656 45.769531 44.511719 45.484375 44.453125 45.191406 C 44.394531 44.898438 44.363281 44.601562 44.363281 44.300781 C 44.363281 44.003906 44.394531 43.707031 44.453125 43.414062 C 44.511719 43.121094 44.597656 42.835938 44.710938 42.558594 C 44.824219 42.28125 44.964844 42.019531 45.132812 41.769531 C 45.296875 41.523438 45.488281 41.292969 45.699219 41.082031 C 45.910156 40.867188 46.140625 40.679688 46.390625 40.515625 C 46.636719 40.347656 46.902344 40.207031 47.175781 40.09375 C 47.453125 39.980469 47.738281 39.890625 48.03125 39.832031 C 48.324219 39.777344 48.621094 39.746094 48.921875 39.746094 C 49.21875 39.746094 49.515625 39.777344 49.808594 39.832031 C 50.101562 39.890625 50.386719 39.980469 50.664062 40.09375 C 50.941406 40.207031 51.203125 40.347656 51.453125 40.515625 C 51.699219 40.679688 51.929688 40.867188 52.140625 41.082031 C 52.351562 41.292969 52.542969 41.523438 52.707031 41.769531 C 52.875 42.019531 53.015625 42.28125 53.128906 42.558594 C 53.242188 42.835938 53.332031 43.121094 53.386719 43.414062 C 53.445312 43.707031 53.476562 44.003906 53.476562 44.300781 C 53.476562 44.601562 53.445312 44.898438 53.386719 45.191406 C 53.332031 45.484375 53.242188 45.769531 53.128906 46.046875 C 53.015625 46.320312 52.875 46.585938 52.707031 46.832031 C 52.542969 47.082031 52.351562 47.3125 52.140625 47.523438 C 51.929688 47.734375 51.699219 47.921875 51.453125 48.089844 C 51.203125 48.257812 50.941406 48.394531 50.664062 48.511719 C 50.386719 48.625 50.101562 48.710938 49.808594 48.769531 C 49.515625 48.828125 49.21875 48.859375 48.921875 48.859375 Z M 48.921875 48.859375 " fill-opacity="1" fill-rule="nonzero"/></g><path fill="#e24c4c" d="M 15.511719 21.523438 L 54.996094 21.523438 C 55.195312 21.523438 55.390625 21.484375 55.574219 21.40625 C 55.761719 21.332031 55.925781 21.222656 56.070312 21.078125 C 56.210938 20.9375 56.320312 20.773438 56.398438 20.585938 C 56.476562 20.398438 56.511719 20.207031 56.511719 20.003906 C 56.511719 19.804688 56.476562 19.609375 56.398438 19.421875 C 56.320312 19.238281 56.210938 19.074219 56.070312 18.929688 C 55.925781 18.789062 55.761719 18.679688 55.574219 18.601562 C 55.390625 18.523438 55.195312 18.484375 54.996094 18.484375 L 15.511719 18.484375 C 15.308594 18.484375 15.117188 18.523438 14.929688 18.601562 C 14.746094 18.679688 14.582031 18.789062 14.4375 18.929688 C 14.296875 19.074219 14.1875 19.238281 14.109375 19.421875 C 14.03125 19.609375 13.992188 19.804688 13.992188 20.003906 C 13.992188 20.207031 14.03125 20.398438 14.109375 20.585938 C 14.1875 20.773438 14.296875 20.9375 14.4375 21.078125 C 14.582031 21.222656 14.746094 21.332031 14.929688 21.40625 C 15.117188 21.484375 15.308594 21.523438 15.511719 21.523438 Z M 15.511719 21.523438 " fill-opacity="1" fill-rule="nonzero"/><path fill="#e24c4c" d="M 56.511719 26.078125 C 56.511719 25.878906 56.476562 25.683594 56.398438 25.496094 C 56.320312 25.3125 56.210938 25.148438 56.070312 25.003906 C 55.925781 24.863281 55.761719 24.753906 55.574219 24.675781 C 55.390625 24.597656 55.195312 24.558594 54.996094 24.558594 L 15.511719 24.558594 C 15.308594 24.558594 15.117188 24.597656 14.929688 24.675781 C 14.746094 24.753906 14.582031 24.863281 14.4375 25.003906 C 14.296875 25.148438 14.1875 25.3125 14.109375 25.496094 C 14.03125 25.683594 13.992188 25.878906 13.992188 26.078125 C 13.992188 26.28125 14.03125 26.472656 14.109375 26.660156 C 14.1875 26.847656 14.296875 27.011719 14.4375 27.152344 C 14.582031 27.296875 14.746094 27.40625 14.929688 27.480469 C 15.117188 27.558594 15.308594 27.597656 15.511719 27.597656 L 54.996094 27.597656 C 55.195312 27.597656 55.390625 27.558594 55.574219 27.480469 C 55.761719 27.40625 55.925781 27.296875 56.070312 27.152344 C 56.210938 27.011719 56.320312 26.847656 56.398438 26.660156 C 56.476562 26.472656 56.511719 26.28125 56.511719 26.078125 Z M 56.511719 26.078125 " fill-opacity="1" fill-rule="nonzero"/><path fill="#e24c4c" d="M 15.511719 39.746094 C 15.308594 39.746094 15.117188 39.785156 14.929688 39.863281 C 14.746094 39.9375 14.582031 40.046875 14.4375 40.191406 C 14.296875 40.332031 14.1875 40.496094 14.109375 40.683594 C 14.03125 40.871094 13.992188 41.0625 13.992188 41.265625 C 13.992188 41.464844 14.03125 41.660156 14.109375 41.847656 C 14.1875 42.03125 14.296875 42.195312 14.4375 42.339844 C 14.582031 42.480469 14.746094 42.589844 14.929688 42.667969 C 15.117188 42.746094 15.308594 42.785156 15.511719 42.785156 L 27.660156 42.785156 C 27.863281 42.785156 28.054688 42.746094 28.242188 42.667969 C 28.425781 42.589844 28.589844 42.480469 28.734375 42.339844 C 28.875 42.195312 28.984375 42.03125 29.0625 41.847656 C 29.140625 41.660156 29.179688 41.464844 29.179688 41.265625 C 29.179688 41.0625 29.140625 40.871094 29.0625 40.683594 C 28.984375 40.496094 28.875 40.332031 28.734375 40.191406 C 28.589844 40.046875 28.425781 39.9375 28.242188 39.863281 C 28.054688 39.785156 27.863281 39.746094 27.660156 39.746094 Z M 15.511719 39.746094 " fill-opacity="1" fill-rule="nonzero"/></svg>