<svg xmlns="http://www.w3.org/2000/svg" xmlns:xlink="http://www.w3.org/1999/xlink" width="95" zoomAndPan="magnify" viewBox="0 0 71.25 71.25" height="95" preserveAspectRatio="xMidYMid meet" version="1.0"><defs><clipPath id="d3c714d113"><path d="M 0 0 L 70.507812 0 L 70.507812 70.507812 L 0 70.507812 Z M 0 0 " clip-rule="nonzero"/></clipPath><clipPath id="936177cc3a"><path d="M 24.007812 27.5 L 46.535156 27.5 L 46.535156 42.714844 L 24.007812 42.714844 Z M 24.007812 27.5 " clip-rule="nonzero"/></clipPath><clipPath id="d4036567d0"><path d="M 26.976562 27.5 L 43.527344 27.5 C 44.316406 27.5 45.070312 27.8125 45.628906 28.367188 C 46.183594 28.925781 46.496094 29.679688 46.496094 30.46875 L 46.496094 39.746094 C 46.496094 40.53125 46.183594 41.285156 45.628906 41.84375 C 45.070312 42.398438 44.316406 42.714844 43.527344 42.714844 L 26.976562 42.714844 C 26.191406 42.714844 25.4375 42.398438 24.878906 41.84375 C 24.324219 41.285156 24.007812 40.53125 24.007812 39.746094 L 24.007812 30.46875 C 24.007812 29.679688 24.324219 28.925781 24.878906 28.367188 C 25.4375 27.8125 26.191406 27.5 26.976562 27.5 Z M 26.976562 27.5 " clip-rule="nonzero"/></clipPath><clipPath id="9dc4e849d2"><path d="M 27.523438 31.714844 L 43 31.714844 L 43 38.394531 L 27.523438 38.394531 Z M 27.523438 31.714844 " clip-rule="nonzero"/></clipPath></defs><g clip-path="url(#d3c714d113)"><path fill="#ffffff" d="M 0 0 L 70.507812 0 L 70.507812 70.507812 L 0 70.507812 Z M 0 0 " fill-opacity="1" fill-rule="nonzero"/><path fill="#ffffff" d="M 0 0 L 70.507812 0 L 70.507812 70.507812 L 0 70.507812 Z M 0 0 " fill-opacity="1" fill-rule="nonzero"/></g><g clip-path="url(#936177cc3a)"><g clip-path="url(#d4036567d0)"><path fill="#e24c4c" d="M 24.007812 27.5 L 46.476562 27.5 L 46.476562 42.714844 L 24.007812 42.714844 Z M 24.007812 27.5 " fill-opacity="1" fill-rule="nonzero"/></g></g><g clip-path="url(#9dc4e849d2)"><path fill="#ffffff" d="M 41.648438 32.722656 C 41 32.070312 40.132812 31.714844 39.214844 31.71875 C 38.292969 31.726562 37.433594 32.089844 36.789062 32.746094 L 35.679688 33.882812 L 36.472656 34.644531 L 37.578125 33.515625 C 38.011719 33.070312 38.597656 32.824219 39.21875 32.820312 C 39.222656 32.820312 39.226562 32.820312 39.234375 32.820312 C 39.851562 32.820312 40.433594 33.0625 40.871094 33.5 C 41.753906 34.382812 41.753906 35.824219 40.871094 36.707031 C 40.433594 37.144531 39.851562 37.386719 39.234375 37.386719 C 39.226562 37.386719 39.222656 37.386719 39.21875 37.386719 C 38.597656 37.382812 38.011719 37.136719 37.578125 36.6875 L 36.023438 35.101562 L 33.714844 32.746094 C 33.074219 32.089844 32.210938 31.726562 31.292969 31.71875 C 30.375 31.714844 29.507812 32.070312 28.855469 32.722656 C 27.542969 34.035156 27.542969 36.171875 28.855469 37.484375 C 29.503906 38.132812 30.359375 38.484375 31.273438 38.484375 C 31.28125 38.484375 31.285156 38.484375 31.292969 38.484375 C 32.210938 38.480469 33.074219 38.117188 33.714844 37.460938 L 34.828125 36.324219 L 34.03125 35.5625 L 32.929688 36.6875 C 32.492188 37.136719 31.910156 37.382812 31.285156 37.386719 C 31.28125 37.386719 31.277344 37.386719 31.273438 37.386719 C 30.65625 37.386719 30.074219 37.144531 29.636719 36.707031 C 28.75 35.824219 28.75 34.382812 29.636719 33.5 C 30.074219 33.0625 30.65625 32.820312 31.273438 32.820312 C 31.277344 32.820312 31.28125 32.820312 31.285156 32.820312 C 31.910156 32.824219 32.492188 33.070312 32.929688 33.515625 L 34.484375 35.101562 L 35.253906 35.890625 L 36.789062 37.460938 C 37.433594 38.117188 38.292969 38.480469 39.214844 38.484375 C 39.21875 38.484375 39.226562 38.484375 39.234375 38.484375 C 40.144531 38.484375 41.003906 38.132812 41.648438 37.484375 C 42.960938 36.171875 42.960938 34.035156 41.648438 32.722656 " fill-opacity="1" fill-rule="nonzero"/></g></svg>