<svg xmlns="http://www.w3.org/2000/svg" xmlns:xlink="http://www.w3.org/1999/xlink" width="95" zoomAndPan="magnify" viewBox="0 0 71.25 71.25" height="95" preserveAspectRatio="xMidYMid meet" version="1.0"><defs><clipPath id="fad858ce93"><path d="M 7.050781 12.078125 L 63.542969 12.078125 L 63.542969 58.429688 L 7.050781 58.429688 Z M 7.050781 12.078125 " clip-rule="nonzero"/></clipPath><clipPath id="20b4483fd1"><path d="M 10.019531 12.078125 L 60.488281 12.078125 C 61.277344 12.078125 62.03125 12.390625 62.585938 12.945312 C 63.144531 13.503906 63.457031 14.257812 63.457031 15.046875 L 63.457031 55.460938 C 63.457031 56.25 63.144531 57.003906 62.585938 57.5625 C 62.03125 58.117188 61.277344 58.429688 60.488281 58.429688 L 10.019531 58.429688 C 9.230469 58.429688 8.476562 58.117188 7.921875 57.5625 C 7.363281 57.003906 7.050781 56.25 7.050781 55.460938 L 7.050781 15.046875 C 7.050781 14.257812 7.363281 13.503906 7.921875 12.945312 C 8.476562 12.390625 9.230469 12.078125 10.019531 12.078125 Z M 10.019531 12.078125 " clip-rule="nonzero"/></clipPath><clipPath id="bdf5b76013"><path d="M 20.421875 22.890625 L 50.210938 22.890625 L 50.210938 47.089844 L 20.421875 47.089844 Z M 20.421875 22.890625 " clip-rule="nonzero"/></clipPath></defs><g clip-path="url(#fad858ce93)"><g clip-path="url(#20b4483fd1)"><path fill="#e24c4c" d="M 7.050781 12.078125 L 63.542969 12.078125 L 63.542969 58.429688 L 7.050781 58.429688 Z M 7.050781 12.078125 " fill-opacity="1" fill-rule="nonzero"/></g></g><g clip-path="url(#bdf5b76013)"><path fill="#ffffff" d="M 46.976562 22.902344 L 29.6875 22.902344 C 27.984375 22.902344 26.597656 24.285156 26.597656 25.988281 L 26.597656 31.769531 C 23.0625 32.609375 20.421875 35.785156 20.421875 39.574219 C 20.421875 44 24.023438 47.601562 28.453125 47.601562 C 32.316406 47.601562 35.550781 44.851562 36.3125 41.210938 L 37.808594 43.605469 C 37.921875 43.789062 38.117188 43.898438 38.332031 43.898438 C 38.546875 43.898438 38.742188 43.789062 38.855469 43.605469 L 41.761719 38.957031 L 46.980469 38.957031 C 48.683594 38.957031 50.066406 37.570312 50.066406 35.871094 L 50.066406 25.988281 C 50.066406 24.285156 48.683594 22.902344 46.980469 22.902344 Z M 28.453125 46.367188 C 24.707031 46.367188 21.660156 43.320312 21.660156 39.574219 C 21.660156 36.214844 24.113281 33.425781 27.316406 32.882812 C 27.730469 32.816406 28.097656 32.78125 28.449219 32.78125 C 28.886719 32.78125 29.316406 32.828125 29.730469 32.90625 C 29.757812 32.910156 29.785156 32.914062 29.8125 32.917969 C 30.191406 32.996094 30.554688 33.109375 30.90625 33.25 C 30.96875 33.273438 31.035156 33.292969 31.097656 33.320312 C 31.414062 33.453125 31.710938 33.617188 32 33.792969 C 32.085938 33.84375 32.171875 33.894531 32.253906 33.949219 C 32.519531 34.128906 32.765625 34.332031 33.003906 34.546875 C 33.082031 34.617188 33.164062 34.683594 33.238281 34.761719 C 33.472656 34.992188 33.6875 35.246094 33.882812 35.511719 C 33.9375 35.582031 33.992188 35.652344 34.039062 35.722656 C 34.246094 36.023438 34.429688 36.339844 34.585938 36.671875 C 34.605469 36.71875 34.628906 36.761719 34.648438 36.808594 C 34.8125 37.179688 34.949219 37.570312 35.042969 37.972656 C 35.046875 37.984375 35.050781 37.992188 35.050781 38.003906 C 35.152344 38.429688 35.210938 38.871094 35.230469 39.328125 C 35.234375 39.410156 35.242188 39.492188 35.242188 39.574219 C 35.242188 43.320312 32.195312 46.363281 28.449219 46.363281 Z M 48.828125 35.867188 C 48.828125 36.890625 47.996094 37.722656 46.976562 37.722656 L 41.417969 37.722656 C 41.207031 37.722656 41.007812 37.832031 40.894531 38.011719 L 38.332031 42.113281 L 36.457031 39.117188 C 36.457031 39.105469 36.453125 39.097656 36.453125 39.085938 C 36.4375 38.847656 36.414062 38.613281 36.378906 38.382812 C 36.375 38.347656 36.371094 38.3125 36.363281 38.277344 C 36.328125 38.070312 36.289062 37.863281 36.238281 37.660156 C 36.222656 37.59375 36.203125 37.527344 36.1875 37.460938 C 36.140625 37.296875 36.09375 37.132812 36.035156 36.972656 C 36 36.867188 35.960938 36.761719 35.917969 36.65625 C 35.875 36.539062 35.828125 36.425781 35.78125 36.316406 C 35.714844 36.164062 35.640625 36.015625 35.5625 35.867188 C 35.53125 35.804688 35.5 35.742188 35.464844 35.683594 C 35.359375 35.492188 35.246094 35.304688 35.125 35.121094 C 35.117188 35.105469 35.105469 35.089844 35.09375 35.070312 C 33.941406 33.367188 32.164062 32.136719 30.078125 31.714844 C 30.074219 31.714844 30.070312 31.710938 30.066406 31.710938 C 29.832031 31.664062 29.597656 31.628906 29.355469 31.601562 C 29.324219 31.597656 29.296875 31.589844 29.265625 31.585938 C 28.996094 31.558594 28.726562 31.546875 28.453125 31.546875 C 28.25 31.546875 28.046875 31.554688 27.835938 31.574219 L 27.835938 25.988281 C 27.835938 24.96875 28.667969 24.136719 29.6875 24.136719 L 46.976562 24.136719 C 48 24.136719 48.828125 24.96875 48.828125 25.988281 Z M 48.828125 35.867188 " fill-opacity="1" fill-rule="nonzero"/></g><path fill="#ffffff" d="M 32.191406 37.027344 L 27.460938 41.691406 L 25.085938 38.933594 C 24.859375 38.675781 24.46875 38.648438 24.210938 38.871094 C 23.953125 39.09375 23.925781 39.484375 24.148438 39.742188 L 26.957031 42.996094 C 27.070312 43.125 27.230469 43.203125 27.398438 43.210938 C 27.40625 43.210938 27.417969 43.210938 27.425781 43.210938 C 27.585938 43.210938 27.742188 43.144531 27.859375 43.03125 L 33.058594 37.902344 C 33.300781 37.664062 33.304688 37.273438 33.066406 37.03125 C 32.824219 36.789062 32.433594 36.785156 32.191406 37.023438 Z M 32.191406 37.027344 " fill-opacity="1" fill-rule="nonzero"/><path fill="#ffffff" d="M 45.742188 26.605469 L 35.859375 26.605469 C 35.519531 26.605469 35.242188 26.882812 35.242188 27.222656 C 35.242188 27.566406 35.519531 27.839844 35.859375 27.839844 L 45.742188 27.839844 C 46.082031 27.839844 46.359375 27.566406 46.359375 27.222656 C 46.359375 26.882812 46.082031 26.605469 45.742188 26.605469 Z M 45.742188 26.605469 " fill-opacity="1" fill-rule="nonzero"/><path fill="#ffffff" d="M 45.742188 30.3125 L 39.566406 30.3125 C 39.226562 30.3125 38.949219 30.589844 38.949219 30.929688 C 38.949219 31.269531 39.226562 31.546875 39.566406 31.546875 L 45.742188 31.546875 C 46.082031 31.546875 46.359375 31.269531 46.359375 30.929688 C 46.359375 30.589844 46.082031 30.3125 45.742188 30.3125 Z M 45.742188 30.3125 " fill-opacity="1" fill-rule="nonzero"/></svg>