<svg xmlns="http://www.w3.org/2000/svg" xmlns:xlink="http://www.w3.org/1999/xlink" width="95" zoomAndPan="magnify" viewBox="0 0 71.25 71.25" height="95" preserveAspectRatio="xMidYMid meet" version="1.0"><defs><clipPath id="0181ad3751"><path d="M 0 0 L 70.507812 0 L 70.507812 70.507812 L 0 70.507812 Z M 0 0 " clip-rule="nonzero"/></clipPath><clipPath id="e98ae1d0a6"><path d="M 24.007812 26.015625 L 46.53125 26.015625 L 46.53125 44.496094 L 24.007812 44.496094 Z M 24.007812 26.015625 " clip-rule="nonzero"/></clipPath><clipPath id="b4661d9d22"><path d="M 26.976562 26.015625 L 43.527344 26.015625 C 44.316406 26.015625 45.070312 26.328125 45.628906 26.882812 C 46.183594 27.441406 46.496094 28.195312 46.496094 28.984375 L 46.496094 41.527344 C 46.496094 42.3125 46.183594 43.066406 45.628906 43.625 C 45.070312 44.179688 44.316406 44.496094 43.527344 44.496094 L 26.976562 44.496094 C 26.191406 44.496094 25.4375 44.179688 24.878906 43.625 C 24.324219 43.066406 24.007812 42.3125 24.007812 41.527344 L 24.007812 28.984375 C 24.007812 28.195312 24.324219 27.441406 24.878906 26.882812 C 25.4375 26.328125 26.191406 26.015625 26.976562 26.015625 Z M 26.976562 26.015625 " clip-rule="nonzero"/></clipPath><clipPath id="30951e1d57"><path d="M 35 35 L 40 35 L 40 40.746094 L 35 40.746094 Z M 35 35 " clip-rule="nonzero"/></clipPath><clipPath id="59d2e280c8"><path d="M 32 29.613281 L 37 29.613281 L 37 34 L 32 34 Z M 32 29.613281 " clip-rule="nonzero"/></clipPath><clipPath id="4472a17d8e"><path d="M 30.515625 34 L 37 34 L 37 39 L 30.515625 39 Z M 30.515625 34 " clip-rule="nonzero"/></clipPath></defs><g clip-path="url(#0181ad3751)"><path fill="#ffffff" d="M 0 0 L 70.507812 0 L 70.507812 70.507812 L 0 70.507812 Z M 0 0 " fill-opacity="1" fill-rule="nonzero"/><path fill="#ffffff" d="M 0 0 L 70.507812 0 L 70.507812 70.507812 L 0 70.507812 Z M 0 0 " fill-opacity="1" fill-rule="nonzero"/></g><g clip-path="url(#e98ae1d0a6)"><g clip-path="url(#b4661d9d22)"><path fill="#e24c4c" d="M 24.007812 26.015625 L 46.53125 26.015625 L 46.53125 44.496094 L 24.007812 44.496094 Z M 24.007812 26.015625 " fill-opacity="1" fill-rule="nonzero"/></g></g><g clip-path="url(#30951e1d57)"><path fill="#ffffff" d="M 37.550781 35.988281 C 37.1875 35.988281 36.824219 36.070312 36.5 36.226562 C 36.5 36.226562 36.5 36.230469 36.496094 36.230469 C 35.648438 36.636719 35.125 37.476562 35.125 38.414062 L 35.125 38.425781 C 35.128906 38.433594 35.128906 38.449219 35.128906 38.457031 L 35.128906 38.476562 C 35.160156 39.78125 36.246094 40.839844 37.550781 40.839844 C 38.890625 40.839844 39.976562 39.753906 39.976562 38.414062 C 39.976562 37.074219 38.890625 35.988281 37.550781 35.988281 Z M 38.800781 38.113281 L 37.59375 39.320312 C 37.507812 39.40625 37.398438 39.445312 37.289062 39.445312 C 37.175781 39.445312 37.066406 39.40625 36.984375 39.320312 L 36.308594 38.644531 C 36.140625 38.476562 36.140625 38.203125 36.308594 38.035156 C 36.472656 37.867188 36.746094 37.867188 36.914062 38.035156 L 37.289062 38.410156 L 38.191406 37.503906 C 38.359375 37.335938 38.632812 37.335938 38.800781 37.503906 C 38.96875 37.675781 38.96875 37.945312 38.800781 38.113281 Z M 38.800781 38.113281 " fill-opacity="1" fill-rule="nonzero"/></g><g clip-path="url(#59d2e280c8)"><path fill="#ffffff" d="M 34.25 33.988281 C 35.441406 33.988281 36.414062 33.015625 36.414062 31.824219 C 36.414062 30.632812 35.441406 29.660156 34.25 29.660156 C 33.058594 29.660156 32.085938 30.632812 32.085938 31.824219 C 32.085938 33.015625 33.058594 33.988281 34.25 33.988281 Z M 34.25 33.988281 " fill-opacity="1" fill-rule="nonzero"/></g><g clip-path="url(#4472a17d8e)"><path fill="#ffffff" d="M 34.265625 38.414062 C 34.265625 38.285156 34.273438 38.160156 34.289062 38.035156 C 34.386719 37.15625 34.828125 36.375 35.515625 35.835938 C 35.703125 35.6875 35.90625 35.554688 36.128906 35.449219 C 36.210938 35.414062 36.289062 35.375 36.375 35.34375 C 35.753906 34.914062 35.011719 34.679688 34.253906 34.679688 C 32.195312 34.679688 30.519531 36.355469 30.519531 38.414062 L 30.519531 38.464844 C 30.519531 38.699219 30.710938 38.890625 30.949219 38.890625 L 34.300781 38.890625 C 34.28125 38.757812 34.269531 38.621094 34.269531 38.484375 C 34.265625 38.464844 34.265625 38.441406 34.265625 38.414062 Z M 34.265625 38.414062 " fill-opacity="1" fill-rule="nonzero"/></g></svg>