<svg xmlns="http://www.w3.org/2000/svg" xmlns:xlink="http://www.w3.org/1999/xlink" width="95" zoomAndPan="magnify" viewBox="0 0 71.25 71.25" height="95" preserveAspectRatio="xMidYMid meet" version="1.0"><defs><clipPath id="1fb662bda6"><path d="M 4.496094 14.445312 L 66 14.445312 L 66 56.0625 L 4.496094 56.0625 Z M 4.496094 14.445312 " clip-rule="nonzero"/></clipPath><clipPath id="d1ab08479d"><path d="M 7.464844 14.445312 L 63.042969 14.445312 C 64.683594 14.445312 66.011719 15.773438 66.011719 17.414062 L 66.011719 53.09375 C 66.011719 54.734375 64.683594 56.0625 63.042969 56.0625 L 7.464844 56.0625 C 5.824219 56.0625 4.496094 54.734375 4.496094 53.09375 L 4.496094 17.414062 C 4.496094 15.773438 5.824219 14.445312 7.464844 14.445312 Z M 7.464844 14.445312 " clip-rule="nonzero"/></clipPath><clipPath id="c07a34d2d3"><path d="M 15 25.976562 L 56 25.976562 L 56 44.480469 L 15 44.480469 Z M 15 25.976562 " clip-rule="nonzero"/></clipPath></defs><g clip-path="url(#1fb662bda6)"><g clip-path="url(#d1ab08479d)"><path fill="#e24c4c" d="M 4.496094 14.445312 L 65.949219 14.445312 L 65.949219 56.0625 L 4.496094 56.0625 Z M 4.496094 14.445312 " fill-opacity="1" fill-rule="nonzero"/></g></g><g clip-path="url(#c07a34d2d3)"><path fill="#ffffff" d="M 52.765625 28.734375 C 50.984375 26.953125 48.613281 25.980469 46.097656 25.992188 C 43.578125 26.007812 41.21875 27.003906 39.457031 28.804688 L 36.417969 31.910156 L 38.59375 34 L 41.613281 30.914062 C 42.808594 29.695312 44.40625 29.015625 46.113281 29.007812 C 46.125 29.007812 46.136719 29.007812 46.148438 29.007812 C 47.84375 29.007812 49.433594 29.667969 50.632812 30.867188 C 53.054688 33.289062 53.054688 37.226562 50.632812 39.648438 C 49.433594 40.847656 47.84375 41.507812 46.148438 41.507812 C 46.136719 41.507812 46.125 41.507812 46.113281 41.507812 C 44.40625 41.5 42.808594 40.820312 41.613281 39.601562 L 37.359375 35.257812 L 37.363281 35.253906 L 37.359375 35.257812 L 35.25 33.101562 L 31.042969 28.804688 C 29.28125 27.003906 26.921875 26.007812 24.402344 25.992188 C 21.890625 25.980469 19.515625 26.953125 17.734375 28.734375 C 14.140625 32.332031 14.140625 38.183594 17.734375 41.78125 C 19.503906 43.550781 21.851562 44.523438 24.351562 44.523438 C 24.371094 44.523438 24.386719 44.523438 24.402344 44.523438 C 26.921875 44.507812 29.28125 43.507812 31.042969 41.710938 L 34.085938 38.601562 L 31.910156 36.515625 L 28.886719 39.601562 C 27.695312 40.820312 26.09375 41.5 24.386719 41.507812 C 24.375 41.507812 24.363281 41.507812 24.351562 41.507812 C 22.660156 41.507812 21.066406 40.847656 19.867188 39.648438 C 17.445312 37.226562 17.445312 33.289062 19.867188 30.867188 C 21.066406 29.667969 22.660156 29.007812 24.351562 29.007812 C 24.363281 29.007812 24.375 29.007812 24.386719 29.007812 C 26.09375 29.015625 27.695312 29.695312 28.886719 30.914062 L 33.140625 35.257812 L 35.25 37.410156 L 39.457031 41.710938 C 41.21875 43.507812 43.578125 44.507812 46.097656 44.523438 C 46.113281 44.523438 46.128906 44.523438 46.148438 44.523438 C 48.648438 44.523438 50.996094 43.550781 52.765625 41.78125 C 56.359375 38.183594 56.359375 32.332031 52.765625 28.734375 " fill-opacity="1" fill-rule="nonzero"/></g></svg>