<svg xmlns="http://www.w3.org/2000/svg" xmlns:xlink="http://www.w3.org/1999/xlink" width="95" zoomAndPan="magnify" viewBox="0 0 71.25 71.25" height="95" preserveAspectRatio="xMidYMid meet" version="1.0"><defs><clipPath id="11f4803a56"><path d="M 5.230469 10.582031 L 65.371094 10.582031 L 65.371094 59.925781 L 5.230469 59.925781 Z M 5.230469 10.582031 " clip-rule="nonzero"/></clipPath><clipPath id="a832c9f45e"><path d="M 8.199219 10.582031 L 62.308594 10.582031 C 63.949219 10.582031 65.277344 11.910156 65.277344 13.550781 L 65.277344 56.957031 C 65.277344 58.597656 63.949219 59.925781 62.308594 59.925781 L 8.199219 59.925781 C 6.558594 59.925781 5.230469 58.597656 5.230469 56.957031 L 5.230469 13.550781 C 5.230469 11.910156 6.558594 10.582031 8.199219 10.582031 Z M 8.199219 10.582031 " clip-rule="nonzero"/></clipPath><clipPath id="ebdcfc8cdd"><path d="M 34 37 L 48 37 L 48 49.921875 L 34 49.921875 Z M 34 37 " clip-rule="nonzero"/></clipPath><clipPath id="becad98601"><path d="M 26 20.199219 L 39 20.199219 L 39 32 L 26 32 Z M 26 20.199219 " clip-rule="nonzero"/></clipPath><clipPath id="32daa9069b"><path d="M 22.605469 33 L 39 33 L 39 45 L 22.605469 45 Z M 22.605469 33 " clip-rule="nonzero"/></clipPath></defs><g clip-path="url(#11f4803a56)"><g clip-path="url(#a832c9f45e)"><path fill="#e24c4c" d="M 5.230469 10.582031 L 65.371094 10.582031 L 65.371094 59.925781 L 5.230469 59.925781 Z M 5.230469 10.582031 " fill-opacity="1" fill-rule="nonzero"/></g></g><g clip-path="url(#ebdcfc8cdd)"><path fill="#ffffff" d="M 41.390625 37.214844 C 40.421875 37.214844 39.445312 37.433594 38.582031 37.851562 C 38.578125 37.851562 38.578125 37.859375 38.570312 37.859375 C 36.3125 38.949219 34.910156 41.191406 34.910156 43.695312 L 34.910156 43.722656 C 34.914062 43.75 34.914062 43.78125 34.914062 43.808594 L 34.914062 43.859375 C 35.003906 47.347656 37.898438 50.171875 41.390625 50.171875 C 44.964844 50.171875 47.867188 47.265625 47.867188 43.695312 C 47.867188 40.117188 44.964844 37.214844 41.390625 37.214844 Z M 44.722656 42.890625 L 41.5 46.113281 C 41.273438 46.339844 40.980469 46.445312 40.6875 46.445312 C 40.390625 46.445312 40.097656 46.339844 39.871094 46.113281 L 38.066406 44.304688 C 37.617188 43.855469 37.617188 43.128906 38.066406 42.675781 C 38.511719 42.230469 39.238281 42.230469 39.6875 42.675781 L 40.6875 43.679688 L 43.097656 41.265625 C 43.546875 40.816406 44.273438 40.816406 44.722656 41.265625 C 45.171875 41.71875 45.171875 42.441406 44.722656 42.890625 Z M 44.722656 42.890625 " fill-opacity="1" fill-rule="nonzero"/></g><g clip-path="url(#becad98601)"><path fill="#ffffff" d="M 32.570312 31.871094 C 35.757812 31.871094 38.347656 29.28125 38.347656 26.097656 C 38.351562 22.910156 35.757812 20.320312 32.570312 20.320312 C 29.386719 20.320312 26.796875 22.910156 26.796875 26.09375 C 26.796875 29.28125 29.394531 31.871094 32.570312 31.871094 Z M 32.570312 31.871094 " fill-opacity="1" fill-rule="nonzero"/></g><g clip-path="url(#32daa9069b)"><path fill="#ffffff" d="M 32.617188 43.695312 C 32.617188 43.347656 32.632812 43.011719 32.679688 42.675781 C 32.9375 40.335938 34.121094 38.242188 35.949219 36.804688 C 36.449219 36.410156 37 36.0625 37.589844 35.78125 C 37.804688 35.679688 38.023438 35.582031 38.246094 35.496094 C 36.59375 34.351562 34.605469 33.722656 32.582031 33.722656 C 27.085938 33.722656 22.613281 38.195312 22.613281 43.691406 L 22.613281 43.824219 C 22.613281 44.453125 23.125 44.96875 23.757812 44.96875 L 32.714844 44.96875 C 32.660156 44.613281 32.628906 44.25 32.621094 43.882812 C 32.617188 43.828125 32.617188 43.765625 32.617188 43.695312 Z M 32.617188 43.695312 " fill-opacity="1" fill-rule="nonzero"/></g></svg>