<svg xmlns="http://www.w3.org/2000/svg" xmlns:xlink="http://www.w3.org/1999/xlink" width="95" zoomAndPan="magnify" viewBox="0 0 71.25 71.25" height="95" preserveAspectRatio="xMidYMid meet" version="1.0"><defs><filter x="0%" y="0%" width="100%" height="100%" id="f085471ae4"><feColorMatrix values="0 0 0 0 1 0 0 0 0 1 0 0 0 0 1 0 0 0 1 0" color-interpolation-filters="sRGB"/></filter><clipPath id="4111e9de22"><path d="M 0 0 L 70.507812 0 L 70.507812 70.507812 L 0 70.507812 Z M 0 0 " clip-rule="nonzero"/></clipPath><mask id="b3e4805b08"><g filter="url(#f085471ae4)"><rect x="-7.125" width="85.5" fill="#000000" y="-7.125" height="85.5" fill-opacity="0.5"/></g></mask><clipPath id="490d220fe8"><path d="M 0 0 L 70.507812 0 L 70.507812 70.507812 L 0 70.507812 Z M 0 0 " clip-rule="nonzero"/></clipPath><clipPath id="7b39502b76"><path d="M 7.421875 0 L 63.085938 0 C 65.054688 0 66.941406 0.78125 68.335938 2.171875 C 69.726562 3.566406 70.507812 5.453125 70.507812 7.421875 L 70.507812 63.085938 C 70.507812 65.054688 69.726562 66.941406 68.335938 68.335938 C 66.941406 69.726562 65.054688 70.507812 63.085938 70.507812 L 7.421875 70.507812 C 5.453125 70.507812 3.566406 69.726562 2.171875 68.335938 C 0.78125 66.941406 0 65.054688 0 63.085938 L 0 7.421875 C 0 5.453125 0.78125 3.566406 2.171875 2.171875 C 3.566406 0.78125 5.453125 0 7.421875 0 Z M 7.421875 0 " clip-rule="nonzero"/></clipPath><clipPath id="09bb0e2842"><rect x="0" width="71" y="0" height="71"/></clipPath><clipPath id="73740b69dd"><path d="M 18.519531 19.304688 L 51.917969 19.304688 L 51.917969 51.203125 L 18.519531 51.203125 Z M 18.519531 19.304688 " clip-rule="nonzero"/></clipPath><clipPath id="bef4489b52"><path d="M 35.25 19.304688 L 39.203125 31.488281 L 51.984375 31.488281 L 41.644531 39.019531 L 45.59375 51.203125 L 35.25 43.671875 L 24.910156 51.203125 L 28.859375 39.019531 L 18.519531 31.488281 L 31.300781 31.488281 Z M 35.25 19.304688 " clip-rule="nonzero"/></clipPath></defs><g clip-path="url(#4111e9de22)"><g mask="url(#b3e4805b08)"><g transform="matrix(1, 0, 0, 1, 0, -0.000000000000008569)"><g clip-path="url(#09bb0e2842)"><g clip-path="url(#490d220fe8)"><g clip-path="url(#7b39502b76)"><path fill="#ff9d4d" d="M 0 0 L 70.507812 0 L 70.507812 70.507812 L 0 70.507812 Z M 0 0 " fill-opacity="1" fill-rule="nonzero"/></g></g></g></g></g></g><g clip-path="url(#73740b69dd)"><g clip-path="url(#bef4489b52)"><path stroke-linecap="butt" transform="matrix(0.742187, 0, 0, 0.742187, 18.517922, 19.304059)" fill="none" stroke-linejoin="miter" d="M 22.544275 0.000846973 L 27.870591 16.416637 L 45.091644 16.416637 L 31.160065 26.564006 L 36.481118 42.979796 L 22.544275 32.832427 L 8.612695 42.979796 L 13.933748 26.564006 L 0.00216862 16.416637 L 17.223222 16.416637 Z M 22.544275 0.000846973 " stroke="#ff9d4d" stroke-width="4" stroke-opacity="1" stroke-miterlimit="4"/></g></g></svg>