<svg xmlns="http://www.w3.org/2000/svg" xmlns:xlink="http://www.w3.org/1999/xlink" width="95" zoomAndPan="magnify" viewBox="0 0 71.25 71.25" height="95" preserveAspectRatio="xMidYMid meet" version="1.0"><defs><filter x="0%" y="0%" width="100%" height="100%" id="5eb13f52af"><feColorMatrix values="0 0 0 0 1 0 0 0 0 1 0 0 0 0 1 0 0 0 1 0" color-interpolation-filters="sRGB"/></filter><clipPath id="6340afa621"><path d="M 0 0 L 70.507812 0 L 70.507812 70.507812 L 0 70.507812 Z M 0 0 " clip-rule="nonzero"/></clipPath><mask id="3255f79d5b"><g filter="url(#5eb13f52af)"><rect x="-7.125" width="85.5" fill="#000000" y="-7.125" height="85.5" fill-opacity="0.5"/></g></mask><clipPath id="336abcfaa1"><path d="M 0 0 L 70.507812 0 L 70.507812 70.507812 L 0 70.507812 Z M 0 0 " clip-rule="nonzero"/></clipPath><clipPath id="a2b31af16a"><path d="M 7.421875 0 L 63.085938 0 C 65.054688 0 66.941406 0.78125 68.335938 2.171875 C 69.726562 3.566406 70.507812 5.453125 70.507812 7.421875 L 70.507812 63.085938 C 70.507812 65.054688 69.726562 66.941406 68.335938 68.335938 C 66.941406 69.726562 65.054688 70.507812 63.085938 70.507812 L 7.421875 70.507812 C 5.453125 70.507812 3.566406 69.726562 2.171875 68.335938 C 0.78125 66.941406 0 65.054688 0 63.085938 L 0 7.421875 C 0 5.453125 0.78125 3.566406 2.171875 2.171875 C 3.566406 0.78125 5.453125 0 7.421875 0 Z M 7.421875 0 " clip-rule="nonzero"/></clipPath><clipPath id="60a914f02e"><rect x="0" width="71" y="0" height="71"/></clipPath><clipPath id="5e84196d48"><path d="M 21.152344 21.152344 L 49.355469 21.152344 L 49.355469 49.355469 L 21.152344 49.355469 Z M 21.152344 21.152344 " clip-rule="nonzero"/></clipPath></defs><g clip-path="url(#6340afa621)"><g mask="url(#3255f79d5b)"><g transform="matrix(1, 0, 0, 1, 0, -0.000000000000008569)"><g clip-path="url(#60a914f02e)"><g clip-path="url(#336abcfaa1)"><g clip-path="url(#a2b31af16a)"><path fill="#faeded" d="M 0 0 L 70.507812 0 L 70.507812 70.507812 L 0 70.507812 Z M 0 0 " fill-opacity="1" fill-rule="nonzero"/></g></g></g></g></g></g><g clip-path="url(#5e84196d48)"><path fill="#ff7777" d="M 35.253906 21.152344 C 27.476562 21.152344 21.15625 27.480469 21.15625 35.257812 C 21.15625 43.035156 27.476562 49.355469 35.253906 49.355469 C 43.03125 49.355469 49.351562 43.035156 49.351562 35.257812 C 49.351562 27.480469 43.03125 21.152344 35.253906 21.152344 Z M 35.253906 47.070312 C 28.742188 47.070312 23.4375 41.769531 23.4375 35.257812 C 23.4375 28.742188 28.742188 23.441406 35.253906 23.441406 C 41.765625 23.441406 47.070312 28.742188 47.070312 35.257812 C 47.070312 41.769531 41.765625 47.070312 35.253906 47.070312 Z M 35.253906 47.070312 " fill-opacity="1" fill-rule="nonzero"/></g><path fill="#ff7777" d="M 41.53125 34.832031 L 31.539062 29.066406 C 31.214844 28.878906 30.808594 29.109375 30.808594 29.480469 L 30.808594 41.027344 C 30.808594 41.398438 31.214844 41.628906 31.539062 41.441406 L 41.535156 35.675781 C 41.859375 35.488281 41.859375 35.019531 41.53125 34.832031 Z M 41.53125 34.832031 " fill-opacity="1" fill-rule="nonzero"/></svg>