<svg xmlns="http://www.w3.org/2000/svg" xmlns:xlink="http://www.w3.org/1999/xlink" width="95" zoomAndPan="magnify" viewBox="0 0 71.25 71.25" height="95" preserveAspectRatio="xMidYMid meet" version="1.0"><defs><filter x="0%" y="0%" width="100%" height="100%" id="8643a293c2"><feColorMatrix values="0 0 0 0 1 0 0 0 0 1 0 0 0 0 1 0 0 0 1 0" color-interpolation-filters="sRGB"/></filter><clipPath id="46a9c8c3c3"><path d="M 0 0 L 70.507812 0 L 70.507812 70.507812 L 0 70.507812 Z M 0 0 " clip-rule="nonzero"/></clipPath><mask id="8661ed678e"><g filter="url(#8643a293c2)"><rect x="-7.125" width="85.5" fill="#000000" y="-7.125" height="85.5" fill-opacity="0.7"/></g></mask><clipPath id="be1f898fbf"><path d="M 0.773438 0.476562 L 43.761719 0.476562 L 43.761719 19.773438 L 0.773438 19.773438 Z M 0.773438 0.476562 " clip-rule="nonzero"/></clipPath><clipPath id="1cbc98a686"><rect x="0" width="44" y="0" height="21"/></clipPath></defs><g clip-path="url(#46a9c8c3c3)"><path fill="#ffffff" d="M 0 0 L 70.507812 0 L 70.507812 70.507812 L 0 70.507812 Z M 0 0 " fill-opacity="1" fill-rule="nonzero"/><path fill="#ffffff" d="M 0 0 L 70.507812 0 L 70.507812 70.507812 L 0 70.507812 Z M 0 0 " fill-opacity="1" fill-rule="nonzero"/></g><g mask="url(#8661ed678e)"><g transform="matrix(1, 0, 0, 1, 13, 25)"><g clip-path="url(#1cbc98a686)"><g clip-path="url(#be1f898fbf)"><path fill="#d60000" d="M 40.71875 3.386719 C 38.839844 1.507812 36.339844 0.480469 33.6875 0.496094 C 31.03125 0.507812 28.546875 1.5625 26.691406 3.460938 L 23.484375 6.734375 L 25.777344 8.933594 L 28.960938 5.683594 C 30.21875 4.398438 31.90625 3.683594 33.707031 3.671875 C 33.71875 3.671875 33.730469 3.671875 33.742188 3.671875 C 35.527344 3.671875 37.207031 4.367188 38.472656 5.632812 C 41.023438 8.183594 41.023438 12.339844 38.472656 14.890625 C 37.207031 16.15625 35.527344 16.851562 33.742188 16.851562 C 33.730469 16.851562 33.71875 16.851562 33.707031 16.851562 C 31.90625 16.839844 30.21875 16.128906 28.960938 14.839844 L 24.476562 10.261719 L 24.480469 10.261719 L 24.476562 10.261719 L 22.253906 7.992188 L 17.816406 3.460938 C 15.960938 1.5625 13.472656 0.507812 10.816406 0.496094 C 8.167969 0.480469 5.667969 1.507812 3.789062 3.386719 C -0.00390625 7.175781 -0.00390625 13.347656 3.789062 17.140625 C 5.652344 19.003906 8.128906 20.027344 10.765625 20.027344 C 10.78125 20.027344 10.800781 20.027344 10.816406 20.027344 C 13.472656 20.015625 15.960938 18.960938 17.816406 17.066406 L 21.023438 13.789062 L 18.730469 11.589844 L 15.546875 14.839844 C 14.285156 16.128906 12.601562 16.839844 10.800781 16.851562 C 10.789062 16.851562 10.777344 16.851562 10.765625 16.851562 C 8.976562 16.851562 7.300781 16.15625 6.035156 14.890625 C 3.484375 12.339844 3.484375 8.183594 6.035156 5.632812 C 7.300781 4.367188 8.976562 3.671875 10.765625 3.671875 C 10.777344 3.671875 10.789062 3.671875 10.800781 3.671875 C 12.601562 3.683594 14.285156 4.398438 15.546875 5.683594 L 20.03125 10.261719 L 22.253906 12.535156 L 26.691406 17.066406 C 28.546875 18.960938 31.03125 20.015625 33.6875 20.027344 C 33.707031 20.027344 33.722656 20.027344 33.742188 20.027344 C 36.378906 20.027344 38.851562 19.003906 40.71875 17.140625 C 44.511719 13.347656 44.511719 7.175781 40.71875 3.386719 " fill-opacity="1" fill-rule="nonzero"/></g></g></g></g></svg>