<svg xmlns="http://www.w3.org/2000/svg" xmlns:xlink="http://www.w3.org/1999/xlink" width="95" zoomAndPan="magnify" viewBox="0 0 71.25 71.25" height="95" preserveAspectRatio="xMidYMid meet" version="1.0"><defs><filter x="0%" y="0%" width="100%" height="100%" id="d8cf187d12"><feColorMatrix values="0 0 0 0 1 0 0 0 0 1 0 0 0 0 1 0 0 0 1 0" color-interpolation-filters="sRGB"/></filter><mask id="95112a6441"><g filter="url(#d8cf187d12)"><rect x="-7.125" width="85.5" fill="#000000" y="-7.125" height="85.5" fill-opacity="0.7"/></g></mask><clipPath id="af265b09de"><path d="M 0.460938 0.613281 L 60 0.613281 L 60 27.925781 L 0.460938 27.925781 Z M 0.460938 0.613281 " clip-rule="nonzero"/></clipPath><clipPath id="0cf1bc270a"><rect x="0" width="61" y="0" height="28"/></clipPath></defs><g mask="url(#95112a6441)"><g transform="matrix(1, 0, 0, 1, 5, 21)"><g clip-path="url(#0cf1bc270a)"><g clip-path="url(#af265b09de)"><path fill="#d60000" d="M 56.011719 4.671875 C 53.390625 2.050781 49.902344 0.617188 46.203125 0.640625 C 42.5 0.660156 39.03125 2.128906 36.441406 4.773438 L 31.96875 9.34375 L 35.167969 12.414062 L 39.609375 7.875 C 41.367188 6.082031 43.71875 5.085938 46.226562 5.074219 C 46.246094 5.074219 46.261719 5.074219 46.277344 5.074219 C 48.769531 5.074219 51.113281 6.042969 52.875 7.808594 C 56.4375 11.367188 56.4375 17.164062 52.875 20.722656 C 51.113281 22.488281 48.769531 23.457031 46.277344 23.457031 C 46.261719 23.457031 46.246094 23.457031 46.226562 23.457031 C 43.71875 23.441406 41.367188 22.449219 39.609375 20.652344 L 33.355469 14.265625 L 33.355469 14.261719 L 33.355469 14.265625 L 30.253906 11.097656 L 24.0625 4.773438 C 21.472656 2.128906 18.003906 0.660156 14.300781 0.640625 C 10.601562 0.617188 7.113281 2.050781 4.492188 4.671875 C -0.796875 9.960938 -0.796875 18.566406 4.492188 23.859375 C 7.09375 26.460938 10.546875 27.890625 14.226562 27.890625 C 14.25 27.890625 14.273438 27.890625 14.300781 27.890625 C 18.003906 27.871094 21.472656 26.402344 24.0625 23.753906 L 28.539062 19.183594 L 25.335938 16.117188 L 20.894531 20.652344 C 19.136719 22.449219 16.789062 23.441406 14.277344 23.457031 C 14.257812 23.457031 14.242188 23.457031 14.226562 23.457031 C 11.734375 23.457031 9.390625 22.488281 7.628906 20.722656 C 4.066406 17.164062 4.066406 11.367188 7.628906 7.808594 C 9.390625 6.042969 11.734375 5.074219 14.226562 5.074219 C 14.242188 5.074219 14.257812 5.074219 14.277344 5.074219 C 16.789062 5.085938 19.136719 6.082031 20.894531 7.875 L 27.148438 14.265625 L 30.253906 17.433594 L 36.441406 23.753906 C 39.03125 26.402344 42.5 27.871094 46.203125 27.890625 C 46.230469 27.890625 46.253906 27.890625 46.28125 27.890625 C 49.957031 27.890625 53.410156 26.460938 56.011719 23.859375 C 61.300781 18.566406 61.300781 9.960938 56.011719 4.671875 " fill-opacity="1" fill-rule="nonzero"/></g></g></g></g></svg>