<svg xmlns="http://www.w3.org/2000/svg" xmlns:xlink="http://www.w3.org/1999/xlink" width="95" zoomAndPan="magnify" viewBox="0 0 71.25 71.25" height="95" preserveAspectRatio="xMidYMid meet" version="1.0"><defs><clipPath id="78afb0e9da"><path d="M 49 7.765625 L 59.226562 7.765625 L 59.226562 62.6875 L 49 62.6875 Z M 49 7.765625 " clip-rule="nonzero"/></clipPath><clipPath id="93dfeea59d"><path d="M 30 7.765625 L 41 7.765625 L 41 62.6875 L 30 62.6875 Z M 30 7.765625 " clip-rule="nonzero"/></clipPath><clipPath id="00607122ed"><path d="M 11 7.765625 L 22 7.765625 L 22 62.6875 L 11 62.6875 Z M 11 7.765625 " clip-rule="nonzero"/></clipPath></defs><g clip-path="url(#78afb0e9da)"><path fill="#e24c4c" d="M 49.464844 12.644531 L 49.464844 57.855469 C 49.464844 60.546875 51.652344 62.734375 54.34375 62.734375 C 57.039062 62.734375 59.222656 60.546875 59.222656 57.855469 L 59.222656 12.644531 C 59.222656 9.949219 57.039062 7.765625 54.34375 7.765625 C 51.652344 7.765625 49.464844 9.949219 49.464844 12.644531 Z M 49.464844 12.644531 " fill-opacity="1" fill-rule="nonzero"/></g><g clip-path="url(#93dfeea59d)"><path fill="#e24c4c" d="M 40.128906 57.855469 L 40.128906 12.644531 C 40.128906 9.949219 37.945312 7.765625 35.253906 7.765625 C 32.558594 7.765625 30.375 9.949219 30.375 12.644531 L 30.375 57.855469 C 30.375 60.546875 32.558594 62.734375 35.253906 62.734375 C 37.945312 62.734375 40.128906 60.546875 40.128906 57.855469 Z M 40.128906 57.855469 " fill-opacity="1" fill-rule="nonzero"/></g><g clip-path="url(#00607122ed)"><path fill="#e24c4c" d="M 21.039062 57.855469 L 21.039062 12.644531 C 21.039062 9.949219 18.855469 7.765625 16.160156 7.765625 C 13.464844 7.765625 11.28125 9.949219 11.28125 12.644531 L 11.28125 57.855469 C 11.28125 60.546875 13.464844 62.734375 16.160156 62.734375 C 18.851562 62.734375 21.039062 60.546875 21.039062 57.855469 Z M 21.039062 57.855469 " fill-opacity="1" fill-rule="nonzero"/></g></svg>