<svg xmlns="http://www.w3.org/2000/svg" xmlns:xlink="http://www.w3.org/1999/xlink" width="95" zoomAndPan="magnify" viewBox="0 0 71.25 71.25" height="95" preserveAspectRatio="xMidYMid meet" version="1.0"><defs><clipPath id="5c57cc7ecb"><path d="M 0 0 L 70.507812 0 L 70.507812 70.507812 L 0 70.507812 Z M 0 0 " clip-rule="nonzero"/></clipPath><clipPath id="947f1e35e6"><path d="M 42 21.148438 L 47.550781 21.148438 L 47.550781 49.351562 L 42 49.351562 Z M 42 21.148438 " clip-rule="nonzero"/></clipPath><clipPath id="0b4ea01b3e"><path d="M 32 21.148438 L 38 21.148438 L 38 49.351562 L 32 49.351562 Z M 32 21.148438 " clip-rule="nonzero"/></clipPath><clipPath id="1f137cf158"><path d="M 23.058594 21.148438 L 28 21.148438 L 28 49.351562 L 23.058594 49.351562 Z M 23.058594 21.148438 " clip-rule="nonzero"/></clipPath></defs><g clip-path="url(#5c57cc7ecb)"><path fill="#ffffff" d="M 0 0 L 70.507812 0 L 70.507812 70.507812 L 0 70.507812 Z M 0 0 " fill-opacity="1" fill-rule="nonzero"/><path fill="#ffffff" d="M 0 0 L 70.507812 0 L 70.507812 70.507812 L 0 70.507812 Z M 0 0 " fill-opacity="1" fill-rule="nonzero"/></g><g clip-path="url(#947f1e35e6)"><path fill="#e24c4c" d="M 42.546875 23.652344 L 42.546875 46.847656 C 42.546875 48.226562 43.667969 49.347656 45.050781 49.347656 C 46.429688 49.347656 47.550781 48.226562 47.550781 46.847656 L 47.550781 23.652344 C 47.550781 22.269531 46.429688 21.148438 45.050781 21.148438 C 43.667969 21.148438 42.546875 22.269531 42.546875 23.652344 Z M 42.546875 23.652344 " fill-opacity="1" fill-rule="nonzero"/></g><g clip-path="url(#0b4ea01b3e)"><path fill="#e24c4c" d="M 37.757812 46.847656 L 37.757812 23.652344 C 37.757812 22.269531 36.636719 21.148438 35.253906 21.148438 C 33.871094 21.148438 32.75 22.269531 32.75 23.652344 L 32.75 46.847656 C 32.75 48.226562 33.871094 49.347656 35.253906 49.347656 C 36.636719 49.347656 37.757812 48.226562 37.757812 46.847656 Z M 37.757812 46.847656 " fill-opacity="1" fill-rule="nonzero"/></g><g clip-path="url(#1f137cf158)"><path fill="#e24c4c" d="M 27.960938 46.847656 L 27.960938 23.652344 C 27.960938 22.269531 26.839844 21.148438 25.457031 21.148438 C 24.078125 21.148438 22.957031 22.269531 22.957031 23.652344 L 22.957031 46.847656 C 22.957031 48.226562 24.078125 49.347656 25.457031 49.347656 C 26.839844 49.347656 27.960938 48.226562 27.960938 46.847656 Z M 27.960938 46.847656 " fill-opacity="1" fill-rule="nonzero"/></g></svg>