<svg xmlns="http://www.w3.org/2000/svg" xmlns:xlink="http://www.w3.org/1999/xlink" width="95" zoomAndPan="magnify" viewBox="0 0 71.25 71.25" height="95" preserveAspectRatio="xMidYMid meet" version="1.0"><defs><clipPath id="5e4a0b65a4"><path d="M 0 0 L 70.507812 0 L 70.507812 70.507812 L 0 70.507812 Z M 0 0 " clip-rule="nonzero"/></clipPath><clipPath id="0102a1d983"><path d="M 21.152344 23.25 L 49.355469 23.25 L 49.355469 45 L 21.152344 45 Z M 21.152344 23.25 " clip-rule="nonzero"/></clipPath><clipPath id="aecd687ead"><path d="M 38 35 L 46 35 L 46 47 L 38 47 Z M 38 35 " clip-rule="nonzero"/></clipPath></defs><g clip-path="url(#5e4a0b65a4)"><path fill="#ffffff" d="M 0 0 L 70.507812 0 L 70.507812 70.507812 L 0 70.507812 Z M 0 0 " fill-opacity="1" fill-rule="nonzero"/><path fill="#ffffff" d="M 0 0 L 70.507812 0 L 70.507812 70.507812 L 0 70.507812 Z M 0 0 " fill-opacity="1" fill-rule="nonzero"/></g><g clip-path="url(#0102a1d983)"><path fill="#e24c4c" d="M 48.636719 23.25 L 21.871094 23.25 C 21.675781 23.25 21.511719 23.320312 21.375 23.457031 C 21.234375 23.59375 21.167969 23.761719 21.167969 23.953125 L 21.167969 43.675781 C 21.167969 43.871094 21.234375 44.035156 21.375 44.171875 C 21.511719 44.3125 21.675781 44.378906 21.871094 44.378906 L 37.367188 44.378906 C 37.5625 44.378906 37.726562 44.3125 37.863281 44.171875 C 38.003906 44.035156 38.070312 43.871094 38.070312 43.675781 C 38.070312 43.480469 38.003906 43.316406 37.863281 43.175781 C 37.726562 43.039062 37.5625 42.972656 37.367188 42.972656 L 22.574219 42.972656 L 22.574219 24.660156 L 47.933594 24.660156 L 47.933594 42.972656 L 45.820312 42.972656 C 45.625 42.972656 45.457031 43.039062 45.320312 43.175781 C 45.183594 43.316406 45.113281 43.480469 45.113281 43.675781 C 45.113281 43.871094 45.183594 44.035156 45.320312 44.171875 C 45.457031 44.3125 45.625 44.378906 45.820312 44.378906 L 48.636719 44.378906 C 48.832031 44.378906 48.996094 44.3125 49.132812 44.171875 C 49.273438 44.035156 49.339844 43.871094 49.339844 43.675781 L 49.339844 23.953125 C 49.339844 23.761719 49.273438 23.59375 49.132812 23.457031 C 48.996094 23.320312 48.832031 23.25 48.636719 23.25 Z M 48.636719 23.25 " fill-opacity="1" fill-rule="nonzero"/></g><g clip-path="url(#aecd687ead)"><path fill="#e24c4c" d="M 45.113281 39.449219 C 45.117188 39.148438 45.078125 38.851562 45.007812 38.5625 C 44.933594 38.269531 44.820312 37.992188 44.675781 37.730469 C 44.53125 37.46875 44.355469 37.226562 44.148438 37.007812 C 43.941406 36.789062 43.710938 36.601562 43.457031 36.441406 C 43.203125 36.285156 42.929688 36.160156 42.644531 36.070312 C 42.355469 35.980469 42.0625 35.925781 41.761719 35.914062 C 41.464844 35.898438 41.164062 35.921875 40.871094 35.984375 C 40.578125 36.046875 40.296875 36.144531 40.027344 36.277344 C 39.757812 36.410156 39.507812 36.574219 39.28125 36.773438 C 39.054688 36.96875 38.859375 37.191406 38.6875 37.441406 C 38.519531 37.6875 38.382812 37.953125 38.28125 38.238281 C 38.179688 38.519531 38.113281 38.808594 38.085938 39.109375 C 38.058594 39.410156 38.070312 39.707031 38.117188 40.003906 C 38.167969 40.300781 38.253906 40.585938 38.375 40.859375 C 38.496094 41.136719 38.652344 41.390625 38.839844 41.625 C 39.027344 41.859375 39.238281 42.066406 39.480469 42.246094 L 39.480469 46.492188 C 39.480469 46.808594 39.625 47.027344 39.914062 47.144531 C 40.207031 47.265625 40.460938 47.214844 40.683594 46.992188 L 41.59375 46.082031 L 42.503906 46.992188 C 42.640625 47.128906 42.808594 47.199219 43 47.199219 C 43.09375 47.195312 43.183594 47.179688 43.269531 47.144531 C 43.558594 47.023438 43.703125 46.808594 43.707031 46.492188 L 43.707031 42.246094 C 44.148438 41.917969 44.492188 41.507812 44.742188 41.015625 C 44.988281 40.523438 45.113281 40 45.113281 39.449219 Z M 42.296875 44.789062 L 42.09375 44.585938 C 41.953125 44.445312 41.789062 44.378906 41.59375 44.378906 C 41.398438 44.378906 41.230469 44.445312 41.09375 44.585938 L 40.886719 44.789062 L 40.886719 42.902344 C 41.359375 42.996094 41.828125 42.996094 42.296875 42.902344 Z M 41.59375 41.5625 C 41.3125 41.5625 41.042969 41.507812 40.785156 41.402344 C 40.527344 41.292969 40.296875 41.140625 40.097656 40.945312 C 39.902344 40.746094 39.746094 40.515625 39.640625 40.257812 C 39.535156 40 39.480469 39.730469 39.480469 39.449219 C 39.480469 39.167969 39.535156 38.898438 39.640625 38.640625 C 39.746094 38.382812 39.902344 38.152344 40.097656 37.957031 C 40.296875 37.757812 40.527344 37.605469 40.785156 37.496094 C 41.042969 37.390625 41.3125 37.335938 41.59375 37.335938 C 41.875 37.335938 42.144531 37.390625 42.402344 37.496094 C 42.660156 37.605469 42.890625 37.757812 43.085938 37.957031 C 43.285156 38.152344 43.4375 38.382812 43.546875 38.640625 C 43.652344 38.898438 43.707031 39.167969 43.707031 39.449219 C 43.707031 39.730469 43.652344 40 43.546875 40.257812 C 43.4375 40.515625 43.285156 40.746094 43.085938 40.945312 C 42.890625 41.140625 42.660156 41.292969 42.402344 41.402344 C 42.144531 41.507812 41.875 41.5625 41.59375 41.5625 Z M 41.59375 41.5625 " fill-opacity="1" fill-rule="nonzero"/></g><path fill="#e24c4c" d="M 26.097656 28.882812 L 44.410156 28.882812 C 44.605469 28.882812 44.769531 28.816406 44.910156 28.679688 C 45.046875 28.539062 45.113281 28.375 45.113281 28.179688 C 45.113281 27.984375 45.046875 27.820312 44.910156 27.683594 C 44.769531 27.542969 44.605469 27.476562 44.410156 27.476562 L 26.097656 27.476562 C 25.902344 27.476562 25.738281 27.542969 25.597656 27.683594 C 25.460938 27.820312 25.394531 27.984375 25.394531 28.179688 C 25.394531 28.375 25.460938 28.539062 25.597656 28.679688 C 25.738281 28.816406 25.902344 28.882812 26.097656 28.882812 Z M 26.097656 28.882812 " fill-opacity="1" fill-rule="nonzero"/><path fill="#e24c4c" d="M 45.113281 30.996094 C 45.113281 30.804688 45.046875 30.636719 44.910156 30.5 C 44.769531 30.363281 44.605469 30.292969 44.410156 30.292969 L 26.097656 30.292969 C 25.902344 30.292969 25.738281 30.363281 25.597656 30.5 C 25.460938 30.636719 25.394531 30.804688 25.394531 30.996094 C 25.394531 31.191406 25.460938 31.359375 25.597656 31.496094 C 25.738281 31.632812 25.902344 31.703125 26.097656 31.703125 L 44.410156 31.703125 C 44.605469 31.703125 44.769531 31.632812 44.910156 31.496094 C 45.046875 31.359375 45.113281 31.191406 45.113281 30.996094 Z M 45.113281 30.996094 " fill-opacity="1" fill-rule="nonzero"/><path fill="#e24c4c" d="M 26.097656 37.335938 C 25.902344 37.335938 25.738281 37.40625 25.597656 37.542969 C 25.460938 37.679688 25.394531 37.847656 25.394531 38.042969 C 25.394531 38.234375 25.460938 38.402344 25.597656 38.539062 C 25.738281 38.675781 25.902344 38.746094 26.097656 38.746094 L 31.730469 38.746094 C 31.925781 38.746094 32.09375 38.675781 32.230469 38.539062 C 32.367188 38.402344 32.4375 38.234375 32.4375 38.042969 C 32.4375 37.847656 32.367188 37.679688 32.230469 37.542969 C 32.09375 37.40625 31.925781 37.335938 31.730469 37.335938 Z M 26.097656 37.335938 " fill-opacity="1" fill-rule="nonzero"/></svg>