<svg xmlns="http://www.w3.org/2000/svg" xmlns:xlink="http://www.w3.org/1999/xlink" width="95" zoomAndPan="magnify" viewBox="0 0 71.25 71.25" height="95" preserveAspectRatio="xMidYMid meet" version="1.0"><defs><clipPath id="2200e8ecd9"><path d="M 10.964844 35.457031 L 22.21875 35.457031 L 22.21875 63.894531 L 10.964844 63.894531 Z M 10.964844 35.457031 " clip-rule="nonzero"/></clipPath><clipPath id="bc7f202809"><path d="M 13.933594 35.457031 L 19.25 35.457031 C 20.886719 35.457031 22.21875 36.785156 22.21875 38.425781 L 22.21875 60.890625 C 22.21875 62.53125 20.886719 63.859375 19.25 63.859375 L 13.933594 63.859375 C 12.292969 63.859375 10.964844 62.53125 10.964844 60.890625 L 10.964844 38.425781 C 10.964844 36.785156 12.292969 35.457031 13.933594 35.457031 Z M 13.933594 35.457031 " clip-rule="nonzero"/></clipPath><clipPath id="7ca32fe85a"><path d="M 29.628906 20.804688 L 40.878906 20.804688 L 40.878906 63.882812 L 29.628906 63.882812 Z M 29.628906 20.804688 " clip-rule="nonzero"/></clipPath><clipPath id="cbfbfe8cb4"><path d="M 32.597656 20.804688 L 37.910156 20.804688 C 39.550781 20.804688 40.878906 22.132812 40.878906 23.773438 L 40.878906 60.890625 C 40.878906 62.53125 39.550781 63.859375 37.910156 63.859375 L 32.597656 63.859375 C 30.957031 63.859375 29.628906 62.53125 29.628906 60.890625 L 29.628906 23.773438 C 29.628906 22.132812 30.957031 20.804688 32.597656 20.804688 Z M 32.597656 20.804688 " clip-rule="nonzero"/></clipPath><clipPath id="4ebc8abdf9"><path d="M 48.289062 7.050781 L 59.542969 7.050781 L 59.542969 63.890625 L 48.289062 63.890625 Z M 48.289062 7.050781 " clip-rule="nonzero"/></clipPath><clipPath id="3e0af1b903"><path d="M 51.257812 7.050781 L 56.574219 7.050781 C 58.214844 7.050781 59.542969 8.378906 59.542969 10.019531 L 59.542969 60.890625 C 59.542969 62.53125 58.214844 63.859375 56.574219 63.859375 L 51.257812 63.859375 C 49.621094 63.859375 48.289062 62.53125 48.289062 60.890625 L 48.289062 10.019531 C 48.289062 8.378906 49.621094 7.050781 51.257812 7.050781 Z M 51.257812 7.050781 " clip-rule="nonzero"/></clipPath></defs><g clip-path="url(#2200e8ecd9)"><g clip-path="url(#bc7f202809)"><path fill="#e24c4c" d="M 10.964844 35.457031 L 22.21875 35.457031 L 22.21875 63.851562 L 10.964844 63.851562 Z M 10.964844 35.457031 " fill-opacity="1" fill-rule="nonzero"/></g></g><g clip-path="url(#7ca32fe85a)"><g clip-path="url(#cbfbfe8cb4)"><path fill="#e0e0e0" d="M 29.628906 20.804688 L 40.878906 20.804688 L 40.878906 63.839844 L 29.628906 63.839844 Z M 29.628906 20.804688 " fill-opacity="1" fill-rule="nonzero"/></g></g><g clip-path="url(#4ebc8abdf9)"><g clip-path="url(#3e0af1b903)"><path fill="#e0e0e0" d="M 48.289062 7.050781 L 59.542969 7.050781 L 59.542969 63.84375 L 48.289062 63.84375 Z M 48.289062 7.050781 " fill-opacity="1" fill-rule="nonzero"/></g></g></svg>