<svg xmlns="http://www.w3.org/2000/svg" xmlns:xlink="http://www.w3.org/1999/xlink" width="95" zoomAndPan="magnify" viewBox="0 0 71.25 71.25" height="95" preserveAspectRatio="xMidYMid meet" version="1.0"><defs><clipPath id="de93a211e8"><path d="M 10.253906 34.230469 L 21.859375 34.230469 L 21.859375 63.496094 L 10.253906 63.496094 Z M 10.253906 34.230469 " clip-rule="nonzero"/></clipPath><clipPath id="248adaddfe"><path d="M 13.269531 34.277344 L 18.890625 34.277344 C 19.679688 34.277344 20.433594 34.589844 20.992188 35.148438 C 21.546875 35.703125 21.859375 36.457031 21.859375 37.246094 L 21.859375 60.488281 C 21.859375 61.277344 21.546875 62.03125 20.992188 62.585938 C 20.433594 63.144531 19.679688 63.457031 18.890625 63.457031 L 13.269531 63.457031 C 12.480469 63.457031 11.726562 63.144531 11.171875 62.585938 C 10.613281 62.03125 10.300781 61.277344 10.300781 60.488281 L 10.300781 37.246094 C 10.300781 36.457031 10.613281 35.703125 11.171875 35.148438 C 11.726562 34.589844 12.480469 34.277344 13.269531 34.277344 Z M 13.269531 34.277344 " clip-rule="nonzero"/></clipPath><clipPath id="69d22fe44c"><path d="M 29.429688 19.179688 L 41.035156 19.179688 L 41.035156 63.480469 L 29.429688 63.480469 Z M 29.429688 19.179688 " clip-rule="nonzero"/></clipPath><clipPath id="06563a42e2"><path d="M 32.441406 19.226562 L 38.066406 19.226562 C 38.851562 19.226562 39.609375 19.539062 40.164062 20.097656 C 40.722656 20.652344 41.035156 21.40625 41.035156 22.195312 L 41.035156 60.488281 C 41.035156 61.277344 40.722656 62.03125 40.164062 62.585938 C 39.609375 63.144531 38.851562 63.457031 38.066406 63.457031 L 32.441406 63.457031 C 31.65625 63.457031 30.898438 63.144531 30.34375 62.585938 C 29.785156 62.03125 29.472656 61.277344 29.472656 60.488281 L 29.472656 22.195312 C 29.472656 21.40625 29.785156 20.652344 30.34375 20.097656 C 30.898438 19.539062 31.65625 19.226562 32.441406 19.226562 Z M 32.441406 19.226562 " clip-rule="nonzero"/></clipPath><clipPath id="dd0858d92c"><path d="M 48.601562 5.050781 L 60.207031 5.050781 L 60.207031 63.488281 L 48.601562 63.488281 Z M 48.601562 5.050781 " clip-rule="nonzero"/></clipPath><clipPath id="a8187a6d0d"><path d="M 51.617188 5.097656 L 57.238281 5.097656 C 58.027344 5.097656 58.78125 5.410156 59.335938 5.96875 C 59.894531 6.523438 60.207031 7.277344 60.207031 8.066406 L 60.207031 60.488281 C 60.207031 61.277344 59.894531 62.03125 59.335938 62.585938 C 58.78125 63.144531 58.027344 63.457031 57.238281 63.457031 L 51.617188 63.457031 C 50.828125 63.457031 50.074219 63.144531 49.515625 62.585938 C 48.960938 62.03125 48.648438 61.277344 48.648438 60.488281 L 48.648438 8.066406 C 48.648438 7.277344 48.960938 6.523438 49.515625 5.96875 C 50.074219 5.410156 50.828125 5.097656 51.617188 5.097656 Z M 51.617188 5.097656 " clip-rule="nonzero"/></clipPath></defs><g clip-path="url(#de93a211e8)"><g clip-path="url(#248adaddfe)"><path fill="#e24c4c" d="M 10.300781 34.277344 L 21.859375 34.277344 L 21.859375 63.449219 L 10.300781 63.449219 Z M 10.300781 34.277344 " fill-opacity="1" fill-rule="nonzero"/></g></g><g clip-path="url(#69d22fe44c)"><g clip-path="url(#06563a42e2)"><path fill="#e24c4c" d="M 29.472656 19.226562 L 41.035156 19.226562 L 41.035156 63.4375 L 29.472656 63.4375 Z M 29.472656 19.226562 " fill-opacity="1" fill-rule="nonzero"/></g></g><g clip-path="url(#dd0858d92c)"><g clip-path="url(#a8187a6d0d)"><path fill="#e0e0e0" d="M 48.648438 5.097656 L 60.207031 5.097656 L 60.207031 63.441406 L 48.648438 63.441406 Z M 48.648438 5.097656 " fill-opacity="1" fill-rule="nonzero"/></g></g></svg>