<svg xmlns="http://www.w3.org/2000/svg" xmlns:xlink="http://www.w3.org/1999/xlink" width="95" zoomAndPan="magnify" viewBox="0 0 71.25 71.25" height="95" preserveAspectRatio="xMidYMid meet" version="1.0"><defs><clipPath id="0125f785e7"><path d="M 0 0 L 70.507812 0 L 70.507812 70.507812 L 0 70.507812 Z M 0 0 " clip-rule="nonzero"/></clipPath><clipPath id="de54ca01e9"><path d="M 22.199219 21.152344 L 48.175781 21.152344 L 48.175781 49.355469 L 22.199219 49.355469 Z M 22.199219 21.152344 " clip-rule="nonzero"/></clipPath></defs><g clip-path="url(#0125f785e7)"><path fill="#ffffff" d="M 0 0 L 70.507812 0 L 70.507812 70.507812 L 0 70.507812 Z M 0 0 " fill-opacity="1" fill-rule="nonzero"/><path fill="#ffffff" d="M 0 0 L 70.507812 0 L 70.507812 70.507812 L 0 70.507812 Z M 0 0 " fill-opacity="1" fill-rule="nonzero"/></g><g clip-path="url(#de54ca01e9)"><path fill="#e24c4c" d="M 22.566406 24.699219 L 35.148438 21.171875 C 35.21875 21.152344 35.289062 21.15625 35.351562 21.171875 L 47.933594 24.699219 C 48.300781 24.800781 48.300781 25.324219 47.933594 25.429688 L 41.21875 27.3125 C 42.339844 28.660156 43.015625 30.390625 43.015625 32.28125 C 43.015625 36.570312 39.539062 40.046875 35.25 40.046875 C 30.960938 40.046875 27.484375 36.570312 27.484375 32.28125 C 27.484375 30.390625 28.160156 28.660156 29.285156 27.3125 L 24.984375 26.105469 L 26.078125 32.527344 C 26.121094 32.777344 25.941406 32.953125 25.707031 32.972656 L 23.070312 32.972656 C 22.800781 32.972656 22.671875 32.75 22.699219 32.503906 L 23.847656 25.789062 L 22.566406 25.429688 C 22.199219 25.324219 22.203125 24.800781 22.566406 24.699219 Z M 28.421875 40.128906 L 30.832031 40.128906 L 35.25 44.375 L 39.667969 40.128906 L 42.082031 40.128906 C 45.269531 40.128906 47.878906 42.738281 47.878906 45.925781 L 47.878906 49.359375 L 22.621094 49.359375 L 22.621094 45.925781 C 22.621094 42.738281 25.230469 40.128906 28.421875 40.128906 Z M 28.421875 40.128906 " fill-opacity="1" fill-rule="evenodd"/></g></svg>