<svg xmlns="http://www.w3.org/2000/svg" xmlns:xlink="http://www.w3.org/1999/xlink" width="95" zoomAndPan="magnify" viewBox="0 0 71.25 71.25" height="95" preserveAspectRatio="xMidYMid meet" version="1.0"><defs><clipPath id="1598a34fd3"><path d="M 0 0 L 70.507812 0 L 70.507812 70.507812 L 0 70.507812 Z M 0 0 " clip-rule="nonzero"/></clipPath><clipPath id="d73d9ecf3c"><path d="M 21.152344 24.855469 L 49.355469 24.855469 L 49.355469 45.636719 L 21.152344 45.636719 Z M 21.152344 24.855469 " clip-rule="nonzero"/></clipPath></defs><g clip-path="url(#1598a34fd3)"><path fill="#ffffff" d="M 0 0 L 70.507812 0 L 70.507812 70.507812 L 0 70.507812 Z M 0 0 " fill-opacity="1" fill-rule="nonzero"/><path fill="#ffffff" d="M 0 0 L 70.507812 0 L 70.507812 70.507812 L 0 70.507812 Z M 0 0 " fill-opacity="1" fill-rule="nonzero"/></g><g clip-path="url(#d73d9ecf3c)"><path fill="#e24c4c" d="M 25.863281 24.855469 C 23.28125 24.855469 21.167969 26.964844 21.167969 29.550781 L 21.167969 40.953125 C 21.167969 43.535156 23.28125 45.648438 25.863281 45.648438 L 44.644531 45.648438 C 47.226562 45.648438 49.339844 43.535156 49.339844 40.953125 L 49.339844 29.550781 C 49.339844 26.964844 47.226562 24.855469 44.644531 24.855469 Z M 25.863281 26.867188 L 44.644531 26.867188 C 46.148438 26.867188 47.328125 28.046875 47.328125 29.550781 L 47.328125 40.953125 C 47.328125 42.457031 46.148438 43.632812 44.644531 43.632812 L 25.863281 43.632812 C 24.359375 43.632812 23.179688 42.457031 23.179688 40.953125 L 23.179688 29.550781 C 23.179688 28.046875 24.359375 26.867188 25.863281 26.867188 Z M 32.9375 29.882812 C 32.800781 29.878906 32.671875 29.902344 32.542969 29.953125 C 32.417969 30 32.304688 30.074219 32.207031 30.167969 C 32.109375 30.261719 32.03125 30.371094 31.980469 30.5 C 31.925781 30.625 31.898438 30.753906 31.898438 30.890625 L 31.898438 39.609375 C 31.898438 39.867188 31.984375 40.09375 32.15625 40.285156 C 32.328125 40.480469 32.542969 40.589844 32.800781 40.617188 C 33.007812 40.640625 33.203125 40.601562 33.386719 40.5 L 41.4375 36.140625 C 41.789062 35.953125 41.964844 35.65625 41.964844 35.253906 C 41.964844 34.855469 41.789062 34.558594 41.4375 34.371094 L 33.386719 30.011719 C 33.25 29.933594 33.097656 29.890625 32.9375 29.882812 Z M 33.914062 32.589844 L 38.839844 35.25 L 33.914062 37.921875 Z M 33.914062 32.589844 " fill-opacity="1" fill-rule="nonzero"/></g></svg>