<svg xmlns="http://www.w3.org/2000/svg" xmlns:xlink="http://www.w3.org/1999/xlink" width="95" zoomAndPan="magnify" viewBox="0 0 71.25 71.25" height="95" preserveAspectRatio="xMidYMid meet" version="1.0"><defs><clipPath id="6d154aa221"><path d="M 0 0 L 70.507812 0 L 70.507812 70.507812 L 0 70.507812 Z M 0 0 " clip-rule="nonzero"/></clipPath><clipPath id="0d29126143"><path d="M 21.152344 21.152344 L 49.355469 21.152344 L 49.355469 49.355469 L 21.152344 49.355469 Z M 21.152344 21.152344 " clip-rule="nonzero"/></clipPath></defs><g clip-path="url(#6d154aa221)"><path fill="#ffffff" d="M 0 0 L 70.507812 0 L 70.507812 70.507812 L 0 70.507812 Z M 0 0 " fill-opacity="1" fill-rule="nonzero"/><path fill="#ffffff" d="M 0 0 L 70.507812 0 L 70.507812 70.507812 L 0 70.507812 Z M 0 0 " fill-opacity="1" fill-rule="nonzero"/></g><g clip-path="url(#0d29126143)"><path fill="#e24c4c" d="M 35.253906 21.152344 C 32.121094 21.152344 29.144531 22.167969 26.699219 24.042969 L 26.699219 23.640625 C 26.699219 23.183594 26.328125 22.8125 25.867188 22.8125 C 25.410156 22.8125 25.039062 23.183594 25.039062 23.640625 C 25.039062 23.648438 25.039062 25.875 25.039062 25.871094 C 25.039062 26.605469 25.933594 26.980469 26.457031 26.457031 C 28.804688 24.105469 31.929688 22.8125 35.253906 22.8125 C 42.113281 22.8125 47.695312 28.394531 47.695312 35.253906 C 47.695312 42.113281 42.113281 47.695312 35.253906 47.695312 C 28.394531 47.695312 22.8125 42.113281 22.8125 35.253906 C 22.8125 33.34375 23.230469 31.511719 24.0625 29.8125 C 24.261719 29.398438 24.089844 28.902344 23.679688 28.703125 C 23.269531 28.5 22.769531 28.671875 22.570312 29.082031 C 21.628906 31.015625 21.152344 33.089844 21.152344 35.253906 C 21.152344 43.046875 27.460938 49.355469 35.253906 49.355469 C 43.046875 49.355469 49.355469 43.046875 49.355469 35.253906 C 49.355469 27.460938 43.046875 21.152344 35.253906 21.152344 Z M 35.253906 21.152344 " fill-opacity="1" fill-rule="nonzero"/></g><path fill="#e24c4c" d="M 35.253906 45.207031 C 40.742188 45.207031 45.207031 40.742188 45.207031 35.253906 C 45.207031 29.765625 40.742188 25.300781 35.253906 25.300781 C 29.765625 25.300781 25.300781 29.765625 25.300781 35.253906 C 25.300781 40.742188 29.765625 45.207031 35.253906 45.207031 Z M 30.589844 37.925781 L 34.425781 34.855469 L 34.425781 30.277344 C 34.425781 29.820312 34.796875 29.449219 35.253906 29.449219 C 35.710938 29.449219 36.082031 29.820312 36.082031 30.277344 L 36.082031 35.253906 C 36.082031 35.507812 35.96875 35.746094 35.773438 35.902344 L 31.625 39.21875 C 31.269531 39.503906 30.746094 39.449219 30.457031 39.089844 C 30.171875 38.730469 30.230469 38.210938 30.589844 37.925781 Z M 30.589844 37.925781 " fill-opacity="1" fill-rule="nonzero"/></svg>