<svg xmlns="http://www.w3.org/2000/svg" xmlns:xlink="http://www.w3.org/1999/xlink" width="95" zoomAndPan="magnify" viewBox="0 0 71.25 71.25" height="95" preserveAspectRatio="xMidYMid meet" version="1.0"><defs><clipPath id="a262bbccd0"><path d="M 10 7.921875 L 60.417969 7.921875 L 60.417969 62.84375 L 10 62.84375 Z M 10 7.921875 " clip-rule="nonzero"/></clipPath></defs><g clip-path="url(#a262bbccd0)"><path fill="#e24c4c" d="M 10.675781 14.792969 L 35.054688 7.960938 C 35.1875 7.921875 35.324219 7.925781 35.453125 7.960938 L 59.828125 14.792969 C 60.546875 14.992188 60.539062 16.007812 59.828125 16.210938 L 46.816406 19.855469 C 48.992188 22.464844 50.300781 25.824219 50.300781 29.488281 C 50.300781 37.796875 43.5625 44.535156 35.253906 44.535156 C 26.941406 44.535156 20.203125 37.796875 20.203125 29.488281 C 20.203125 25.824219 21.515625 22.464844 23.691406 19.855469 L 15.355469 17.519531 L 17.480469 29.964844 C 17.5625 30.449219 17.214844 30.785156 16.753906 30.824219 L 11.648438 30.828125 C 11.125 30.828125 10.875 30.398438 10.929688 29.921875 L 13.15625 16.902344 L 10.675781 16.210938 C 9.960938 16.007812 9.964844 14.996094 10.675781 14.792969 Z M 22.019531 44.691406 L 26.6875 44.691406 L 35.253906 52.925781 L 43.816406 44.691406 L 48.488281 44.691406 C 54.667969 44.691406 59.726562 49.75 59.726562 55.933594 L 59.726562 62.582031 L 10.777344 62.582031 L 10.777344 55.933594 C 10.777344 49.75 15.835938 44.691406 22.019531 44.691406 Z M 22.019531 44.691406 " fill-opacity="1" fill-rule="evenodd"/></g></svg>