<svg xmlns="http://www.w3.org/2000/svg" xmlns:xlink="http://www.w3.org/1999/xlink" width="95" zoomAndPan="magnify" viewBox="0 0 71.25 71.25" height="95" preserveAspectRatio="xMidYMid meet" version="1.0"><defs><clipPath id="4f1ffd6deb"><path d="M 3.941406 7.050781 L 66.28125 7.050781 L 66.28125 60.488281 L 3.941406 60.488281 Z M 3.941406 7.050781 " clip-rule="nonzero"/></clipPath><clipPath id="d290b4d8f1"><path d="M 9.136719 7.050781 L 61.371094 7.050781 C 62.746094 7.050781 64.070312 7.597656 65.042969 8.570312 C 66.015625 9.546875 66.5625 10.867188 66.5625 12.246094 L 66.5625 55.5625 C 66.5625 56.9375 66.015625 58.257812 65.042969 59.234375 C 64.070312 60.207031 62.746094 60.753906 61.371094 60.753906 L 9.136719 60.753906 C 7.757812 60.753906 6.4375 60.207031 5.460938 59.234375 C 4.488281 58.257812 3.941406 56.9375 3.941406 55.5625 L 3.941406 12.246094 C 3.941406 10.867188 4.488281 9.546875 5.460938 8.570312 C 6.4375 7.597656 7.757812 7.050781 9.136719 7.050781 Z M 9.136719 7.050781 " clip-rule="nonzero"/></clipPath><clipPath id="83ba912e2f"><path d="M 12.105469 18 L 63 18 L 63 50 L 12.105469 50 Z M 12.105469 18 " clip-rule="nonzero"/></clipPath></defs><g clip-path="url(#4f1ffd6deb)"><g clip-path="url(#d290b4d8f1)"><path stroke-linecap="butt" transform="matrix(0.742187, 0, 0, 0.742187, 3.940755, 7.050783)" fill="none" stroke-linejoin="miter" d="M 7.000877 -0.00000227083 L 77.379827 -0.00000227083 C 79.232459 -0.00000227083 81.01667 0.73684 82.327196 2.047366 C 83.637722 3.363156 84.374565 5.142103 84.374565 6.999998 L 84.374565 65.363158 C 84.374565 67.21579 83.637722 68.994737 82.327196 70.310527 C 81.01667 71.621053 79.232459 72.357895 77.379827 72.357895 L 7.000877 72.357895 C 5.142982 72.357895 3.364035 71.621053 2.048245 70.310527 C 0.737719 68.994737 0.000876873 67.21579 0.000876873 65.363158 L 0.000876873 6.999998 C 0.000876873 5.142103 0.737719 3.363156 2.048245 2.047366 C 3.364035 0.73684 5.142982 -0.00000227083 7.000877 -0.00000227083 Z M 7.000877 -0.00000227083 " stroke="#ffffff" stroke-width="2" stroke-opacity="1" stroke-miterlimit="4"/></g></g><g clip-path="url(#83ba912e2f)"><path fill="#ffffff" d="M 62.972656 19.484375 C 62.359375 18.855469 60.40625 18.089844 57.808594 18.089844 C 55.578125 18.089844 52.871094 18.65625 50.136719 20.371094 C 46.042969 22.933594 40.933594 27.355469 37.125 30.722656 C 36.121094 30.058594 35.445312 29.609375 35.242188 29.464844 C 34.15625 28.703125 32.316406 28.058594 30.058594 27.859375 C 30.214844 27.515625 30.351562 27.152344 30.457031 26.757812 C 31.503906 22.90625 29.199219 19.761719 24.601562 18.511719 C 20.003906 17.261719 16.417969 18.832031 15.375 22.660156 C 14.328125 26.515625 16.632812 29.65625 21.230469 30.90625 C 22.003906 31.117188 22.863281 31.25 23.445312 31.273438 C 27.105469 31.429688 30.601562 31.335938 31.8125 31.941406 C 32.109375 32.089844 32.84375 32.699219 33.875 33.597656 C 32.839844 34.5 32.109375 35.105469 31.8125 35.253906 C 30.601562 35.859375 27.105469 35.765625 23.445312 35.921875 C 22.863281 35.945312 22.003906 36.078125 21.230469 36.289062 C 16.738281 37.511719 14.4375 40.535156 15.3125 44.269531 C 15.257812 44.324219 15.203125 44.378906 15.148438 44.433594 C 14.183594 45.378906 12.101562 45.167969 12.40625 46.480469 C 12.703125 47.78125 15.527344 47.917969 16.953125 47.34375 C 18.105469 48.496094 19.722656 49.105469 21.648438 49.105469 C 22.570312 49.105469 23.558594 48.96875 24.601562 48.683594 C 29.199219 47.433594 31.503906 44.289062 30.457031 40.4375 C 30.351562 40.042969 30.214844 39.679688 30.058594 39.335938 C 32.316406 39.136719 34.15625 38.492188 35.242188 37.730469 C 36.71875 36.695312 62.972656 19.484375 62.972656 19.484375 Z M 27.601562 25.984375 C 27.058594 27.980469 24.9375 27.773438 22.28125 27.050781 C 19.625 26.328125 17.695312 25.40625 18.234375 23.433594 C 18.769531 21.464844 20.898438 21.644531 23.554688 22.367188 C 26.238281 23.097656 28.144531 23.984375 27.601562 25.984375 Z M 23.554688 44.828125 C 22.457031 45.125 21.449219 45.332031 20.609375 45.332031 C 19.410156 45.332031 18.546875 44.917969 18.234375 43.761719 C 17.695312 41.789062 19.625 40.867188 22.28125 40.144531 C 23.386719 39.84375 24.402344 39.632812 25.246094 39.632812 C 26.429688 39.632812 27.285156 40.046875 27.601562 41.214844 C 28.144531 43.210938 26.238281 44.097656 23.554688 44.828125 Z M 23.554688 44.828125 " fill-opacity="1" fill-rule="nonzero"/></g><path fill="#ffffff" d="M 37.921875 37.175781 C 41.625 40.433594 46.324219 44.4375 50.136719 46.824219 C 56.050781 50.53125 61.832031 48.875 62.972656 47.714844 C 62.972656 47.714844 50.648438 39.632812 42.414062 34.210938 C 40.644531 35.375 39.089844 36.398438 37.921875 37.175781 Z M 37.921875 37.175781 " fill-opacity="1" fill-rule="nonzero"/></svg>