<svg xmlns="http://www.w3.org/2000/svg" xmlns:xlink="http://www.w3.org/1999/xlink" width="95" zoomAndPan="magnify" viewBox="0 0 71.25 71.25" height="95" preserveAspectRatio="xMidYMid meet" version="1.0"><defs><clipPath id="fc11337fbb"><path d="M 8.597656 4.257812 L 62 4.257812 L 62 66.242188 L 8.597656 66.242188 Z M 8.597656 4.257812 " clip-rule="nonzero"/></clipPath></defs><g clip-path="url(#fc11337fbb)"><path fill="#ffffff" d="M 61.609375 21.078125 L 61.605469 21.027344 C 61.578125 20.433594 61.558594 19.804688 61.550781 19.101562 C 61.5 15.683594 58.78125 12.859375 55.363281 12.667969 C 48.238281 12.269531 42.722656 9.945312 38.015625 5.355469 L 37.972656 5.316406 C 36.4375 3.90625 34.121094 3.90625 32.582031 5.316406 L 32.542969 5.355469 C 27.832031 9.945312 22.320312 12.269531 15.191406 12.667969 C 11.773438 12.859375 9.058594 15.683594 9.007812 19.101562 C 8.996094 19.800781 8.976562 20.429688 8.949219 21.027344 L 8.949219 21.140625 C 8.808594 28.410156 8.636719 37.453125 11.664062 45.660156 C 13.328125 50.175781 15.847656 54.101562 19.152344 57.324219 C 22.914062 61 27.847656 63.914062 33.804688 65.992188 C 34 66.0625 34.199219 66.117188 34.40625 66.15625 C 34.695312 66.214844 34.988281 66.242188 35.277344 66.242188 C 35.570312 66.242188 35.859375 66.214844 36.148438 66.15625 C 36.355469 66.117188 36.558594 66.0625 36.753906 65.992188 C 42.707031 63.910156 47.628906 60.992188 51.390625 57.320312 C 54.695312 54.09375 57.214844 50.167969 58.878906 45.652344 C 61.917969 37.417969 61.746094 28.359375 61.609375 21.078125 Z M 55.46875 44.394531 C 52.277344 53.046875 45.761719 58.988281 35.554688 62.558594 C 35.515625 62.570312 35.476562 62.582031 35.4375 62.589844 C 35.332031 62.609375 35.226562 62.609375 35.117188 62.589844 C 35.078125 62.582031 35.039062 62.570312 35.003906 62.558594 C 24.78125 58.996094 18.265625 53.058594 15.074219 44.402344 C 12.289062 36.835938 12.445312 28.535156 12.585938 21.210938 L 12.585938 21.171875 C 12.613281 20.539062 12.632812 19.882812 12.644531 19.15625 C 12.664062 17.640625 13.875 16.382812 15.394531 16.300781 C 19.429688 16.074219 22.972656 15.292969 26.226562 13.917969 C 29.476562 12.539062 32.363281 10.601562 35.054688 7.988281 C 35.191406 7.871094 35.367188 7.871094 35.503906 7.988281 C 38.191406 10.601562 41.078125 12.539062 44.328125 13.917969 C 47.585938 15.292969 51.128906 16.074219 55.160156 16.300781 C 56.683594 16.382812 57.890625 17.640625 57.914062 19.15625 C 57.925781 19.886719 57.941406 20.542969 57.972656 21.171875 C 58.109375 28.503906 58.265625 36.8125 55.46875 44.394531 Z M 55.46875 44.394531 " fill-opacity="1" fill-rule="nonzero"/></g><path fill="#ffffff" d="M 35.277344 19.804688 C 26.757812 19.804688 19.828125 26.734375 19.828125 35.253906 C 19.828125 43.769531 26.757812 50.699219 35.277344 50.699219 C 43.792969 50.699219 50.726562 43.769531 50.726562 35.253906 C 50.726562 26.734375 43.792969 19.804688 35.277344 19.804688 Z M 35.277344 47.0625 C 28.765625 47.0625 23.46875 41.765625 23.46875 35.253906 C 23.46875 28.742188 28.765625 23.441406 35.277344 23.441406 C 41.789062 23.441406 47.085938 28.742188 47.085938 35.253906 C 47.085938 41.765625 41.789062 47.0625 35.277344 47.0625 Z M 35.277344 47.0625 " fill-opacity="1" fill-rule="nonzero"/><path fill="#ffffff" d="M 39.71875 30.457031 L 32.542969 37.632812 L 30.59375 35.683594 C 29.882812 34.972656 28.734375 34.972656 28.023438 35.683594 C 27.3125 36.394531 27.3125 37.546875 28.023438 38.257812 L 31.257812 41.488281 C 31.613281 41.84375 32.078125 42.023438 32.542969 42.023438 C 33.007812 42.023438 33.472656 41.84375 33.828125 41.488281 L 42.289062 33.027344 C 43 32.316406 43 31.167969 42.289062 30.457031 C 41.578125 29.746094 40.425781 29.746094 39.71875 30.457031 Z M 39.71875 30.457031 " fill-opacity="1" fill-rule="nonzero"/></svg>