<svg width="24" height="24" viewBox="0 0 24 24" fill="none" xmlns="http://www.w3.org/2000/svg">
<path opacity="0.4" d="M17.365 3.63399H13.9315C13.0761 3.63964 12.264 3.25914 11.7219 2.59876L10.5912 1.03556C10.0583 0.369382 9.24617 -0.0128978 8.39207 0.00033245H5.9647C1.60787 0.00033245 9.44472e-07 2.55735 9.44472e-07 6.90531V11.6052C-0.00542018 12.1221 23.3282 12.1215 23.3297 11.6052V10.2387C23.3505 5.89079 21.7841 3.63399 17.365 3.63399Z" fill="#A8ADB1"/>
<path fill-rule="evenodd" clip-rule="evenodd" d="M21.9708 5.30071C22.3441 5.73714 22.6325 6.23917 22.8214 6.78109C23.1931 7.89488 23.3652 9.06534 23.3297 10.2388V16.3673C23.3282 16.8835 23.2901 17.399 23.2156 17.9098C23.0738 18.8113 22.7566 19.6764 22.282 20.4565C22.0639 20.8332 21.799 21.1811 21.4937 21.4917C20.1114 22.7603 18.2758 23.4207 16.4003 23.324H6.91905C5.04058 23.42 3.20205 22.7599 1.81534 21.4917C1.51364 21.1805 1.25226 20.8327 1.03734 20.4565C0.565542 19.677 0.255139 18.811 0.124483 17.9098C0.0414043 17.3998 -0.000224808 16.884 1.09981e-06 16.3673V10.2388C-0.000201189 9.72691 0.0275021 9.21545 0.0829893 8.70661C0.0946574 8.61734 0.112159 8.52952 0.129479 8.44261C0.158353 8.29772 0.186723 8.15537 0.186723 8.01301C0.292025 7.39896 0.484119 6.80294 0.757259 6.24277C1.56638 4.51394 3.22612 3.63399 5.94395 3.63399H17.3547C18.8769 3.51626 20.3878 3.97452 21.587 4.91767C21.7251 5.03478 21.8535 5.16288 21.9708 5.30071ZM5.79872 15.7979H17.5414H17.5621C17.8198 15.8091 18.0712 15.7169 18.2603 15.5418C18.4493 15.3668 18.5603 15.1235 18.5684 14.8662C18.5829 14.6401 18.5085 14.4173 18.3609 14.2451C18.1911 14.0137 17.9221 13.8757 17.6348 13.8724H5.79872C5.26592 13.8724 4.834 14.3034 4.834 14.8352C4.834 15.3669 5.26592 15.7979 5.79872 15.7979Z" fill="#A8ADB1"/>
<mask id="mask0" mask-type="alpha" maskUnits="userSpaceOnUse" x="0" y="0" width="24" height="24">
<path opacity="0.4" d="M17.365 3.63399H13.9315C13.0761 3.63964 12.264 3.25914 11.7219 2.59876L10.5912 1.03556C10.0583 0.369382 9.24617 -0.0128978 8.39207 0.00033245H5.9647C1.60787 0.00033245 9.44472e-07 2.55735 9.44472e-07 6.90531V11.6052C-0.00542018 12.1221 23.3282 12.1215 23.3297 11.6052V10.2387C23.3505 5.89079 21.7841 3.63399 17.365 3.63399Z" fill="#A7ACB0" fill-opacity="0.99"/>
<path fill-rule="evenodd" clip-rule="evenodd" d="M21.9708 5.30071C22.3441 5.73714 22.6325 6.23917 22.8214 6.78109C23.1931 7.89488 23.3652 9.06534 23.3297 10.2388V16.3673C23.3282 16.8835 23.2901 17.399 23.2156 17.9098C23.0738 18.8113 22.7566 19.6764 22.282 20.4565C22.0639 20.8332 21.799 21.1811 21.4937 21.4917C20.1114 22.7603 18.2758 23.4207 16.4003 23.324H6.91905C5.04058 23.42 3.20205 22.7599 1.81534 21.4917C1.51364 21.1805 1.25226 20.8327 1.03734 20.4565C0.565542 19.677 0.255139 18.811 0.124483 17.9098C0.0414043 17.3998 -0.000224808 16.884 1.09981e-06 16.3673V10.2388C-0.000201189 9.72691 0.0275021 9.21545 0.0829893 8.70661C0.0946574 8.61734 0.112159 8.52952 0.129479 8.44261C0.158353 8.29772 0.186723 8.15537 0.186723 8.01301C0.292025 7.39896 0.484119 6.80294 0.757259 6.24277C1.56638 4.51394 3.22612 3.63399 5.94395 3.63399H17.3547C18.8769 3.51626 20.3878 3.97452 21.587 4.91767C21.7251 5.03478 21.8535 5.16288 21.9708 5.30071ZM5.79872 15.7979H17.5414H17.5621C17.8198 15.8091 18.0712 15.7169 18.2603 15.5418C18.4493 15.3668 18.5603 15.1235 18.5684 14.8662C18.5829 14.6401 18.5085 14.4173 18.3609 14.2451C18.1911 14.0137 17.9221 13.8757 17.6348 13.8724H5.79872C5.26592 13.8724 4.834 14.3034 4.834 14.8352C4.834 15.3669 5.26592 15.7979 5.79872 15.7979Z" fill="url(#paint0_linear)"/>
</mask>
<g mask="url(#mask0)">
<rect x="-24.3333" y="-16.3333" width="40" height="40" rx="20" fill="url(#paint1_linear)"/>
</g>
<defs>
<linearGradient id="paint0_linear" x1="23.6667" y1="5.16667" x2="-7.33334" y2="33.6667" gradientUnits="userSpaceOnUse">
<stop stop-color="#939393"/>
<stop offset="1" stop-color="#A5A5A5"/>
</linearGradient>
<linearGradient id="paint1_linear" x1="-4.33325" y1="-16.3333" x2="-4.33325" y2="23.6667" gradientUnits="userSpaceOnUse">
<stop stop-color="white" stop-opacity="0.3"/>
<stop offset="1" stop-color="white" stop-opacity="0"/>
</linearGradient>
</defs>
</svg>
