<svg width="28" height="28" viewBox="0 0 28 28" fill="none" xmlns="http://www.w3.org/2000/svg">
<path d="M10.6675 24.2458V20.6678C10.6675 19.7611 11.4048 19.0245 12.318 19.0188H15.6712C16.5885 19.0188 17.3321 19.7571 17.3321 20.6678V20.6678V24.2354C17.3321 25.0218 17.9712 25.6609 18.7633 25.6666H21.051C22.1194 25.6694 23.145 25.2499 23.9015 24.5008C24.658 23.7517 25.0832 22.7345 25.0832 21.6738V11.5101C25.0831 10.6533 24.7006 9.84049 24.0386 9.29075L16.2666 3.11997C14.9081 2.04064 12.9678 2.0755 11.6495 3.20294L4.04468 9.29075C3.35137 9.82429 2.93698 10.6395 2.9165 11.5101V21.6634C2.9165 23.8743 4.72178 25.6666 6.94871 25.6666H9.18417C9.56554 25.6694 9.93224 25.5209 10.2029 25.2542C10.4735 24.9874 10.6257 24.6244 10.6257 24.2458H10.6675Z" fill="#A7ACB0" fill-opacity="0.99"/>
<mask id="mask0" mask-type="alpha" maskUnits="userSpaceOnUse" x="0" y="0" width="28" height="28">
<path d="M10.6675 24.2458V20.6678C10.6675 19.7611 11.4048 19.0245 12.318 19.0188H15.6712C16.5885 19.0188 17.3321 19.7571 17.3321 20.6678V20.6678V24.2354C17.3321 25.0218 17.9712 25.6609 18.7633 25.6666H21.051C22.1194 25.6694 23.145 25.2499 23.9015 24.5008C24.658 23.7517 25.0832 22.7345 25.0832 21.6738V11.5101C25.0831 10.6533 24.7006 9.84049 24.0386 9.29075L16.2666 3.11997C14.9081 2.04064 12.9678 2.0755 11.6495 3.20294L4.04468 9.29075C3.35137 9.82429 2.93698 10.6395 2.9165 11.5101V21.6634C2.9165 23.8743 4.72178 25.6666 6.94871 25.6666H9.18417C9.56554 25.6694 9.93224 25.5209 10.2029 25.2542C10.4735 24.9874 10.6257 24.6244 10.6257 24.2458H10.6675Z" fill="#A8ADB1"/>
</mask>
<g mask="url(#mask0)">
<rect x="-20" y="-17" width="40" height="40" rx="20" fill="url(#paint0_linear)"/>
</g>
<defs>
<linearGradient id="paint0_linear" x1="0" y1="-17" x2="0" y2="23" gradientUnits="userSpaceOnUse">
<stop stop-color="white" stop-opacity="0.4"/>
<stop offset="1" stop-color="white" stop-opacity="0"/>
</linearGradient>
</defs>
</svg>
