<svg width="26" height="26" viewBox="0 0 26 26" fill="none" xmlns="http://www.w3.org/2000/svg">
<path opacity="0.4" d="M19.6969 2.36365H8.66656C4.64312 2.36365 2.36353 4.64324 2.36353 8.66668V19.697C2.36353 23.7099 4.63262 26 8.66656 26H19.6969C23.7203 26 25.9999 23.7099 25.9999 19.697V8.66668C25.9999 4.64324 23.7203 2.36365 19.6969 2.36365Z" fill="#A7ACB0" fill-opacity="0.99"/>
<path d="M17.3333 0H6.30303C2.2796 0 0 2.2796 0 6.30303V17.3333C0 21.3463 2.26909 23.6364 6.30303 23.6364H17.3333C21.3568 23.6364 23.6364 21.3463 23.6364 17.3333V6.30303C23.6364 2.2796 21.3568 0 17.3333 0Z" fill="#A7ACB0" fill-opacity="0.99"/>
<path d="M15 12.0049C15 12.2576 14.9205 12.5113 14.7614 12.7145C14.7315 12.7543 14.5923 12.9186 14.483 13.0255L14.4233 13.0838C13.5881 13.9694 11.5099 15.3011 10.456 15.7278C10.456 15.7375 9.82955 15.9913 9.53125 16H9.49148C9.03409 16 8.60653 15.7482 8.38778 15.34C8.26847 15.1154 8.15909 14.4642 8.14915 14.4554C8.05966 13.8712 8 12.9769 8 11.9951C8 10.9657 8.05966 10.0316 8.16903 9.45808C8.16903 9.44836 8.27841 8.92345 8.34801 8.74848C8.45739 8.49672 8.65625 8.2819 8.90483 8.14581C9.10369 8.04957 9.3125 8 9.53125 8C9.75994 8.01069 10.1875 8.15553 10.3565 8.22357C11.4702 8.65128 13.598 10.051 14.4134 10.9064C14.5526 11.0425 14.7017 11.2087 14.7415 11.2467C14.9105 11.4605 15 11.723 15 12.0049Z" fill="white"/>
<mask id="mask0" mask-type="alpha" maskUnits="userSpaceOnUse" x="0" y="0" width="24" height="24">
<path d="M17.3333 0H6.30303C2.2796 0 0 2.2796 0 6.30303V17.3333C0 21.3463 2.26909 23.6364 6.30303 23.6364H17.3333C21.3568 23.6364 23.6364 21.3463 23.6364 17.3333V6.30303C23.6364 2.2796 21.3568 0 17.3333 0Z" fill="#33C0B8"/>
</mask>
<g mask="url(#mask0)">
<rect width="40" height="40" rx="20" transform="matrix(-1 0 0 1 23 -21)" fill="url(#paint0_linear)"/>
</g>
<defs>
<linearGradient id="paint0_linear" x1="20" y1="0" x2="20" y2="40" gradientUnits="userSpaceOnUse">
<stop stop-color="white" stop-opacity="0.39"/>
<stop offset="1" stop-color="white" stop-opacity="0"/>
</linearGradient>
</defs>
</svg>
