<svg width="21" height="24" viewBox="0 0 21 24" fill="none" xmlns="http://www.w3.org/2000/svg">
<path opacity="0.4" d="M10.5001 12.963C14.1245 12.963 17.0627 10.0611 17.0627 6.48148C17.0627 2.90186 14.1245 0 10.5001 0C6.87567 0 3.9375 2.90186 3.9375 6.48148C3.9375 10.0611 6.87567 12.963 10.5001 12.963Z" fill="#A8ADB1"/>
<path d="M20.9886 19.4551V19.4551C20.9945 19.3628 20.9945 19.2703 20.9886 19.1781C20.9626 18.8372 20.8659 18.5042 20.7038 18.1979C20.0659 16.9513 18.2773 16.3866 16.7849 16.067C15.7202 15.8453 14.6384 15.7028 13.5496 15.6408L12.4104 15.5556H11.8977H11.2598H9.73326H9.0953H8.58266L7.44345 15.6408C6.35467 15.7028 5.27285 15.8453 4.20811 16.067C2.71575 16.344 0.927197 16.9193 0.289241 18.1979C0.127147 18.5042 0.0304116 18.8372 0.00444006 19.1781C-0.00148002 19.2703 -0.00148002 19.3628 0.00444006 19.4551V19.4551C-0.00102584 19.5474 -0.00102584 19.6399 0.00444006 19.7321C0.0354265 20.0701 0.136004 20.3994 0.300634 20.7017C0.938589 21.9483 2.72714 22.5129 4.2195 22.8326C5.28622 23.0439 6.36722 23.1863 7.45485 23.2588L8.59405 23.3333H8.86746H9.10669H11.9091H12.1484H12.4218L13.561 23.2588C14.6486 23.1863 15.7296 23.0439 16.7963 22.8326C18.2887 22.5449 20.0772 21.9802 20.7152 20.7017C20.8722 20.3898 20.9686 20.0543 21 19.7108C21.0014 19.6254 20.9976 19.5401 20.9886 19.4551Z" fill="#A8ADB1"/>
<mask id="mask0" mask-type="alpha" maskUnits="userSpaceOnUse" x="0" y="0" width="22" height="24">
<path opacity="0.4" d="M10.5001 12.963C14.1245 12.963 17.0627 10.0611 17.0627 6.48148C17.0627 2.90186 14.1245 0 10.5001 0C6.87567 0 3.9375 2.90186 3.9375 6.48148C3.9375 10.0611 6.87567 12.963 10.5001 12.963Z" fill="#939393"/>
<path d="M20.9886 19.4551V19.4551C20.9945 19.3628 20.9945 19.2703 20.9886 19.1781C20.9626 18.8372 20.8659 18.5042 20.7038 18.1979C20.0659 16.9513 18.2773 16.3866 16.7849 16.067C15.7202 15.8453 14.6384 15.7028 13.5496 15.6408L12.4104 15.5556H11.8977H11.2598H9.73326H9.0953H8.58266L7.44345 15.6408C6.35467 15.7028 5.27285 15.8453 4.20811 16.067C2.71575 16.344 0.927197 16.9193 0.289241 18.1979C0.127147 18.5042 0.0304116 18.8372 0.00444006 19.1781C-0.00148002 19.2703 -0.00148002 19.3628 0.00444006 19.4551V19.4551C-0.00102584 19.5474 -0.00102584 19.6399 0.00444006 19.7321C0.0354265 20.0701 0.136004 20.3994 0.300634 20.7017C0.938589 21.9483 2.72714 22.5129 4.2195 22.8326C5.28622 23.0439 6.36722 23.1863 7.45485 23.2588L8.59405 23.3333H8.86746H9.10669H11.9091H12.1484H12.4218L13.561 23.2588C14.6486 23.1863 15.7296 23.0439 16.7963 22.8326C18.2887 22.5449 20.0772 21.9802 20.7152 20.7017C20.8722 20.3898 20.9686 20.0543 21 19.7108C21.0014 19.6254 20.9976 19.5401 20.9886 19.4551Z" fill="#939393"/>
</mask>
<g mask="url(#mask0)">
<rect x="-27" y="-17" width="40" height="40" rx="20" fill="url(#paint0_linear)"/>
</g>
<defs>
<linearGradient id="paint0_linear" x1="-7" y1="-27" x2="-14.5" y2="32" gradientUnits="userSpaceOnUse">
<stop stop-color="white" stop-opacity="0.24"/>
<stop offset="1" stop-color="white" stop-opacity="0"/>
</linearGradient>
</defs>
</svg>
