<svg xmlns="http://www.w3.org/2000/svg" xmlns:xlink="http://www.w3.org/1999/xlink" width="95" zoomAndPan="magnify" viewBox="0 0 71.25 71.25" height="95" preserveAspectRatio="xMidYMid meet" version="1.0"><defs><clipPath id="254f5767df"><path d="M 10.332031 24 L 36 24 L 36 60.089844 L 10.332031 60.089844 Z M 10.332031 24 " clip-rule="nonzero"/></clipPath><clipPath id="7edddeab14"><path d="M 35 24 L 60.058594 24 L 60.058594 60.089844 L 35 60.089844 Z M 35 24 " clip-rule="nonzero"/></clipPath><clipPath id="dccafd55f9"><path d="M 26 24 L 44 24 L 44 60.089844 L 26 60.089844 Z M 26 24 " clip-rule="nonzero"/></clipPath><clipPath id="3d5c7835bb"><path d="M 43 10.363281 L 60.058594 10.363281 L 60.058594 25 L 43 25 Z M 43 10.363281 " clip-rule="nonzero"/></clipPath><clipPath id="a55c279f16"><path d="M 10.332031 10.363281 L 27 10.363281 L 27 25 L 10.332031 25 Z M 10.332031 10.363281 " clip-rule="nonzero"/></clipPath><clipPath id="47242d985b"><path d="M 26 10.363281 L 44 10.363281 L 44 25 L 26 25 Z M 26 10.363281 " clip-rule="nonzero"/></clipPath><clipPath id="ddfa3c8a8e"><path d="M 35 10.363281 L 52 10.363281 L 52 25 L 35 25 Z M 35 10.363281 " clip-rule="nonzero"/></clipPath><clipPath id="903ccd3edc"><path d="M 18 10.363281 L 36 10.363281 L 36 25 L 18 25 Z M 18 10.363281 " clip-rule="nonzero"/></clipPath></defs><g clip-path="url(#254f5767df)"><path fill="#ff4247" d="M 26.898438 24.628906 L 10.339844 24.636719 L 35.183594 60.082031 Z M 26.898438 24.628906 " fill-opacity="1" fill-rule="nonzero"/></g><g clip-path="url(#7edddeab14)"><path fill="#800a0d" d="M 43.457031 24.636719 L 60.058594 24.628906 L 35.167969 60.058594 Z M 43.457031 24.636719 " fill-opacity="1" fill-rule="nonzero"/></g><g clip-path="url(#dccafd55f9)"><path fill="#ff1319" d="M 26.84375 24.628906 L 43.457031 24.628906 L 35.183594 60.074219 Z M 26.84375 24.628906 " fill-opacity="1" fill-rule="nonzero"/></g><g clip-path="url(#3d5c7835bb)"><path fill="#bf0e13" d="M 51.746094 24.644531 L 60.050781 24.644531 L 51.746094 10.472656 L 43.441406 24.644531 Z M 51.746094 24.644531 " fill-opacity="1" fill-rule="nonzero"/></g><g clip-path="url(#a55c279f16)"><path fill="#f6bdbe" d="M 18.59375 24.636719 L 26.84375 24.636719 L 22.714844 17.523438 L 18.59375 10.398438 L 14.464844 17.523438 L 10.332031 24.636719 Z M 18.59375 24.636719 " fill-opacity="1" fill-rule="nonzero"/></g><g clip-path="url(#47242d985b)"><path fill="#ff7175" d="M 35.167969 24.621094 L 43.535156 24.621094 L 39.351562 17.515625 L 35.167969 10.40625 L 30.984375 17.515625 L 26.800781 24.621094 Z M 35.167969 24.621094 " fill-opacity="1" fill-rule="nonzero"/></g><g clip-path="url(#ddfa3c8a8e)"><path fill="#ff4247" d="M 43.457031 10.40625 L 35.152344 10.40625 L 39.304688 17.535156 L 43.457031 24.667969 L 47.609375 17.535156 L 51.769531 10.40625 Z M 43.457031 10.40625 " fill-opacity="1" fill-rule="nonzero"/></g><g clip-path="url(#903ccd3edc)"><path fill="#ffa1a3" d="M 26.851562 10.375 L 18.601562 10.398438 L 22.714844 17.523438 L 26.851562 24.667969 L 30.992188 17.523438 L 35.136719 10.421875 Z M 26.851562 10.375 " fill-opacity="1" fill-rule="nonzero"/></g></svg>