<svg xmlns="http://www.w3.org/2000/svg" xmlns:xlink="http://www.w3.org/1999/xlink" width="95" zoomAndPan="magnify" viewBox="0 0 71.25 71.25" height="95" preserveAspectRatio="xMidYMid meet" version="1.0"><defs><clipPath id="b486514b2c"><path d="M 16 31 L 54 31 L 54 58.410156 L 16 58.410156 Z M 16 31 " clip-rule="nonzero"/></clipPath><clipPath id="c84111460d"><path d="M 15.097656 29 L 55.175781 29 L 55.175781 41 L 15.097656 41 Z M 15.097656 29 " clip-rule="nonzero"/></clipPath><clipPath id="daf5537d08"><path d="M 15.097656 26 L 55.175781 26 L 55.175781 34 L 15.097656 34 Z M 15.097656 26 " clip-rule="nonzero"/></clipPath><clipPath id="e44670a18b"><path d="M 27 12.394531 L 35 12.394531 L 35 28 L 27 28 Z M 27 12.394531 " clip-rule="nonzero"/></clipPath><clipPath id="2d43d1ef42"><path d="M 17 12.394531 L 35 12.394531 L 35 29 L 17 29 Z M 17 12.394531 " clip-rule="nonzero"/></clipPath><clipPath id="3d1fc9eb92"><path d="M 35 12.394531 L 43 12.394531 L 43 28 L 35 28 Z M 35 12.394531 " clip-rule="nonzero"/></clipPath><clipPath id="3f6589968f"><path d="M 35 12.394531 L 53 12.394531 L 53 29 L 35 29 Z M 35 12.394531 " clip-rule="nonzero"/></clipPath></defs><g clip-path="url(#b486514b2c)"><path fill="#be6421" d="M 53.882812 51.886719 L 35.144531 58.402344 L 16.402344 51.886719 L 16.402344 33.902344 L 53.882812 31.78125 L 53.882812 51.886719 " fill-opacity="1" fill-rule="nonzero"/></g><path fill="#ee2630" d="M 42.835938 55.726562 L 47.398438 54.140625 L 47.398438 32.148438 L 42.835938 32.40625 L 42.835938 55.726562 " fill-opacity="1" fill-rule="nonzero"/><path fill="#ee2630" d="M 22.207031 53.90625 L 26.769531 55.492188 L 26.769531 33.316406 L 22.207031 33.574219 L 22.207031 53.90625 " fill-opacity="1" fill-rule="nonzero"/><g clip-path="url(#c84111460d)"><path fill="#f6832b" d="M 55.160156 36.101562 L 35.144531 40.894531 L 15.128906 36.101562 L 15.128906 29.765625 L 55.160156 29.765625 L 55.160156 36.101562 " fill-opacity="1" fill-rule="nonzero"/></g><path fill="#ee2630" d="M 48.011719 37.859375 L 43.449219 38.953125 L 43.449219 30.023438 L 48.011719 30.023438 L 48.011719 37.859375 " fill-opacity="1" fill-rule="nonzero"/><path fill="#ee2630" d="M 21.390625 37.601562 L 25.953125 38.695312 L 25.953125 29.765625 L 21.390625 29.765625 L 21.390625 37.601562 " fill-opacity="1" fill-rule="nonzero"/><g clip-path="url(#daf5537d08)"><path fill="#fac08c" d="M 15.128906 29.769531 L 35.550781 26.460938 L 55.160156 29.769531 L 35.277344 33.902344 L 15.128906 29.769531 " fill-opacity="1" fill-rule="nonzero"/></g><path fill="#ee2630" d="M 21.390625 31.054688 L 35.144531 28.074219 L 36.675781 28.074219 L 25.953125 32.148438 L 21.390625 31.054688 " fill-opacity="1" fill-rule="nonzero"/><path fill="#ee2630" d="M 48.011719 31.253906 L 34.257812 28.144531 L 32.726562 28.144531 L 43.449219 32.21875 L 48.011719 31.253906 " fill-opacity="1" fill-rule="nonzero"/><path fill="#d91e25" d="M 33.5625 27.757812 C 33.5625 27.757812 22.683594 24.929688 17.679688 27.070312 L 19.925781 28.453125 C 19.925781 28.453125 19.421875 28.875 18.398438 30.441406 C 18.398438 30.441406 27.671875 29.125 33.847656 28.355469 L 33.5625 27.757812 " fill-opacity="1" fill-rule="nonzero"/><path fill="#d91e25" d="M 36.375 27.546875 C 36.375 27.546875 47.253906 24.71875 52.257812 26.859375 L 50.011719 28.246094 C 50.011719 28.246094 50.519531 28.667969 51.542969 30.230469 C 51.542969 30.230469 42.269531 28.914062 36.089844 28.144531 L 36.375 27.546875 " fill-opacity="1" fill-rule="nonzero"/><g clip-path="url(#e44670a18b)"><path fill="#d91e25" d="M 28.914062 12.386719 C 28.914062 12.386719 33.238281 13.007812 34.222656 27.070312 C 34.222656 27.070312 24.421875 17.453125 28.914062 12.386719 " fill-opacity="1" fill-rule="nonzero"/></g><g clip-path="url(#2d43d1ef42)"><path fill="#ee2630" d="M 32.894531 28.453125 L 34.222656 27.070312 C 34.222656 27.070312 27.789062 20.421875 28.914062 12.386719 C 28.914062 12.386719 20.503906 14.765625 17.679688 21.175781 C 17.679688 21.175781 18.496094 24.152344 32.894531 28.453125 " fill-opacity="1" fill-rule="nonzero"/></g><path fill="#d91f25" d="M 34.222656 27.070312 C 34.222656 27.070312 32.894531 25.695312 31.550781 23.445312 C 31.550781 23.445312 31.550781 23.445312 31.550781 23.441406 C 32.894531 25.695312 34.222656 27.070312 34.222656 27.070312 " fill-opacity="1" fill-rule="nonzero"/><path fill="#ee222c" d="M 32.894531 28.453125 C 18.496094 24.152344 17.679688 21.175781 17.679688 21.175781 C 17.683594 21.171875 17.683594 21.167969 17.683594 21.164062 C 17.882812 20.714844 18.109375 20.289062 18.359375 19.882812 C 20.1875 21.4375 23.945312 24.117188 28.097656 24.117188 C 29.226562 24.117188 30.390625 23.917969 31.550781 23.445312 C 32.894531 25.695312 34.222656 27.070312 34.222656 27.070312 L 32.894531 28.453125 " fill-opacity="1" fill-rule="nonzero"/><g clip-path="url(#3d1fc9eb92)"><path fill="#d91e25" d="M 41.214844 12.386719 C 41.214844 12.386719 36.886719 13.007812 35.902344 27.070312 C 35.902344 27.070312 45.703125 17.453125 41.214844 12.386719 " fill-opacity="1" fill-rule="nonzero"/></g><g clip-path="url(#3f6589968f)"><path fill="#ee2630" d="M 37.230469 28.453125 L 35.902344 27.070312 C 35.902344 27.070312 42.335938 20.421875 41.214844 12.386719 C 41.214844 12.386719 49.625 14.765625 52.445312 21.175781 C 52.445312 21.175781 51.628906 24.152344 37.230469 28.453125 " fill-opacity="1" fill-rule="nonzero"/></g><path fill="#d91f25" d="M 35.902344 27.070312 C 35.902344 27.070312 37.230469 25.695312 38.574219 23.441406 C 38.574219 23.445312 38.574219 23.445312 38.578125 23.445312 C 37.230469 25.695312 35.902344 27.070312 35.902344 27.070312 " fill-opacity="1" fill-rule="nonzero"/><path fill="#ee222c" d="M 37.230469 28.453125 L 35.902344 27.070312 C 35.902344 27.070312 37.230469 25.695312 38.578125 23.445312 C 39.734375 23.917969 40.898438 24.117188 42.03125 24.117188 C 46.183594 24.117188 49.941406 21.4375 51.769531 19.882812 C 52.019531 20.292969 52.246094 20.722656 52.445312 21.175781 C 52.445312 21.175781 51.902344 23.164062 43.84375 26.238281 C 42.128906 26.890625 40.078125 27.59375 37.617188 28.335938 C 37.492188 28.375 37.359375 28.414062 37.230469 28.453125 " fill-opacity="1" fill-rule="nonzero"/><path fill="#ee2630" d="M 32.726562 28.597656 C 32.726562 28.597656 34.621094 29.496094 37.492188 28.382812 C 37.492188 28.382812 37.171875 26.527344 34.820312 26.578125 C 34.820312 26.578125 32.660156 26.898438 32.726562 28.597656 " fill-opacity="1" fill-rule="nonzero"/></svg>