<svg width="306" height="280" viewBox="0 0 306 280" fill="none" xmlns="http://www.w3.org/2000/svg">
<circle cx="155" cy="149" r="131" fill="#E3ECF1" fill-opacity="0.9"/>
<g filter="url(#filter0_d)">
<rect x="65" y="118" width="184" height="83" rx="8" fill="white"/>
</g>
<rect x="74" y="142" width="165" height="7" rx="3.5" fill="#979DAC" fill-opacity="0.4"/>
<rect x="75" y="160" width="108" height="7" rx="3.5" fill="#979DAC" fill-opacity="0.4"/>
<rect width="39.8462" height="6.99577" rx="3.49789" transform="matrix(0.00739028 0.999973 0.999973 -0.00739028 239 0.0517578)" fill="#CED6DE" fill-opacity="0.5"/>
<rect width="39.8462" height="6.99577" rx="3.49789" transform="matrix(-0.685135 0.728416 0.728416 0.685135 281.301 18)" fill="#CED6DE" fill-opacity="0.5"/>
<rect width="39.8462" height="6.99577" rx="3.49789" transform="matrix(-0.999997 -0.00252825 -0.00252825 0.999997 305.863 62.1006)" fill="#CED6DE" fill-opacity="0.5"/>
<rect width="39.8462" height="6.99577" rx="3.49789" transform="matrix(-0.999997 -0.00252825 -0.00252825 0.999997 39.8633 146.101)" fill="white"/>
<rect width="39.8462" height="6.99577" rx="3.49789" transform="matrix(-0.999997 -0.00252825 -0.00252825 0.999997 253.863 253.101)" fill="white"/>
<rect width="14.0705" height="2.55827" rx="1.27913" transform="matrix(0.707107 -0.707107 -0.707107 -0.707107 275.881 248.829)" fill="#747D92"/>
<rect width="14.0705" height="2.55827" rx="1.27913" transform="matrix(0.707107 0.707107 0.707107 -0.707107 274.07 238.88)" fill="#747D92"/>
<rect width="14.0705" height="2.55827" rx="1.27913" transform="matrix(0.707107 -0.707107 -0.707107 -0.707107 29.8809 43.8291)" fill="#C8C8C8"/>
<rect width="14.0705" height="2.55827" rx="1.27913" transform="matrix(0.707107 0.707107 0.707107 -0.707107 28.0703 33.8799)" fill="#C8C8C8"/>
<circle cx="40" cy="274" r="4.5" stroke="#BBCFFE" stroke-width="3"/>
<path d="M65 100C65 95.5817 68.5817 92 73 92H241C245.418 92 249 95.5817 249 100V123H65V100Z" fill="#979DAC"/>
<rect x="75" y="100" width="117" height="7" rx="3.5" fill="#D0DEFF" fill-opacity="0.23"/>
<defs>
<filter id="filter0_d" x="45" y="102" width="224" height="123" filterUnits="userSpaceOnUse" color-interpolation-filters="sRGB">
<feFlood flood-opacity="0" result="BackgroundImageFix"/>
<feColorMatrix in="SourceAlpha" type="matrix" values="0 0 0 0 0 0 0 0 0 0 0 0 0 0 0 0 0 0 127 0"/>
<feOffset dy="4"/>
<feGaussianBlur stdDeviation="10"/>
<feColorMatrix type="matrix" values="0 0 0 0 0 0 0 0 0 0.0853334 0 0 0 0 0.533333 0 0 0 0.05 0"/>
<feBlend mode="normal" in2="BackgroundImageFix" result="effect1_dropShadow"/>
<feBlend mode="normal" in="SourceGraphic" in2="effect1_dropShadow" result="shape"/>
</filter>
</defs>
</svg>
