<svg xmlns="http://www.w3.org/2000/svg" xmlns:xlink="http://www.w3.org/1999/xlink" width="95" zoomAndPan="magnify" viewBox="0 0 71.25 71.25" height="95" preserveAspectRatio="xMidYMid meet" version="1.0"><defs><filter x="0%" y="0%" width="100%" height="100%" id="b5336b9aed"><feColorMatrix values="0 0 0 0 1 0 0 0 0 1 0 0 0 0 1 0 0 0 1 0" color-interpolation-filters="sRGB"/></filter><clipPath id="247be40c5c"><path d="M 0 0 L 70.507812 0 L 70.507812 70.507812 L 0 70.507812 Z M 0 0 " clip-rule="nonzero"/></clipPath><mask id="2c83fb622a"><g filter="url(#b5336b9aed)"><rect x="-7.125" width="85.5" fill="#000000" y="-7.125" height="85.5" fill-opacity="0.5"/></g></mask><clipPath id="4795fd6821"><path d="M 0 0 L 70.507812 0 L 70.507812 70.507812 L 0 70.507812 Z M 0 0 " clip-rule="nonzero"/></clipPath><clipPath id="41c88f453e"><path d="M 7.421875 0 L 63.085938 0 C 65.054688 0 66.941406 0.78125 68.335938 2.171875 C 69.726562 3.566406 70.507812 5.453125 70.507812 7.421875 L 70.507812 63.085938 C 70.507812 65.054688 69.726562 66.941406 68.335938 68.335938 C 66.941406 69.726562 65.054688 70.507812 63.085938 70.507812 L 7.421875 70.507812 C 5.453125 70.507812 3.566406 69.726562 2.171875 68.335938 C 0.78125 66.941406 0 65.054688 0 63.085938 L 0 7.421875 C 0 5.453125 0.78125 3.566406 2.171875 2.171875 C 3.566406 0.78125 5.453125 0 7.421875 0 Z M 7.421875 0 " clip-rule="nonzero"/></clipPath><clipPath id="91010cc466"><rect x="0" width="71" y="0" height="71"/></clipPath><clipPath id="7d7a4d54c3"><path d="M 9 13.460938 L 61.53125 13.460938 L 61.53125 57 L 9 57 Z M 9 13.460938 " clip-rule="nonzero"/></clipPath></defs><g clip-path="url(#247be40c5c)"><path fill="#ffffff" d="M 0 0 L 70.507812 0 L 70.507812 70.507812 L 0 70.507812 Z M 0 0 " fill-opacity="1" fill-rule="nonzero"/><path fill="#ffffff" d="M 0 0 L 70.507812 0 L 70.507812 70.507812 L 0 70.507812 Z M 0 0 " fill-opacity="1" fill-rule="nonzero"/><g mask="url(#2c83fb622a)"><g transform="matrix(1, 0, 0, 1, 0, -0.000000000000008569)"><g clip-path="url(#91010cc466)"><g clip-path="url(#4795fd6821)"><g clip-path="url(#41c88f453e)"><path fill="#f8a179" d="M 0 0 L 70.507812 0 L 70.507812 70.507812 L 0 70.507812 Z M 0 0 " fill-opacity="1" fill-rule="nonzero"/></g></g></g></g></g></g><g clip-path="url(#7d7a4d54c3)"><path fill="#ffffff" d="M 35.925781 13.667969 C 31.714844 13.53125 27.457031 14.679688 23.78125 17.132812 C 19.65625 19.890625 16.773438 23.960938 15.441406 28.515625 C 15.078125 28.46875 14.636719 28.488281 14.117188 28.636719 C 12.167969 29.1875 10.703125 30.785156 10.042969 32.191406 C 9.191406 34.023438 8.828125 36.445312 9.210938 38.945312 C 9.585938 41.4375 10.640625 43.492188 11.957031 44.769531 C 13.277344 46.046875 14.769531 46.460938 16.253906 46.148438 C 18.460938 45.679688 19.554688 45.324219 19.246094 43.269531 L 17.75 33.304688 C 18.050781 27.914062 20.84375 22.835938 25.511719 19.714844 C 31.761719 15.539062 39.957031 15.804688 45.917969 20.382812 C 50.066406 23.5625 52.476562 28.328125 52.753906 33.328125 L 51.707031 40.300781 C 49.375 46.683594 43.589844 51.105469 36.898438 51.734375 L 32.441406 51.734375 C 31.292969 51.734375 30.367188 52.660156 30.367188 53.808594 L 30.367188 54.902344 C 30.367188 56.050781 31.292969 56.980469 32.441406 56.980469 L 38.058594 56.980469 C 39.210938 56.980469 40.132812 56.050781 40.132812 54.902344 L 40.132812 54.332031 C 45.179688 53.097656 49.582031 49.996094 52.453125 45.671875 L 54.25 46.148438 C 55.714844 46.53125 57.226562 46.046875 58.546875 44.769531 C 59.863281 43.492188 60.917969 41.4375 61.292969 38.945312 C 61.675781 36.445312 61.304688 34.027344 60.460938 32.191406 C 59.613281 30.355469 58.351562 29.191406 56.894531 28.773438 C 56.28125 28.597656 55.621094 28.53125 55.050781 28.515625 C 53.851562 24.398438 51.375 20.652344 47.8125 17.921875 C 44.308594 15.230469 40.140625 13.808594 35.925781 13.667969 Z M 35.925781 13.667969 " fill-opacity="1" fill-rule="evenodd"/></g><path fill="#ffffff" d="M 42.503906 31.597656 C 43.988281 31.597656 45.191406 32.800781 45.195312 34.289062 C 45.191406 35.773438 43.988281 36.980469 42.503906 36.980469 C 41.011719 36.980469 39.804688 35.773438 39.804688 34.289062 C 39.804688 32.800781 41.011719 31.597656 42.503906 31.597656 Z M 35.25 31.597656 C 36.738281 31.597656 37.945312 32.800781 37.945312 34.289062 C 37.945312 35.773438 36.738281 36.980469 35.25 36.980469 C 33.761719 36.980469 32.558594 35.773438 32.558594 34.289062 C 32.558594 32.800781 33.761719 31.597656 35.25 31.597656 Z M 28.003906 31.597656 C 29.488281 31.597656 30.695312 32.800781 30.695312 34.289062 C 30.695312 35.773438 29.488281 36.980469 28.003906 36.980469 C 26.515625 36.980469 25.308594 35.773438 25.308594 34.289062 C 25.308594 32.800781 26.515625 31.597656 28.003906 31.597656 Z M 35.25 20.03125 C 27.355469 20.03125 20.992188 26.183594 20.992188 34.289062 C 20.992188 38.183594 22.460938 41.625 24.859375 44.148438 L 24.007812 47.964844 C 23.730469 49.21875 24.601562 50.0625 25.726562 49.433594 L 29.453125 47.355469 C 31.222656 48.125 33.183594 48.550781 35.25 48.550781 C 43.152344 48.550781 49.511719 42.398438 49.511719 34.289062 C 49.511719 26.183594 43.152344 20.03125 35.25 20.03125 Z M 35.25 20.03125 " fill-opacity="1" fill-rule="evenodd"/></svg>