<svg xmlns="http://www.w3.org/2000/svg" xmlns:xlink="http://www.w3.org/1999/xlink" width="95" zoomAndPan="magnify" viewBox="0 0 71.25 71.25" height="95" preserveAspectRatio="xMidYMid meet" version="1.0"><defs><filter x="0%" y="0%" width="100%" height="100%" id="34247067a4"><feColorMatrix values="0 0 0 0 1 0 0 0 0 1 0 0 0 0 1 0 0 0 1 0" color-interpolation-filters="sRGB"/></filter><clipPath id="5e668ad894"><path d="M 0 0 L 70.507812 0 L 70.507812 70.507812 L 0 70.507812 Z M 0 0 " clip-rule="nonzero"/></clipPath><mask id="a82f016d45"><g filter="url(#34247067a4)"><rect x="-7.125" width="85.5" fill="#000000" y="-7.125" height="85.5" fill-opacity="0.5"/></g></mask><clipPath id="cd87aab78c"><path d="M 0 0 L 70.507812 0 L 70.507812 70.507812 L 0 70.507812 Z M 0 0 " clip-rule="nonzero"/></clipPath><clipPath id="fa2f213dcb"><path d="M 7.421875 0 L 63.085938 0 C 65.054688 0 66.941406 0.78125 68.335938 2.171875 C 69.726562 3.566406 70.507812 5.453125 70.507812 7.421875 L 70.507812 63.085938 C 70.507812 65.054688 69.726562 66.941406 68.335938 68.335938 C 66.941406 69.726562 65.054688 70.507812 63.085938 70.507812 L 7.421875 70.507812 C 5.453125 70.507812 3.566406 69.726562 2.171875 68.335938 C 0.78125 66.941406 0 65.054688 0 63.085938 L 0 7.421875 C 0 5.453125 0.78125 3.566406 2.171875 2.171875 C 3.566406 0.78125 5.453125 0 7.421875 0 Z M 7.421875 0 " clip-rule="nonzero"/></clipPath><clipPath id="81506a1981"><rect x="0" width="71" y="0" height="71"/></clipPath><clipPath id="cb6523b51d"><path d="M 9.371094 13.222656 L 61.324219 13.222656 L 61.324219 52 L 9.371094 52 Z M 9.371094 13.222656 " clip-rule="nonzero"/></clipPath><clipPath id="c8443fa3de"><path d="M 40 36 L 54 36 L 54 57.011719 L 40 57.011719 Z M 40 36 " clip-rule="nonzero"/></clipPath></defs><g clip-path="url(#5e668ad894)"><g mask="url(#a82f016d45)"><g transform="matrix(1, 0, 0, 1, 0, -0.000000000000008569)"><g clip-path="url(#81506a1981)"><g clip-path="url(#cd87aab78c)"><g clip-path="url(#fa2f213dcb)"><path fill="#f8a179" d="M 0 0 L 70.507812 0 L 70.507812 70.507812 L 0 70.507812 Z M 0 0 " fill-opacity="1" fill-rule="nonzero"/></g></g></g></g></g></g><g clip-path="url(#cb6523b51d)"><path fill="#ffffff" d="M 59.808594 13.222656 L 10.6875 13.222656 C 10.515625 13.222656 10.351562 13.253906 10.195312 13.320312 C 10.035156 13.386719 9.894531 13.476562 9.773438 13.597656 C 9.652344 13.71875 9.558594 13.859375 9.496094 14.019531 C 9.429688 14.175781 9.394531 14.34375 9.394531 14.511719 L 9.394531 50.707031 C 9.394531 50.878906 9.429688 51.042969 9.496094 51.203125 C 9.558594 51.359375 9.652344 51.5 9.773438 51.621094 C 9.894531 51.742188 10.035156 51.835938 10.195312 51.902344 C 10.351562 51.96875 10.515625 52 10.6875 52 L 39.125 52 C 39.296875 52 39.464844 51.96875 39.621094 51.902344 C 39.78125 51.835938 39.917969 51.742188 40.039062 51.621094 C 40.160156 51.5 40.253906 51.359375 40.320312 51.203125 C 40.386719 51.042969 40.417969 50.878906 40.417969 50.707031 C 40.417969 50.535156 40.386719 50.371094 40.320312 50.214844 C 40.253906 50.054688 40.160156 49.914062 40.039062 49.792969 C 39.917969 49.671875 39.78125 49.578125 39.621094 49.511719 C 39.464844 49.449219 39.296875 49.414062 39.125 49.414062 L 11.980469 49.414062 L 11.980469 15.804688 L 58.515625 15.804688 L 58.515625 49.414062 L 54.636719 49.414062 C 54.46875 49.414062 54.300781 49.449219 54.144531 49.511719 C 53.984375 49.578125 53.84375 49.671875 53.722656 49.792969 C 53.601562 49.914062 53.511719 50.054688 53.445312 50.214844 C 53.378906 50.371094 53.347656 50.535156 53.347656 50.707031 C 53.347656 50.878906 53.378906 51.042969 53.445312 51.203125 C 53.511719 51.359375 53.601562 51.5 53.722656 51.621094 C 53.84375 51.742188 53.984375 51.835938 54.144531 51.902344 C 54.300781 51.96875 54.46875 52 54.636719 52 L 59.808594 52 C 59.980469 52 60.144531 51.96875 60.304688 51.902344 C 60.460938 51.835938 60.601562 51.742188 60.722656 51.621094 C 60.84375 51.5 60.9375 51.359375 61.003906 51.203125 C 61.070312 51.042969 61.101562 50.878906 61.101562 50.707031 L 61.101562 14.511719 C 61.101562 14.34375 61.070312 14.175781 61.003906 14.019531 C 60.9375 13.859375 60.84375 13.71875 60.722656 13.597656 C 60.601562 13.476562 60.460938 13.386719 60.304688 13.320312 C 60.144531 13.253906 59.980469 13.222656 59.808594 13.222656 Z M 59.808594 13.222656 " fill-opacity="1" fill-rule="nonzero"/></g><g clip-path="url(#c8443fa3de)"><path fill="#ffffff" d="M 53.347656 42.953125 C 53.347656 42.675781 53.332031 42.402344 53.296875 42.128906 C 53.265625 41.859375 53.214844 41.589844 53.144531 41.324219 C 53.078125 41.054688 52.992188 40.796875 52.894531 40.539062 C 52.792969 40.285156 52.675781 40.035156 52.542969 39.796875 C 52.410156 39.554688 52.261719 39.324219 52.101562 39.101562 C 51.9375 38.882812 51.761719 38.671875 51.574219 38.472656 C 51.386719 38.273438 51.183594 38.085938 50.972656 37.910156 C 50.757812 37.738281 50.535156 37.578125 50.304688 37.433594 C 50.070312 37.289062 49.828125 37.15625 49.578125 37.042969 C 49.328125 36.929688 49.074219 36.828125 48.8125 36.746094 C 48.550781 36.664062 48.28125 36.601562 48.011719 36.554688 C 47.742188 36.503906 47.46875 36.472656 47.195312 36.460938 C 46.921875 36.449219 46.648438 36.453125 46.371094 36.472656 C 46.097656 36.496094 45.828125 36.535156 45.558594 36.589844 C 45.289062 36.648438 45.027344 36.71875 44.765625 36.808594 C 44.507812 36.898438 44.253906 37.003906 44.007812 37.128906 C 43.761719 37.25 43.523438 37.386719 43.296875 37.539062 C 43.066406 37.691406 42.851562 37.859375 42.640625 38.039062 C 42.433594 38.21875 42.238281 38.410156 42.058594 38.617188 C 41.875 38.820312 41.707031 39.039062 41.550781 39.265625 C 41.394531 39.492188 41.253906 39.726562 41.128906 39.96875 C 41.003906 40.214844 40.894531 40.464844 40.800781 40.726562 C 40.710938 40.984375 40.632812 41.246094 40.574219 41.515625 C 40.515625 41.78125 40.472656 42.054688 40.445312 42.328125 C 40.421875 42.601562 40.414062 42.875 40.421875 43.148438 C 40.433594 43.425781 40.460938 43.695312 40.503906 43.96875 C 40.550781 44.238281 40.613281 44.503906 40.691406 44.769531 C 40.769531 45.03125 40.863281 45.289062 40.976562 45.539062 C 41.085938 45.792969 41.214844 46.035156 41.355469 46.269531 C 41.5 46.503906 41.65625 46.730469 41.828125 46.945312 C 42 47.160156 42.183594 47.363281 42.378906 47.554688 C 42.578125 47.746094 42.785156 47.921875 43.003906 48.085938 L 43.003906 55.878906 C 43.003906 56.140625 43.074219 56.378906 43.222656 56.597656 C 43.367188 56.816406 43.558594 56.976562 43.800781 57.078125 C 44.042969 57.179688 44.292969 57.203125 44.550781 57.152344 C 44.808594 57.097656 45.027344 56.980469 45.214844 56.792969 L 46.882812 55.125 L 48.550781 56.792969 C 48.804688 57.046875 49.109375 57.171875 49.46875 57.171875 C 49.636719 57.167969 49.800781 57.136719 49.960938 57.078125 C 50.203125 56.976562 50.394531 56.816406 50.542969 56.597656 C 50.6875 56.378906 50.757812 56.140625 50.761719 55.878906 L 50.761719 48.085938 C 51.570312 47.484375 52.207031 46.730469 52.660156 45.824219 C 53.117188 44.921875 53.34375 43.964844 53.347656 42.953125 Z M 48.175781 52.753906 L 47.800781 52.375 C 47.679688 52.253906 47.539062 52.160156 47.378906 52.09375 C 47.21875 52.027344 47.054688 51.996094 46.882812 51.996094 C 46.710938 51.996094 46.546875 52.027344 46.386719 52.09375 C 46.226562 52.160156 46.085938 52.253906 45.964844 52.375 L 45.589844 52.753906 L 45.589844 49.285156 C 46.453125 49.460938 47.3125 49.460938 48.175781 49.285156 Z M 46.882812 46.828125 C 46.367188 46.828125 45.875 46.730469 45.398438 46.535156 C 44.921875 46.335938 44.503906 46.058594 44.140625 45.695312 C 43.777344 45.332031 43.496094 44.910156 43.300781 44.4375 C 43.101562 43.960938 43.003906 43.464844 43.003906 42.953125 C 43.003906 42.4375 43.101562 41.941406 43.300781 41.46875 C 43.496094 40.992188 43.777344 40.574219 44.140625 40.210938 C 44.503906 39.847656 44.921875 39.566406 45.398438 39.367188 C 45.875 39.171875 46.367188 39.074219 46.882812 39.074219 C 47.398438 39.074219 47.890625 39.171875 48.367188 39.367188 C 48.839844 39.566406 49.261719 39.847656 49.625 40.210938 C 49.988281 40.574219 50.269531 40.992188 50.464844 41.46875 C 50.660156 41.941406 50.761719 42.4375 50.761719 42.953125 C 50.761719 43.464844 50.660156 43.960938 50.464844 44.4375 C 50.269531 44.910156 49.988281 45.332031 49.625 45.695312 C 49.261719 46.058594 48.839844 46.335938 48.367188 46.535156 C 47.890625 46.730469 47.398438 46.828125 46.882812 46.828125 Z M 46.882812 46.828125 " fill-opacity="1" fill-rule="nonzero"/></g><path fill="#ffffff" d="M 18.445312 23.5625 L 52.054688 23.5625 C 52.222656 23.5625 52.390625 23.527344 52.546875 23.464844 C 52.707031 23.398438 52.847656 23.304688 52.96875 23.183594 C 53.089844 23.0625 53.183594 22.921875 53.246094 22.765625 C 53.3125 22.605469 53.347656 22.441406 53.347656 22.269531 C 53.347656 22.097656 53.3125 21.933594 53.246094 21.773438 C 53.183594 21.617188 53.089844 21.476562 52.96875 21.355469 C 52.847656 21.234375 52.707031 21.140625 52.546875 21.074219 C 52.390625 21.007812 52.222656 20.976562 52.054688 20.976562 L 18.445312 20.976562 C 18.273438 20.976562 18.109375 21.007812 17.949219 21.074219 C 17.792969 21.140625 17.652344 21.234375 17.53125 21.355469 C 17.410156 21.476562 17.316406 21.617188 17.25 21.773438 C 17.183594 21.933594 17.152344 22.097656 17.152344 22.269531 C 17.152344 22.441406 17.183594 22.605469 17.25 22.765625 C 17.316406 22.921875 17.410156 23.0625 17.53125 23.183594 C 17.652344 23.304688 17.792969 23.398438 17.949219 23.464844 C 18.109375 23.527344 18.273438 23.5625 18.445312 23.5625 Z M 18.445312 23.5625 " fill-opacity="1" fill-rule="nonzero"/><path fill="#ffffff" d="M 53.347656 27.441406 C 53.347656 27.269531 53.3125 27.105469 53.246094 26.945312 C 53.183594 26.785156 53.089844 26.648438 52.96875 26.527344 C 52.847656 26.40625 52.707031 26.3125 52.546875 26.246094 C 52.390625 26.179688 52.222656 26.148438 52.054688 26.148438 L 18.445312 26.148438 C 18.273438 26.148438 18.109375 26.179688 17.949219 26.246094 C 17.792969 26.3125 17.652344 26.40625 17.53125 26.527344 C 17.410156 26.648438 17.316406 26.785156 17.25 26.945312 C 17.183594 27.105469 17.152344 27.269531 17.152344 27.441406 C 17.152344 27.613281 17.183594 27.777344 17.25 27.933594 C 17.316406 28.09375 17.410156 28.234375 17.53125 28.355469 C 17.652344 28.476562 17.792969 28.570312 17.949219 28.632812 C 18.109375 28.699219 18.273438 28.734375 18.445312 28.734375 L 52.054688 28.734375 C 52.222656 28.734375 52.390625 28.699219 52.546875 28.632812 C 52.707031 28.570312 52.847656 28.476562 52.96875 28.355469 C 53.089844 28.234375 53.183594 28.09375 53.246094 27.933594 C 53.3125 27.777344 53.347656 27.613281 53.347656 27.441406 Z M 53.347656 27.441406 " fill-opacity="1" fill-rule="nonzero"/><path fill="#ffffff" d="M 18.445312 39.074219 C 18.273438 39.074219 18.109375 39.105469 17.949219 39.171875 C 17.792969 39.238281 17.652344 39.332031 17.53125 39.453125 C 17.410156 39.574219 17.316406 39.714844 17.25 39.871094 C 17.183594 40.03125 17.152344 40.195312 17.152344 40.367188 C 17.152344 40.539062 17.183594 40.703125 17.25 40.859375 C 17.316406 41.019531 17.410156 41.160156 17.53125 41.28125 C 17.652344 41.402344 17.792969 41.496094 17.949219 41.5625 C 18.109375 41.625 18.273438 41.660156 18.445312 41.660156 L 28.785156 41.660156 C 28.957031 41.660156 29.121094 41.625 29.28125 41.5625 C 29.4375 41.496094 29.578125 41.402344 29.699219 41.28125 C 29.820312 41.160156 29.914062 41.019531 29.980469 40.859375 C 30.046875 40.703125 30.078125 40.539062 30.078125 40.367188 C 30.078125 40.195312 30.046875 40.03125 29.980469 39.871094 C 29.914062 39.714844 29.820312 39.574219 29.699219 39.453125 C 29.578125 39.332031 29.4375 39.238281 29.28125 39.171875 C 29.121094 39.105469 28.957031 39.074219 28.785156 39.074219 Z M 18.445312 39.074219 " fill-opacity="1" fill-rule="nonzero"/></svg>