<svg xmlns="http://www.w3.org/2000/svg" xmlns:xlink="http://www.w3.org/1999/xlink" width="95" zoomAndPan="magnify" viewBox="0 0 71.25 71.25" height="95" preserveAspectRatio="xMidYMid meet" version="1.0"><defs><filter x="0%" y="0%" width="100%" height="100%" id="a64bb4c186"><feColorMatrix values="0 0 0 0 1 0 0 0 0 1 0 0 0 0 1 0 0 0 1 0" color-interpolation-filters="sRGB"/></filter><clipPath id="afe12aedfe"><path d="M 0 0 L 70.507812 0 L 70.507812 70.507812 L 0 70.507812 Z M 0 0 " clip-rule="nonzero"/></clipPath><mask id="75a08111dd"><g filter="url(#a64bb4c186)"><rect x="-7.125" width="85.5" fill="#000000" y="-7.125" height="85.5" fill-opacity="0.5"/></g></mask><clipPath id="e43b8de1f0"><path d="M 0 0 L 70.507812 0 L 70.507812 70.507812 L 0 70.507812 Z M 0 0 " clip-rule="nonzero"/></clipPath><clipPath id="504d704b4a"><path d="M 7.421875 0 L 63.085938 0 C 65.054688 0 66.941406 0.78125 68.335938 2.171875 C 69.726562 3.566406 70.507812 5.453125 70.507812 7.421875 L 70.507812 63.085938 C 70.507812 65.054688 69.726562 66.941406 68.335938 68.335938 C 66.941406 69.726562 65.054688 70.507812 63.085938 70.507812 L 7.421875 70.507812 C 5.453125 70.507812 3.566406 69.726562 2.171875 68.335938 C 0.78125 66.941406 0 65.054688 0 63.085938 L 0 7.421875 C 0 5.453125 0.78125 3.566406 2.171875 2.171875 C 3.566406 0.78125 5.453125 0 7.421875 0 Z M 7.421875 0 " clip-rule="nonzero"/></clipPath><clipPath id="8915bbe701"><rect x="0" width="71" y="0" height="71"/></clipPath><clipPath id="4f7b936479"><path d="M 15.210938 9.558594 L 55.289062 9.558594 L 55.289062 60.769531 L 15.210938 60.769531 Z M 15.210938 9.558594 " clip-rule="nonzero"/></clipPath><clipPath id="96c670f388"><path d="M 15.210938 9.558594 L 55.289062 9.558594 L 55.289062 60.769531 L 15.210938 60.769531 Z M 15.210938 9.558594 " clip-rule="nonzero"/></clipPath></defs><g clip-path="url(#afe12aedfe)"><g mask="url(#75a08111dd)"><g transform="matrix(1, 0, 0, 1, 0, -0.000000000000008569)"><g clip-path="url(#8915bbe701)"><g clip-path="url(#e43b8de1f0)"><g clip-path="url(#504d704b4a)"><path fill="#f8a179" d="M 0 0 L 70.507812 0 L 70.507812 70.507812 L 0 70.507812 Z M 0 0 " fill-opacity="1" fill-rule="nonzero"/></g></g></g></g></g></g><g clip-path="url(#4f7b936479)"><path fill="#ffffff" d="M 23.890625 9.703125 L 15.40625 16.855469 C 15.273438 16.964844 15.207031 17.105469 15.210938 17.28125 L 15.210938 60.363281 C 15.210938 60.515625 15.265625 60.648438 15.375 60.753906 C 15.480469 60.863281 15.613281 60.917969 15.765625 60.917969 L 54.742188 60.917969 C 54.894531 60.917969 55.023438 60.863281 55.132812 60.753906 C 55.242188 60.648438 55.296875 60.515625 55.296875 60.363281 L 55.296875 10.125 C 55.296875 9.972656 55.242188 9.839844 55.132812 9.730469 C 55.023438 9.625 54.894531 9.570312 54.742188 9.570312 L 24.25 9.570312 C 24.113281 9.566406 23.992188 9.613281 23.890625 9.699219 Z M 52.777344 58.398438 L 18.269531 58.398438 C 18.117188 58.398438 17.988281 58.34375 17.878906 58.238281 C 17.773438 58.128906 17.71875 58 17.71875 57.84375 L 17.71875 18.453125 C 17.714844 18.28125 17.78125 18.140625 17.914062 18.03125 L 24.804688 12.21875 C 24.90625 12.128906 25.023438 12.085938 25.160156 12.089844 L 52.214844 12.089844 C 52.367188 12.089844 52.496094 12.140625 52.605469 12.25 C 52.714844 12.359375 52.769531 12.488281 52.769531 12.640625 L 52.769531 58.398438 Z M 52.777344 58.398438 " fill-opacity="1" fill-rule="evenodd"/></g><path fill="#ffffff" d="M 24.578125 20.382812 L 45.90625 20.382812 C 46.054688 20.382812 46.195312 20.410156 46.328125 20.464844 C 46.464844 20.523438 46.585938 20.601562 46.6875 20.703125 C 46.792969 20.808594 46.871094 20.929688 46.925781 21.0625 C 46.984375 21.199219 47.011719 21.339844 47.011719 21.484375 L 47.011719 21.792969 C 47.011719 21.941406 46.984375 22.082031 46.925781 22.21875 C 46.871094 22.351562 46.792969 22.472656 46.6875 22.574219 C 46.585938 22.679688 46.464844 22.757812 46.328125 22.816406 C 46.195312 22.871094 46.054688 22.898438 45.90625 22.898438 L 24.578125 22.898438 C 24.433594 22.898438 24.292969 22.871094 24.15625 22.816406 C 24.019531 22.757812 23.902344 22.679688 23.796875 22.574219 C 23.695312 22.472656 23.613281 22.351562 23.558594 22.21875 C 23.503906 22.082031 23.472656 21.941406 23.472656 21.792969 L 23.472656 21.484375 C 23.472656 21.339844 23.503906 21.199219 23.558594 21.0625 C 23.613281 20.929688 23.695312 20.808594 23.796875 20.703125 C 23.902344 20.601562 24.019531 20.523438 24.15625 20.464844 C 24.292969 20.410156 24.433594 20.382812 24.578125 20.382812 Z M 24.578125 20.382812 " fill-opacity="1" fill-rule="nonzero"/><path fill="#ffffff" d="M 24.578125 27.179688 L 45.90625 27.179688 C 46.054688 27.179688 46.195312 27.207031 46.328125 27.265625 C 46.464844 27.320312 46.585938 27.402344 46.6875 27.503906 C 46.792969 27.609375 46.871094 27.726562 46.925781 27.863281 C 46.984375 27.996094 47.011719 28.140625 47.011719 28.285156 L 47.011719 28.59375 C 47.011719 28.738281 46.984375 28.882812 46.925781 29.015625 C 46.871094 29.152344 46.792969 29.269531 46.6875 29.375 C 46.585938 29.476562 46.464844 29.558594 46.328125 29.613281 C 46.195312 29.667969 46.054688 29.699219 45.90625 29.699219 L 24.578125 29.699219 C 24.433594 29.699219 24.292969 29.667969 24.15625 29.613281 C 24.019531 29.558594 23.902344 29.476562 23.796875 29.375 C 23.695312 29.269531 23.613281 29.152344 23.558594 29.015625 C 23.503906 28.882812 23.472656 28.738281 23.472656 28.59375 L 23.472656 28.285156 C 23.472656 28.140625 23.503906 27.996094 23.558594 27.863281 C 23.613281 27.726562 23.695312 27.609375 23.796875 27.503906 C 23.902344 27.402344 24.019531 27.320312 24.15625 27.265625 C 24.292969 27.207031 24.433594 27.179688 24.578125 27.179688 Z M 24.578125 27.179688 " fill-opacity="1" fill-rule="nonzero"/><path fill="#ffffff" d="M 24.578125 33.980469 L 45.90625 33.980469 C 46.054688 33.980469 46.195312 34.007812 46.328125 34.0625 C 46.464844 34.121094 46.585938 34.199219 46.6875 34.304688 C 46.792969 34.40625 46.871094 34.527344 46.925781 34.660156 C 46.984375 34.796875 47.011719 34.9375 47.011719 35.085938 L 47.011719 35.394531 C 47.011719 35.539062 46.984375 35.679688 46.925781 35.816406 C 46.871094 35.949219 46.792969 36.070312 46.6875 36.171875 C 46.585938 36.277344 46.464844 36.355469 46.328125 36.414062 C 46.195312 36.46875 46.054688 36.496094 45.90625 36.496094 L 24.578125 36.496094 C 24.433594 36.496094 24.292969 36.46875 24.15625 36.414062 C 24.019531 36.355469 23.902344 36.277344 23.796875 36.171875 C 23.695312 36.070312 23.613281 35.949219 23.558594 35.816406 C 23.503906 35.679688 23.472656 35.539062 23.472656 35.394531 L 23.472656 35.085938 C 23.472656 34.9375 23.503906 34.796875 23.558594 34.660156 C 23.613281 34.527344 23.695312 34.40625 23.796875 34.304688 C 23.902344 34.199219 24.019531 34.121094 24.15625 34.0625 C 24.292969 34.007812 24.433594 33.980469 24.578125 33.980469 Z M 24.578125 33.980469 " fill-opacity="1" fill-rule="nonzero"/><path fill="#ffffff" d="M 24.402344 40.789062 L 42.289062 40.789062 C 42.796875 40.789062 43.214844 41.285156 43.214844 41.894531 L 43.214844 42.203125 C 43.214844 42.808594 42.796875 43.304688 42.289062 43.304688 L 24.402344 43.304688 C 23.890625 43.304688 23.472656 42.808594 23.472656 42.203125 L 23.472656 41.894531 C 23.472656 41.285156 23.890625 40.789062 24.402344 40.789062 Z M 24.402344 40.789062 " fill-opacity="1" fill-rule="evenodd"/><path fill="#ffffff" d="M 24.488281 47.589844 L 44.097656 47.589844 C 44.238281 47.59375 44.371094 47.628906 44.5 47.6875 C 44.625 47.746094 44.738281 47.828125 44.832031 47.933594 C 44.929688 48.035156 45 48.152344 45.046875 48.285156 C 45.097656 48.417969 45.117188 48.554688 45.113281 48.691406 L 45.113281 49 C 45.117188 49.140625 45.097656 49.277344 45.046875 49.410156 C 45 49.542969 44.929688 49.660156 44.832031 49.761719 C 44.738281 49.867188 44.625 49.945312 44.5 50.007812 C 44.371094 50.066406 44.238281 50.097656 44.097656 50.105469 L 24.488281 50.105469 C 24.347656 50.097656 24.214844 50.066406 24.089844 50.007812 C 23.960938 49.945312 23.847656 49.867188 23.753906 49.761719 C 23.660156 49.660156 23.585938 49.542969 23.539062 49.410156 C 23.492188 49.277344 23.46875 49.140625 23.472656 49 L 23.472656 48.691406 C 23.46875 48.554688 23.492188 48.417969 23.539062 48.285156 C 23.585938 48.152344 23.660156 48.035156 23.753906 47.933594 C 23.847656 47.828125 23.960938 47.746094 24.089844 47.6875 C 24.214844 47.628906 24.347656 47.59375 24.488281 47.589844 Z M 24.488281 47.589844 " fill-opacity="1" fill-rule="evenodd"/><g clip-path="url(#96c670f388)"><path fill="#ffffff" d="M 23.890625 9.703125 L 15.40625 16.855469 C 15.273438 16.964844 15.207031 17.105469 15.210938 17.28125 L 15.210938 60.363281 C 15.210938 60.515625 15.265625 60.648438 15.375 60.753906 C 15.480469 60.863281 15.613281 60.917969 15.765625 60.917969 L 54.742188 60.917969 C 54.894531 60.917969 55.023438 60.863281 55.132812 60.753906 C 55.242188 60.648438 55.296875 60.515625 55.296875 60.363281 L 55.296875 10.125 C 55.296875 9.972656 55.242188 9.839844 55.132812 9.730469 C 55.023438 9.625 54.894531 9.570312 54.742188 9.570312 L 24.25 9.570312 C 24.113281 9.566406 23.992188 9.613281 23.890625 9.699219 Z M 52.777344 58.398438 L 18.269531 58.398438 C 18.117188 58.398438 17.988281 58.34375 17.878906 58.238281 C 17.773438 58.128906 17.71875 58 17.71875 57.84375 L 17.71875 18.453125 C 17.714844 18.28125 17.78125 18.140625 17.914062 18.03125 L 24.804688 12.21875 C 24.90625 12.128906 25.023438 12.085938 25.160156 12.089844 L 52.214844 12.089844 C 52.367188 12.089844 52.496094 12.140625 52.605469 12.25 C 52.714844 12.359375 52.769531 12.488281 52.769531 12.640625 L 52.769531 58.398438 Z M 52.777344 58.398438 " fill-opacity="1" fill-rule="evenodd"/></g><path fill="#ffffff" d="M 24.578125 20.382812 L 45.90625 20.382812 C 46.054688 20.382812 46.195312 20.410156 46.328125 20.464844 C 46.464844 20.523438 46.585938 20.601562 46.6875 20.703125 C 46.792969 20.808594 46.871094 20.929688 46.925781 21.0625 C 46.984375 21.199219 47.011719 21.339844 47.011719 21.484375 L 47.011719 21.792969 C 47.011719 21.941406 46.984375 22.082031 46.925781 22.21875 C 46.871094 22.351562 46.792969 22.472656 46.6875 22.574219 C 46.585938 22.679688 46.464844 22.757812 46.328125 22.816406 C 46.195312 22.871094 46.054688 22.898438 45.90625 22.898438 L 24.578125 22.898438 C 24.433594 22.898438 24.292969 22.871094 24.15625 22.816406 C 24.019531 22.757812 23.902344 22.679688 23.796875 22.574219 C 23.695312 22.472656 23.613281 22.351562 23.558594 22.21875 C 23.503906 22.082031 23.472656 21.941406 23.472656 21.792969 L 23.472656 21.484375 C 23.472656 21.339844 23.503906 21.199219 23.558594 21.0625 C 23.613281 20.929688 23.695312 20.808594 23.796875 20.703125 C 23.902344 20.601562 24.019531 20.523438 24.15625 20.464844 C 24.292969 20.410156 24.433594 20.382812 24.578125 20.382812 Z M 24.578125 20.382812 " fill-opacity="1" fill-rule="nonzero"/><path fill="#ffffff" d="M 24.578125 27.179688 L 45.90625 27.179688 C 46.054688 27.179688 46.195312 27.207031 46.328125 27.265625 C 46.464844 27.320312 46.585938 27.402344 46.6875 27.503906 C 46.792969 27.609375 46.871094 27.726562 46.925781 27.863281 C 46.984375 27.996094 47.011719 28.140625 47.011719 28.285156 L 47.011719 28.59375 C 47.011719 28.738281 46.984375 28.882812 46.925781 29.015625 C 46.871094 29.152344 46.792969 29.269531 46.6875 29.375 C 46.585938 29.476562 46.464844 29.558594 46.328125 29.613281 C 46.195312 29.667969 46.054688 29.699219 45.90625 29.699219 L 24.578125 29.699219 C 24.433594 29.699219 24.292969 29.667969 24.15625 29.613281 C 24.019531 29.558594 23.902344 29.476562 23.796875 29.375 C 23.695312 29.269531 23.613281 29.152344 23.558594 29.015625 C 23.503906 28.882812 23.472656 28.738281 23.472656 28.59375 L 23.472656 28.285156 C 23.472656 28.140625 23.503906 27.996094 23.558594 27.863281 C 23.613281 27.726562 23.695312 27.609375 23.796875 27.503906 C 23.902344 27.402344 24.019531 27.320312 24.15625 27.265625 C 24.292969 27.207031 24.433594 27.179688 24.578125 27.179688 Z M 24.578125 27.179688 " fill-opacity="1" fill-rule="nonzero"/><path fill="#ffffff" d="M 24.578125 33.980469 L 45.90625 33.980469 C 46.054688 33.980469 46.195312 34.007812 46.328125 34.0625 C 46.464844 34.121094 46.585938 34.199219 46.6875 34.304688 C 46.792969 34.40625 46.871094 34.527344 46.925781 34.660156 C 46.984375 34.796875 47.011719 34.9375 47.011719 35.085938 L 47.011719 35.394531 C 47.011719 35.539062 46.984375 35.679688 46.925781 35.816406 C 46.871094 35.949219 46.792969 36.070312 46.6875 36.171875 C 46.585938 36.277344 46.464844 36.355469 46.328125 36.414062 C 46.195312 36.46875 46.054688 36.496094 45.90625 36.496094 L 24.578125 36.496094 C 24.433594 36.496094 24.292969 36.46875 24.15625 36.414062 C 24.019531 36.355469 23.902344 36.277344 23.796875 36.171875 C 23.695312 36.070312 23.613281 35.949219 23.558594 35.816406 C 23.503906 35.679688 23.472656 35.539062 23.472656 35.394531 L 23.472656 35.085938 C 23.472656 34.9375 23.503906 34.796875 23.558594 34.660156 C 23.613281 34.527344 23.695312 34.40625 23.796875 34.304688 C 23.902344 34.199219 24.019531 34.121094 24.15625 34.0625 C 24.292969 34.007812 24.433594 33.980469 24.578125 33.980469 Z M 24.578125 33.980469 " fill-opacity="1" fill-rule="nonzero"/><path fill="#ffffff" d="M 24.402344 40.789062 L 42.289062 40.789062 C 42.796875 40.789062 43.214844 41.285156 43.214844 41.894531 L 43.214844 42.203125 C 43.214844 42.808594 42.796875 43.304688 42.289062 43.304688 L 24.402344 43.304688 C 23.890625 43.304688 23.472656 42.808594 23.472656 42.203125 L 23.472656 41.894531 C 23.472656 41.285156 23.890625 40.789062 24.402344 40.789062 Z M 24.402344 40.789062 " fill-opacity="1" fill-rule="evenodd"/><path fill="#ffffff" d="M 24.488281 47.589844 L 44.097656 47.589844 C 44.238281 47.59375 44.371094 47.628906 44.5 47.6875 C 44.625 47.746094 44.738281 47.828125 44.832031 47.933594 C 44.929688 48.035156 45 48.152344 45.046875 48.285156 C 45.097656 48.417969 45.117188 48.554688 45.113281 48.691406 L 45.113281 49 C 45.117188 49.140625 45.097656 49.277344 45.046875 49.410156 C 45 49.542969 44.929688 49.660156 44.832031 49.761719 C 44.738281 49.867188 44.625 49.945312 44.5 50.007812 C 44.371094 50.066406 44.238281 50.097656 44.097656 50.105469 L 24.488281 50.105469 C 24.347656 50.097656 24.214844 50.066406 24.089844 50.007812 C 23.960938 49.945312 23.847656 49.867188 23.753906 49.761719 C 23.660156 49.660156 23.585938 49.542969 23.539062 49.410156 C 23.492188 49.277344 23.46875 49.140625 23.472656 49 L 23.472656 48.691406 C 23.46875 48.554688 23.492188 48.417969 23.539062 48.285156 C 23.585938 48.152344 23.660156 48.035156 23.753906 47.933594 C 23.847656 47.828125 23.960938 47.746094 24.089844 47.6875 C 24.214844 47.628906 24.347656 47.59375 24.488281 47.589844 Z M 24.488281 47.589844 " fill-opacity="1" fill-rule="evenodd"/><path fill="#ffffff" d="M 28.972656 56.621094 C 28.960938 56.476562 29.003906 56.347656 29.105469 56.242188 C 29.21875 56.144531 29.347656 56.101562 29.496094 56.113281 C 29.644531 56.105469 29.773438 56.148438 29.882812 56.246094 C 29.972656 56.351562 30.019531 56.476562 30.019531 56.621094 C 30.015625 56.761719 29.972656 56.886719 29.878906 56.992188 C 29.773438 57.09375 29.644531 57.136719 29.496094 57.128906 C 29.347656 57.140625 29.21875 57.09375 29.109375 56.996094 C 29.007812 56.890625 28.960938 56.765625 28.972656 56.621094 Z M 28.972656 56.621094 " fill-opacity="1" fill-rule="nonzero"/><path fill="#ffffff" d="M 33.59375 57.050781 L 33.277344 56.007812 L 31.683594 56.007812 L 31.363281 57.050781 L 30.367188 57.050781 L 31.910156 52.660156 L 33.042969 52.660156 L 34.589844 57.050781 Z M 33.054688 55.230469 C 32.761719 54.289062 32.597656 53.753906 32.558594 53.632812 C 32.523438 53.507812 32.496094 53.410156 32.480469 53.339844 C 32.414062 53.59375 32.226562 54.226562 31.914062 55.234375 Z M 33.054688 55.230469 " fill-opacity="1" fill-rule="nonzero"/><path fill="#ffffff" d="M 37.722656 55.835938 C 37.738281 56.21875 37.59375 56.53125 37.296875 56.769531 C 36.941406 57.023438 36.546875 57.136719 36.109375 57.109375 C 35.675781 57.117188 35.265625 57.03125 34.871094 56.847656 L 34.871094 55.984375 C 35.113281 56.097656 35.363281 56.191406 35.621094 56.261719 C 35.804688 56.3125 35.992188 56.339844 36.179688 56.34375 C 36.351562 56.355469 36.503906 56.316406 36.648438 56.226562 C 36.765625 56.140625 36.820312 56.023438 36.8125 55.878906 C 36.8125 55.796875 36.789062 55.71875 36.742188 55.652344 C 36.683594 55.574219 36.613281 55.511719 36.53125 55.457031 C 36.347656 55.347656 36.15625 55.25 35.964844 55.164062 C 35.746094 55.066406 35.546875 54.949219 35.363281 54.800781 C 35.230469 54.6875 35.121094 54.550781 35.042969 54.398438 C 34.957031 54.226562 34.917969 54.046875 34.921875 53.859375 C 34.90625 53.492188 35.035156 53.1875 35.316406 52.945312 C 35.636719 52.703125 36 52.589844 36.402344 52.617188 C 36.625 52.613281 36.839844 52.640625 37.054688 52.695312 C 37.273438 52.753906 37.492188 52.832031 37.699219 52.921875 L 37.402344 53.644531 C 37.214844 53.5625 37.019531 53.496094 36.824219 53.445312 C 36.675781 53.40625 36.527344 53.386719 36.375 53.386719 C 36.222656 53.375 36.089844 53.417969 35.96875 53.507812 C 35.871094 53.59375 35.824219 53.699219 35.828125 53.828125 C 35.828125 53.90625 35.847656 53.976562 35.886719 54.042969 C 35.933594 54.113281 35.996094 54.171875 36.066406 54.21875 C 36.257812 54.332031 36.453125 54.4375 36.65625 54.527344 C 36.980469 54.660156 37.257812 54.855469 37.496094 55.113281 C 37.65625 55.328125 37.730469 55.570312 37.722656 55.835938 Z M 37.722656 55.835938 " fill-opacity="1" fill-rule="nonzero"/><path fill="#ffffff" d="M 40.199219 57.050781 L 39.273438 57.050781 L 39.273438 53.449219 L 38.085938 53.449219 L 38.085938 52.679688 L 41.386719 52.679688 L 41.386719 53.449219 L 40.199219 53.449219 Z M 40.199219 57.050781 " fill-opacity="1" fill-rule="nonzero"/></svg>